{
.appVersion = "1230";
DisplayStrings = (
fox
);
copyright = "This Font Software is licensed under the SIL Open Font License, Version 1.1.";
customParameters = (
{
name = Axes;
value = (
{
Name = Weight;
Tag = wght;
},
{
Name = Width;
Tag = wdth;
}
);
},
{
name = "Virtual Master";
value = (
{
Axis = Weight;
Location = 0;
},
{
Axis = Width;
Location = 0;
}
);
},
{
name = "Enforce Compatibility Check";
value = 1;
}
);
date = "2020-09-29 09:10:42 +0000";
designer = "Mateo Broillet / e-t-c typefoundry";
designerURL = www.mateobroillet.ch;
familyName = Seymaz;
featurePrefixes = (
{
automatic = 1;
code = "languagesystem DFLT dflt;\012";
name = Languagesystems;
}
);
features = (
{
automatic = 1;
code = "feature salt;\012feature ss01;\012feature calt;\012";
name = aalt;
},
{
automatic = 1;
code = "lookup ccmp_Other_1 {\012	@CombiningTopAccents = [acutecomb circumflexcomb dieresiscomb dotaccentcomb gravecomb ringcomb tildecomb];\012	@CombiningNonTopAccents = [cedillacomb];\012	sub [i]' @CombiningTopAccents by [idotless];\012	sub [i]' @CombiningNonTopAccents @CombiningTopAccents by [idotless];\012} ccmp_Other_1;\012";
name = ccmp;
},
{
code = "sub f t by f_t;\012sub i t by i_t;\012\012";
name = dlig;
},
{
code = "sub f f i by f_f_i;\012sub f f l by f_f_l;\012sub f i by f_i;\012sub f l by f_l;\012sub t i by t_i;";
name = liga;
},
{
automatic = 1;
code = "sub E by E.ss01;\012sub Eacute by Eacute.ss01;\012sub Ecircumflex by Ecircumflex.ss01;\012sub Edieresis by Edieresis.ss01;\012sub Egrave by Egrave.ss01;\012sub F by F.ss01;\012sub J by J.ss01;\012sub L by L.ss01;\012sub T by T.ss01;\012sub f by f.ss01;\012sub y by y.ss01;\012sub one by one.ss01;\012";
name = salt;
},
{
automatic = 1;

glyphs = (
{
color = 4;
glyphname = A;
lastChange = "2020-09-26 15:43:02 +0000";
layers = (
{
hints = (
{
horizontal = 1;
origin = "{0, 5}";
target = up;
type = BottomGhost;
},
{
horizontal = 1;
origin = "{0, 3}";
target = "{1, 0}";
type = Stem;
},
{
horizontal = 1;
origin = "{0, 3}";
target = "{0, 4}";
type = Stem;
},
{
horizontal = 1;
origin = "{0, 7}";
target = "{1, 3}";
type = Stem;
}
);
layerId = "B64BEB12-03E1-41C2-8D0F-395888C0A328";
paths = (
{
closed = 1;
nodes = (
"114 0 LINE",
"260 685 LINE",
"229 730 LINE",
"137 730 LINE",
"88 685 LINE",
"-58 0 LINE",
"22 0 LINE",
"92 327 LINE",
"104 327 LINE",
"34 0 LINE"
);
},
{
closed = 1;
nodes = (
"161 655 LINE",
"173 655 LINE",
"119 402 LINE",
"107 402 LINE"
);
}
);
userData = {
assembly = "PUSHW[ ]\011/* 1 value pushed */
10 
CALL[ ]\011/* CallFunction */
SVTCA[0]\011/* SetFreedomAndProjectionVectorToAxis */
PUSHW[ ]\011/* 1 value pushed */
6 
RCVT[ ]\011/* ReadCVT */
IF[ ]\011/* If */
PUSHW[ ]\011/* 1 value pushed */
5 
MDAP[1]\011/* MoveDirectAbsPt */
ELSE[ ]\011/* Else */
PUSHW[ ]\011/* 2 values pushed */
5 19 
MIAP[0]\011/* MoveIndirectAbsPt */
EIF[ ]\011/* EndIf */
PUSHW[ ]\011/* 1 value pushed */
6 
RCVT[ ]\011/* ReadCVT */
IF[ ]\011/* If */
PUSHW[ ]\011/* 1 value pushed */
0 
MDAP[1]\011/* MoveDirectAbsPt */
ELSE[ ]\011/* Else */
PUSHW[ ]\011/* 2 values pushed */
0 13 
MIAP[0]\011/* MoveIndirectAbsPt */
EIF[ ]\011/* EndIf */
PUSHW[ ]\011/* 1 value pushed */
6 
RCVT[ ]\011/* ReadCVT */
IF[ ]\011/* If */
PUSHW[ ]\011/* 1 value pushed */
3 
MDAP[1]\011/* MoveDirectAbsPt */
ELSE[ ]\011/* Else */
PUSHW[ ]\011/* 2 values pushed */
3 13 
MIAP[0]\011/* MoveIndirectAbsPt */
EIF[ ]\011/* EndIf */
PUSHW[ ]\011/* 3 values pushed */
10 0 5 
SRP1[ ]\011/* SetRefPoint1 */
SRP2[ ]\011/* SetRefPoint2 */
IP[ ]\011/* InterpolatePts */
IUP[0]\011/* InterpolateUntPts */
IUP[1]\011/* InterpolateUntPts */";
};
width = 184;
},
{
hints = (
{
horizontal = 1;
origin = "{0, 5}";
target = up;
type = BottomGhost;
},
{
horizontal = 1;
origin = "{0, 7}";
target = "{1, 3}";
type = Stem;
},
{
horizontal = 1;
origin = "{0, 3}";
target = "{1, 0}";
type = Stem;
}
);
layerId = "DBA696BD-A337-48FC-9DA1-CD58B2C81FFB";
paths = (
{
closed = 1;
nodes = (
"-22 0 LINE",
"123 682 LINE",
"117 690 LINE",
"97 690 LINE",
"87 682 LINE",
"-58 0 LINE",
"-46 0 LINE",
"30 359 LINE",
"42 359 LINE",
"-34 0 LINE"
);
},
{
closed = 1;
nodes = (
"98 679 LINE",
"110 679 LINE",
"45 370 LINE",
"33 370 LINE"
);
}
);
width = 48;
}
);
note = A;
unicode = 0041;
},
{
color = 4;
glyphname = AE;
lastChange = "2020-09-16 15:35:06 +0000";
layers = (
{
layerId = "B64BEB12-03E1-41C2-8D0F-395888C0A328";
paths = (
{
closed = 1;
nodes = (
"22 0 LINE",
"92 327 LINE",
"104 327 LINE",
"34 0 LINE",
"206 0 LINE",
"273 314 LINE",
"193 314 LINE",
"142 76 LINE",
"130 76 LINE",
"183 326 LINE",
"275 326 LINE",
"291 401 LINE",
"199 401 LINE",
"253 656 LINE",
"265 656 LINE",
"214 413 LINE",
"294 413 LINE",
"361 730 LINE",
"137 730 LINE",
"88 685 LINE",
"-58 0 LINE"
);
},
{
closed = 1;
nodes = (
"161 655 LINE",
"173 655 LINE",
"119 402 LINE",
"107 402 LINE"
);
}
);
width = 276;
},
{
layerId = "DBA696BD-A337-48FC-9DA1-CD58B2C81FFB";
paths = (
{
closed = 1;
nodes = (
"-46 0 LINE",
"30 359 LINE",
"42 359 LINE",
"-34 0 LINE",
"2 0 LINE",
"75 345 LINE",
"63 345 LINE",
"-8 11 LINE",
"-20 11 LINE",
"54 357 LINE",
"78 357 LINE",
"80 368 LINE",
"56 368 LINE",
"122 679 LINE",
"134 679 LINE",
"71 380 LINE",
"83 380 LINE",
"149 690 LINE",
"97 690 LINE",
"87 682 LINE",
"-58 0 LINE"
);
},
{
closed = 1;
nodes = (
"98 679 LINE",
"110 679 LINE",
"45 370 LINE",
"33 370 LINE"
);
}
);
width = 72;
}
);
unicode = 00C6;
},
{
color = 4;
glyphname = B;
lastChange = "2020-09-26 15:40:47 +0000";
layers = (
{
hints = (
{
horizontal = 1;
origin = "{0, 1}";
target = "{1, 0}";
type = Stem;
},
{
horizontal = 1;
origin = "{0, 6}";
target = "{2, 3}";
type = Stem;
},
{
horizontal = 1;
origin = "{0, 0}";
target = "{2, 0}";
type = Stem;
},
{
horizontal = 1;
origin = "{1, 1}";
target = "{0, 5}";
type = Stem;
},
{
horizontal = 1;
origin = "{0, 0}";
target = "{0, 8}";
type = Stem;
}
);
layerId = "B64BEB12-03E1-41C2-8D0F-395888C0A328";
paths = (
{
closed = 1;
nodes = (
"97 730 LINE",
"-58 0 LINE",
"75 0 LINE",
"124 45 LINE",
"190 356 LINE",
"157 356 LINE",
"159 368 LINE",
"192 368 LINE",
"260 685 LINE",
"229 730 LINE"
);
},
{
closed = 1;
nodes = (
"38 75 LINE",
"91 325 LINE",
"103 325 LINE",
"50 75 LINE"
);
},
{
closed = 1;
nodes = (
"161 655 LINE",
"173 655 LINE",
"119 400 LINE",
"107 400 LINE"
);
}
);
userData = {
assembly = "PUSHW[ ]\011/* 1 value pushed */
19 
MDAP[1]\011/* MoveDirectAbsPt */
PUSHW[ ]\011/* 1 value pushed */
11 
MDAP[1]\011/* MoveDirectAbsPt */
PUSHW[ ]\011/* 2 values pushed */
7 1 
MIRP[10100]\011/* MoveIndirectRelPt */
PUSHW[ ]\011/* 1 value pushed */
1 
MDRP[10000]\011/* MoveDirectRelPt */
PUSHW[ ]\011/* 1 value pushed */
7 
SRP0[ ]\011/* SetRefPoint0 */
PUSHW[ ]\011/* 1 value pushed */
3 
MDRP[10000]\011/* MoveDirectRelPt */
PUSHW[ ]\011/* 3 values pushed */
4 11 7 
SRP1[ ]\011/* SetRefPoint1 */
SRP2[ ]\011/* SetRefPoint2 */
IP[ ]\011/* InterpolatePts */
PUSHW[ ]\011/* 1 value pushed */
7 
SRP0[ ]\011/* SetRefPoint0 */
PUSHW[ ]\011/* 1 value pushed */
5 
MDRP[10000]\011/* MoveDirectRelPt */
PUSHW[ ]\011/* 1 value pushed */
19 
SRP0[ ]\011/* SetRefPoint0 */
PUSHW[ ]\011/* 1 value pushed */
9 
MDRP[10000]\011/* MoveDirectRelPt */
PUSHW[ ]\011/* 1 value pushed */
9 
MDAP[1]\011/* MoveDirectAbsPt */
PUSHW[ ]\011/* 2 values pushed */
14 1 
MIRP[10100]\011/* MoveIndirectRelPt */
PUSHW[ ]\011/* 1 value pushed */
15 
MDRP[10000]\011/* MoveDirectRelPt */
PUSHW[ ]\011/* 1 value pushed */
11 
SRP0[ ]\011/* SetRefPoint0 */
PUSHW[ ]\011/* 1 value pushed */
16 
MDRP[10000]\011/* MoveDirectRelPt */
PUSHW[ ]\011/* 1 value pushed */
7 
SRP0[ ]\011/* SetRefPoint0 */
PUSHW[ ]\011/* 1 value pushed */
20 
MDRP[11100]\011/* MoveDirectRelPt */
SVTCA[0]\011/* SetFreedomAndProjectionVectorToAxis */
PUSHW[ ]\011/* 1 value pushed */
0 
MDAP[1]\011/* MoveDirectAbsPt */
PUSHW[ ]\011/* 1 value pushed */
0 
RCVT[ ]\011/* ReadCVT */
IF[ ]\011/* If */
PUSHW[ ]\011/* 1 value pushed */
8 
MDAP[1]\011/* MoveDirectAbsPt */
ELSE[ ]\011/* Else */
PUSHW[ ]\011/* 2 values pushed */
8 2 
MIAP[0]\011/* MoveIndirectAbsPt */
EIF[ ]\011/* EndIf */
PUSHW[ ]\011/* 3 values pushed */
4 8 0 
SRP1[ ]\011/* SetRefPoint1 */
SRP2[ ]\011/* SetRefPoint2 */
IP[ ]\011/* InterpolatePts */
IUP[0]\011/* InterpolateUntPts */
IUP[1]\011/* InterpolateUntPts */";
};
width = 184;
},
{
hints = (
{
horizontal = 1;
origin = "{0, 1}";
target = "{1, 0}";
type = Stem;
},
{
horizontal = 1;
origin = "{1, 1}";
target = "{2, 3}";
type = Stem;
},
{
horizontal = 1;
origin = "{0, 0}";
target = "{2, 0}";
type = Stem;
},
{
place = "{42, 8}";
type = Stem;
}
);
layerId = "DBA696BD-A337-48FC-9DA1-CD58B2C81FFB";
paths = (
{
closed = 1;
nodes = (
"89 690 LINE",
"-58 0 LINE",
"-30 0 LINE",
"-20 8 LINE",
"54 356 LINE",
"49 356 LINE",
"51 368 LINE",
"56 368 LINE",
"123 682 LINE",
"117 690 LINE"
);
},
{
closed = 1;
nodes = (
"-44 11 LINE",
"30 357 LINE",
"42 357 LINE",
"-32 11 LINE"
);
},
{
closed = 1;
nodes = (
"98 679 LINE",
"110 679 LINE",
"44 368 LINE",
"32 368 LINE"
);
}
);
width = 48;
}
);
note = B;
unicode = 0042;
},
{
color = 4;
glyphname = C;
lastChange = "2020-09-26 15:40:29 +0000";
layers = (
{
hints = (
{
horizontal = 1;
origin = "{0, 11}";
target = "{0, 1}";
type = Stem;
},
{
horizontal = 1;
origin = "{0, 8}";
target = "{0, 2}";
type = Stem;
},
{
horizontal = 1;
origin = "{0, 8}";
target = "{0, 9}";
type = Stem;
}
);
layerId = "B64BEB12-03E1-41C2-8D0F-395888C0A328";
paths = (
{
closed = 1;
nodes = (
"50 75 LINE",
"38 75 LINE",
"162 655 LINE",
"174 655 LINE",
"113 370 LINE",
"193 370 LINE",
"260 685 LINE",
"230 730 LINE",
"137 730 LINE",
"88 685 LINE",
"-48 45 LINE",
"-19 0 LINE",
"75 0 LINE",
"124 45 LINE",
"191 358 LINE",
"111 358 LINE"
);
}
);
userData = {
assembly = "PUSHW[ ]\011/* 1 value pushed */
10 
CALL[ ]\011/* CallFunction */
PUSHW[ ]\011/* 1 value pushed */
16 
MDAP[1]\011/* MoveDirectAbsPt */
PUSHW[ ]\011/* 1 value pushed */
0 
MDAP[1]\011/* MoveDirectAbsPt */
PUSHW[ ]\011/* 2 values pushed */
1 9 
MIRP[10100]\011/* MoveIndirectRelPt */
PUSHW[ ]\011/* 1 value pushed */
16 
SRP0[ ]\011/* SetRefPoint0 */
PUSHW[ ]\011/* 1 value pushed */
5 
MDRP[10000]\011/* MoveDirectRelPt */
PUSHW[ ]\011/* 1 value pushed */
5 
MDAP[1]\011/* MoveDirectAbsPt */
PUSHW[ ]\011/* 1 value pushed */
1 
SRP0[ ]\011/* SetRefPoint0 */
PUSHW[ ]\011/* 1 value pushed */
9 
MDRP[10000]\011/* MoveDirectRelPt */
PUSHW[ ]\011/* 1 value pushed */
0 
SRP0[ ]\011/* SetRefPoint0 */
PUSHW[ ]\011/* 1 value pushed */
11 
MDRP[10000]\011/* MoveDirectRelPt */
PUSHW[ ]\011/* 1 value pushed */
5 
SRP0[ ]\011/* SetRefPoint0 */
PUSHW[ ]\011/* 2 values pushed */
14 9 
MIRP[10100]\011/* MoveIndirectRelPt */
PUSHW[ ]\011/* 1 value pushed */
1 
SRP0[ ]\011/* SetRefPoint0 */
PUSHW[ ]\011/* 1 value pushed */
17 
MDRP[11100]\011/* MoveDirectRelPt */
SVTCA[0]\011/* SetFreedomAndProjectionVectorToAxis */
PUSHW[ ]\011/* 1 value pushed */
6 
RCVT[ ]\011/* ReadCVT */
IF[ ]\011/* If */
PUSHW[ ]\011/* 1 value pushed */
7 
MDAP[1]\011/* MoveDirectAbsPt */
ELSE[ ]\011/* Else */
PUSHW[ ]\011/* 2 values pushed */
7 19 
MIAP[0]\011/* MoveIndirectAbsPt */
EIF[ ]\011/* EndIf */
PUSHW[ ]\011/* 1 value pushed */
6 
RCVT[ ]\011/* ReadCVT */
IF[ ]\011/* If */
PUSHW[ ]\011/* 1 value pushed */
3 
MDAP[1]\011/* MoveDirectAbsPt */
ELSE[ ]\011/* Else */
PUSHW[ ]\011/* 2 values pushed */
3 13 
MIAP[0]\011/* MoveIndirectAbsPt */
EIF[ ]\011/* EndIf */
IUP[0]\011/* InterpolateUntPts */
IUP[1]\011/* InterpolateUntPts */";
};
width = 185;
},
{
hints = (
{
horizontal = 1;
origin = "{0, 11}";
target = "{0, 1}";
type = Stem;
},
{
horizontal = 1;
origin = "{0, 8}";
target = "{0, 2}";
type = Stem;
}
);
layerId = "DBA696BD-A337-48FC-9DA1-CD58B2C81FFB";
paths = (
{
closed = 1;
nodes = (
"-31 11 LINE",
"-43 11 LINE",
"99 679 LINE",
"111 679 LINE",
"45 370 LINE",
"57 370 LINE",
"123 682 LINE",
"117 690 LINE",
"97 690 LINE",
"87 682 LINE",
"-56 8 LINE",
"-50 0 LINE",
"-30 0 LINE",
"-20 8 LINE",
"54 358 LINE",
"42 358 LINE"
);
}
);
width = 48;
}
);
note = C;
unicode = 0043;
},
{
color = 4;
glyphname = D;
lastChange = "2020-09-26 15:43:08 +0000";
layers = (
{
hints = (
{
horizontal = 1;
origin = "{0, 2}";
target = "{1, 2}";
type = Stem;
},
{
horizontal = 1;
origin = "{0, 1}";
target = "{0, 5}";
type = Stem;
},
{
horizontal = 1;
origin = "{0, 1}";
target = "{1, 3}";
type = Stem;
}
);
layerId = "B64BEB12-03E1-41C2-8D0F-395888C0A328";
paths = (
{
closed = 1;
nodes = (
"229 730 LINE",
"97 730 LINE",
"-58 0 LINE",
"75 0 LINE",
"124 45 LINE",
"260 685 LINE"
);
},
{
closed = 1;
nodes = (
"173 655 LINE",
"50 75 LINE",
"38 75 LINE",
"161 655 LINE"
);
}
);
userData = {
assembly = "PUSHW[ ]\011/* 1 value pushed */
10 
MDAP[1]\011/* MoveDirectAbsPt */
PUSHW[ ]\011/* 1 value pushed */
8 
MDAP[1]\011/* MoveDirectAbsPt */
PUSHW[ ]\011/* 2 values pushed */
1 1 
MIRP[10100]\011/* MoveIndirectRelPt */
PUSHW[ ]\011/* 1 value pushed */
10 
SRP0[ ]\011/* SetRefPoint0 */
PUSHW[ ]\011/* 1 value pushed */
3 
MDRP[10000]\011/* MoveDirectRelPt */
PUSHW[ ]\011/* 1 value pushed */
3 
MDAP[1]\011/* MoveDirectAbsPt */
PUSHW[ ]\011/* 2 values pushed */
7 1 
MIRP[10100]\011/* MoveIndirectRelPt */
PUSHW[ ]\011/* 1 value pushed */
1 
SRP0[ ]\011/* SetRefPoint0 */
PUSHW[ ]\011/* 1 value pushed */
11 
MDRP[11100]\011/* MoveDirectRelPt */
SVTCA[0]\011/* SetFreedomAndProjectionVectorToAxis */
PUSHW[ ]\011/* 1 value pushed */
4 
MDAP[1]\011/* MoveDirectAbsPt */
PUSHW[ ]\011/* 1 value pushed */
0 
RCVT[ ]\011/* ReadCVT */
IF[ ]\011/* If */
PUSHW[ ]\011/* 1 value pushed */
2 
MDAP[1]\011/* MoveDirectAbsPt */
ELSE[ ]\011/* Else */
PUSHW[ ]\011/* 2 values pushed */
2 2 
MIAP[0]\011/* MoveIndirectAbsPt */
EIF[ ]\011/* EndIf */
IUP[0]\011/* InterpolateUntPts */
IUP[1]\011/* InterpolateUntPts */";
};
width = 184;
},
{
hints = (
{
horizontal = 1;
origin = "{0, 2}";
target = "{1, 2}";
type = Stem;
},
{
horizontal = 1;
origin = "{0, 1}";
target = "{1, 3}";
type = Stem;
}
);
layerId = "DBA696BD-A337-48FC-9DA1-CD58B2C81FFB";
paths = (
{
closed = 1;
nodes = (
"117 690 LINE",
"89 690 LINE",
"-58 0 LINE",
"-30 0 LINE",
"-20 8 LINE",
"123 682 LINE"
);
},
{
closed = 1;
nodes = (
"110 679 LINE",
"-32 11 LINE",
"-44 11 LINE",
"98 679 LINE"
);
}
);
width = 48;
}
);
note = D;
unicode = 0044;
},
{
color = 4;
glyphname = Eth;
lastChange = "2020-09-17 07:58:40 +0000";
layers = (
{
components = (
{
name = D;
}
);
layerId = "B64BEB12-03E1-41C2-8D0F-395888C0A328";
paths = (
{
closed = 1;
nodes = (
"5 308 LINE",
"163 308 LINE",
"179 383 LINE",
"21 383 LINE"
);
}
);
width = 184;
},
{
components = (
{
name = D;
}
);
layerId = "DBA696BD-A337-48FC-9DA1-CD58B2C81FFB";
paths = (
{
closed = 1;
nodes = (
"12 340 LINE",
"46 340 LINE",
"48 351 LINE",
"14 351 LINE"
);
}
);
width = 48;
}
);
unicode = 00D0;
},
{
color = 4;
glyphname = E;
lastChange = "2020-10-01 09:36:40 +0000";
layers = (
{
hints = (
{
horizontal = 1;
origin = "{0, 3}";
target = "{0, 8}";
type = Stem;
},
{
horizontal = 1;
origin = "{1, 0}";
target = "{1, 3}";
type = Stem;
},
{
horizontal = 1;
origin = "{0, 2}";
target = "{0, 9}";
type = Stem;
}
);
layerId = "B64BEB12-03E1-41C2-8D0F-395888C0A328";
paths = (
{
closed = 1;
nodes = (
"202 414 LINE",
"269 730 LINE",
"97 730 LINE",
"-58 0 LINE",
"114 0 LINE",
"181 315 LINE",
"101 315 LINE",
"50 75 LINE",
"38 75 LINE",
"161 655 LINE",
"173 655 LINE",
"122 414 LINE"
);
},
{
closed = 1;
nodes = (
"21 327 LINE",
"184 327 LINE",
"199 402 LINE",
"36 402 LINE"
);
}
);
userData = {
assembly = "PUSHW[ ]\011/* 4 values pushed */
6 1 9 4 
CALL[ ]\011/* CallFunction */
PUSHW[ ]\011/* 1 value pushed */
9 
SRP0[ ]\011/* SetRefPoint0 */
PUSHW[ ]\011/* 1 value pushed */
8 
MDRP[11100]\011/* MoveDirectRelPt */
PUSHW[ ]\011/* 1 value pushed */
0 
MDRP[10000]\011/* MoveDirectRelPt */
PUSHW[ ]\011/* 1 value pushed */
6 
SRP0[ ]\011/* SetRefPoint0 */
PUSHW[ ]\011/* 1 value pushed */
1 
MDRP[10000]\011/* MoveDirectRelPt */
PUSHW[ ]\011/* 1 value pushed */
8 
SRP0[ ]\011/* SetRefPoint0 */
PUSHW[ ]\011/* 1 value pushed */
11 
MDRP[10000]\011/* MoveDirectRelPt */
SVTCA[0]\011/* SetFreedomAndProjectionVectorToAxis */
PUSHW[ ]\011/* 1 value pushed */
10 
MDAP[1]\011/* MoveDirectAbsPt */
PUSHW[ ]\011/* 1 value pushed */
0 
RCVT[ ]\011/* ReadCVT */
IF[ ]\011/* If */
PUSHW[ ]\011/* 1 value pushed */
8 
MDAP[1]\011/* MoveDirectAbsPt */
ELSE[ ]\011/* Else */
PUSHW[ ]\011/* 2 values pushed */
8 2 
MIAP[0]\011/* MoveIndirectAbsPt */
EIF[ ]\011/* EndIf */
IUP[0]\011/* InterpolateUntPts */
IUP[1]\011/* InterpolateUntPts */";
};
width = 184;
},
{
hints = (
{
horizontal = 1;
origin = "{0, 3}";
target = "{0, 8}";
type = Stem;
},
{
horizontal = 1;
origin = "{1, 0}";
target = "{1, 3}";
type = Stem;
},
{
horizontal = 1;
origin = "{0, 2}";
target = "{0, 9}";
type = Stem;
},
{
place = "{47, 8}";
type = Stem;
}
);
layerId = "DBA696BD-A337-48FC-9DA1-CD58B2C81FFB";
paths = (
{
closed = 1;
nodes = (
"59 380 LINE",
"125 690 LINE",
"89 690 LINE",
"-58 0 LINE",
"-22 0 LINE",
"51 345 LINE",
"39 345 LINE",
"-32 11 LINE",
"-44 11 LINE",
"98 679 LINE",
"110 679 LINE",
"47 380 LINE"
);
},
{
closed = 1;
nodes = (
"19 357 LINE",
"54 357 LINE",
"56 368 LINE",
"21 368 LINE"
);
}
);
width = 48;
}
);
note = E;
unicode = 0045;
},
{
color = 4;
glyphname = F;
lastChange = "2020-10-01 09:36:21 +0000";
layers = (
{
hints = (
{
horizontal = 1;
origin = "{0, 5}";
target = up;
type = BottomGhost;
},
{
horizontal = 1;
origin = "{1, 0}";
target = "{1, 3}";
type = Stem;
},
{
horizontal = 1;
origin = "{0, 4}";
target = "{0, 8}";
type = Stem;
}
);
layerId = "B64BEB12-03E1-41C2-8D0F-395888C0A328";
paths = (
{
closed = 1;
nodes = (
"202 414 LINE",
"269 730 LINE",
"229 730 LINE",
"137 730 LINE",
"97 730 LINE",
"-58 0 LINE",
"22 0 LINE",
"38 75 LINE",
"161 655 LINE",
"173 655 LINE",
"122 414 LINE"
);
},
{
closed = 1;
nodes = (
"21 327 LINE",
"184 327 LINE",
"199 402 LINE",
"36 402 LINE"
);
}
);
userData = {
assembly = "PUSHW[ ]\011/* 1 value pushed */
10 
CALL[ ]\011/* CallFunction */
PUSHW[ ]\011/* 4 values pushed */
5 9 6 14 
CALL[ ]\011/* CallFunction */
PUSHW[ ]\011/* 1 value pushed */
5 
SRP0[ ]\011/* SetRefPoint0 */
PUSHW[ ]\011/* 1 value pushed */
0 
MDRP[10000]\011/* MoveDirectRelPt */
PUSHW[ ]\011/* 1 value pushed */
6 
SRP0[ ]\011/* SetRefPoint0 */
PUSHW[ ]\011/* 2 values pushed */
9 12 
MIRP[10100]\011/* MoveIndirectRelPt */
SVTCA[0]\011/* SetFreedomAndProjectionVectorToAxis */
PUSHW[ ]\011/* 1 value pushed */
6 
RCVT[ ]\011/* ReadCVT */
IF[ ]\011/* If */
PUSHW[ ]\011/* 1 value pushed */
7 
MDAP[1]\011/* MoveDirectAbsPt */
ELSE[ ]\011/* Else */
PUSHW[ ]\011/* 2 values pushed */
7 19 
MIAP[0]\011/* MoveIndirectAbsPt */
EIF[ ]\011/* EndIf */
PUSHW[ ]\011/* 1 value pushed */
6 
RCVT[ ]\011/* ReadCVT */
IF[ ]\011/* If */
PUSHW[ ]\011/* 1 value pushed */
5 
MDAP[1]\011/* MoveDirectAbsPt */
ELSE[ ]\011/* Else */
PUSHW[ ]\011/* 2 values pushed */
5 13 
MIAP[0]\011/* MoveIndirectAbsPt */
EIF[ ]\011/* EndIf */
IUP[0]\011/* InterpolateUntPts */
IUP[1]\011/* InterpolateUntPts */";
};
width = 184;
},
{
hints = (
{
horizontal = 1;
origin = "{0, 5}";
target = up;
type = BottomGhost;
},
{
horizontal = 1;
origin = "{1, 0}";
target = "{1, 3}";
type = Stem;
},
{
horizontal = 1;
origin = "{0, 4}";
target = "{0, 8}";
type = Stem;
},
{
place = "{49, 8}";
type = Stem;
}
);
layerId = "DBA696BD-A337-48FC-9DA1-CD58B2C81FFB";
paths = (
{
closed = 1;
nodes = (
"61 389 LINE",
"125 690 LINE",
"102 690 LINE",
"95 690 LINE",
"89 690 LINE",
"-58 0 LINE",
"-46 0 LINE",
"-30 75 LINE",
"98 679 LINE",
"110 679 LINE",
"49 389 LINE"
);
},
{
closed = 1;
nodes = (
"21 366 LINE",
"56 366 LINE",
"58 377 LINE",
"23 377 LINE"
);
}
);
width = 48;
}
);
note = F;
unicode = 0046;
},
{
color = 4;
glyphname = G;
lastChange = "2020-09-26 15:43:11 +0000";
layers = (
{
hints = (
{
horizontal = 1;
origin = "{0, 15}";
target = "{0, 5}";
type = Stem;
},
{
horizontal = 1;
origin = "{1, 3}";
target = "{1, 2}";
type = Stem;
},
{
horizontal = 1;
origin = "{0, 12}";
target = "{0, 6}";
type = Stem;
},
{
horizontal = 1;
origin = "{0, 12}";
target = "{0, 13}";
type = Stem;
}
);
layerId = "B64BEB12-03E1-41C2-8D0F-395888C0A328";
paths = (
{
closed = 1;
nodes = (
"75 0 LINE",
"124 45 LINE",
"199 400 LINE",
"119 400 LINE",
"50 75 LINE",
"38 75 LINE",
"162 655 LINE",
"174 655 LINE",
"122 412 LINE",
"202 412 LINE",
"260 685 LINE",
"230 730 LINE",
"137 730 LINE",
"88 685 LINE",
"-48 45 LINE",
"-19 0 LINE"
);
},
{
closed = 1;
nodes = (
"181 325 LINE",
"196 400 LINE",
"113 400 LINE",
"98 325 LINE"
);
}
);
userData = {
assembly = "PUSHW[ ]\011/* 1 value pushed */
10 
CALL[ ]\011/* CallFunction */
PUSHW[ ]\011/* 4 values pushed */
14 9 5 14 
CALL[ ]\011/* CallFunction */
PUSHW[ ]\011/* 4 values pushed */
10 9 11 14 
CALL[ ]\011/* CallFunction */
PUSHW[ ]\011/* 1 value pushed */
10 
SRP0[ ]\011/* SetRefPoint0 */
PUSHW[ ]\011/* 1 value pushed */
1 
MDRP[10000]\011/* MoveDirectRelPt */
PUSHW[ ]\011/* 1 value pushed */
11 
SRP0[ ]\011/* SetRefPoint0 */
PUSHW[ ]\011/* 1 value pushed */
15 
MDRP[10000]\011/* MoveDirectRelPt */
PUSHW[ ]\011/* 1 value pushed */
11 
SRP0[ ]\011/* SetRefPoint0 */
PUSHW[ ]\011/* 2 values pushed */
17 9 
MIRP[10100]\011/* MoveIndirectRelPt */
PUSHW[ ]\011/* 1 value pushed */
10 
SRP0[ ]\011/* SetRefPoint0 */
PUSHW[ ]\011/* 1 value pushed */
19 
MDRP[11100]\011/* MoveDirectRelPt */
SVTCA[0]\011/* SetFreedomAndProjectionVectorToAxis */
PUSHW[ ]\011/* 1 value pushed */
6 
RCVT[ ]\011/* ReadCVT */
IF[ ]\011/* If */
PUSHW[ ]\011/* 1 value pushed */
7 
MDAP[1]\011/* MoveDirectAbsPt */
ELSE[ ]\011/* Else */
PUSHW[ ]\011/* 2 values pushed */
7 19 
MIAP[0]\011/* MoveIndirectAbsPt */
EIF[ ]\011/* EndIf */
PUSHW[ ]\011/* 1 value pushed */
6 
RCVT[ ]\011/* ReadCVT */
IF[ ]\011/* If */
PUSHW[ ]\011/* 1 value pushed */
3 
MDAP[1]\011/* MoveDirectAbsPt */
ELSE[ ]\011/* Else */
PUSHW[ ]\011/* 2 values pushed */
3 13 
MIAP[0]\011/* MoveIndirectAbsPt */
EIF[ ]\011/* EndIf */
PUSHW[ ]\011/* 1 value pushed */
7 
SRP0[ ]\011/* SetRefPoint0 */
PUSHW[ ]\011/* 1 value pushed */
10 
MDRP[11100]\011/* MoveDirectRelPt */
IUP[0]\011/* InterpolateUntPts */
IUP[1]\011/* InterpolateUntPts */";
};
width = 184;
},
{
hints = (
{
horizontal = 1;
origin = "{0, 15}";
target = "{0, 5}";
type = Stem;
},
{
horizontal = 1;
origin = "{1, 3}";
target = "{1, 2}";
type = Stem;
},
{
horizontal = 1;
origin = "{0, 12}";
target = "{0, 6}";
type = Stem;
}
);
layerId = "DBA696BD-A337-48FC-9DA1-CD58B2C81FFB";
paths = (
{
closed = 1;
nodes = (
"-30 0 LINE",
"-20 8 LINE",
"54 358 LINE",
"42 358 LINE",
"-31 11 LINE",
"-43 11 LINE",
"99 679 LINE",
"111 679 LINE",
"45 370 LINE",
"57 370 LINE",
"123 682 LINE",
"117 690 LINE",
"97 690 LINE",
"87 682 LINE",
"-56 8 LINE",
"-50 0 LINE"
);
},
{
closed = 1;
nodes = (
"49 346 LINE",
"51 358 LINE",
"35 358 LINE",
"33 346 LINE"
);
}
);
width = 48;
}
);
note = G;
unicode = 0047;
},
{
color = 4;
glyphname = H;
lastChange = "2020-09-26 15:40:04 +0000";
layers = (
{
hints = (
{
horizontal = 1;
origin = "{0, 5}";
target = up;
type = BottomGhost;
},
{
horizontal = 1;
origin = "{0, 7}";
target = "{0, 2}";
type = Stem;
},
{
horizontal = 1;
origin = "{0, 4}";
target = down;
type = TopGhost;
}
);
layerId = "B64BEB12-03E1-41C2-8D0F-395888C0A328";
paths = (
{
closed = 1;
nodes = (
"189 730 LINE",
"119 402 LINE",
"107 402 LINE",
"177 730 LINE",
"97 730 LINE",
"-58 0 LINE",
"22 0 LINE",
"92 327 LINE",
"104 327 LINE",
"34 0 LINE",
"114 0 LINE",
"269 730 LINE"
);
}
);
userData = {
assembly = "PUSHW[ ]\011/* 1 value pushed */
12 
MDAP[1]\011/* MoveDirectAbsPt */
PUSHW[ ]\011/* 1 value pushed */
2 
MDAP[1]\011/* MoveDirectAbsPt */
PUSHW[ ]\011/* 2 values pushed */
1 1 
MIRP[10100]\011/* MoveIndirectRelPt */
PUSHW[ ]\011/* 1 value pushed */
12 
SRP0[ ]\011/* SetRefPoint0 */
PUSHW[ ]\011/* 1 value pushed */
6 
MDRP[10000]\011/* MoveDirectRelPt */
PUSHW[ ]\011/* 1 value pushed */
6 
MDAP[1]\011/* MoveDirectAbsPt */
PUSHW[ ]\011/* 2 values pushed */
5 1 
MIRP[10100]\011/* MoveIndirectRelPt */
PUSHW[ ]\011/* 1 value pushed */
8 
MDRP[10000]\011/* MoveDirectRelPt */
PUSHW[ ]\011/* 1 value pushed */
2 
SRP0[ ]\011/* SetRefPoint0 */
PUSHW[ ]\011/* 1 value pushed */
10 
MDRP[10000]\011/* MoveDirectRelPt */
PUSHW[ ]\011/* 1 value pushed */
1 
SRP0[ ]\011/* SetRefPoint0 */
PUSHW[ ]\011/* 1 value pushed */
13 
MDRP[11100]\011/* MoveDirectRelPt */
SVTCA[0]\011/* SetFreedomAndProjectionVectorToAxis */
PUSHW[ ]\011/* 1 value pushed */
0 
MDAP[1]\011/* MoveDirectAbsPt */
PUSHW[ ]\011/* 1 value pushed */
7 
MDAP[1]\011/* MoveDirectAbsPt */
PUSHW[ ]\011/* 1 value pushed */
0 
RCVT[ ]\011/* ReadCVT */
IF[ ]\011/* If */
PUSHW[ ]\011/* 1 value pushed */
1 
MDAP[1]\011/* MoveDirectAbsPt */
ELSE[ ]\011/* Else */
PUSHW[ ]\011/* 2 values pushed */
1 2 
MIAP[0]\011/* MoveIndirectAbsPt */
EIF[ ]\011/* EndIf */
PUSHW[ ]\011/* 1 value pushed */
0 
RCVT[ ]\011/* ReadCVT */
IF[ ]\011/* If */
PUSHW[ ]\011/* 1 value pushed */
5 
MDAP[1]\011/* MoveDirectAbsPt */
ELSE[ ]\011/* Else */
PUSHW[ ]\011/* 2 values pushed */
5 2 
MIAP[0]\011/* MoveIndirectAbsPt */
EIF[ ]\011/* EndIf */
IUP[0]\011/* InterpolateUntPts */
IUP[1]\011/* InterpolateUntPts */";
};
width = 184;
},
{
hints = (
{
horizontal = 1;
origin = "{0, 5}";
target = up;
type = BottomGhost;
},
{
horizontal = 1;
origin = "{0, 2}";
target = "{0, 7}";
type = Stem;
},
{
horizontal = 1;
origin = "{0, 4}";
target = down;
type = TopGhost;
}
);
layerId = "DBA696BD-A337-48FC-9DA1-CD58B2C81FFB";
paths = (
{
closed = 1;
nodes = (
"113 690 LINE",
"44 368 LINE",
"32 368 LINE",
"101 690 LINE",
"89 690 LINE",
"-58 0 LINE",
"-46 0 LINE",
"30 357 LINE",
"42 357 LINE",
"-34 0 LINE",
"-22 0 LINE",
"125 690 LINE"
);
}
);
width = 48;
}
);
note = H;
unicode = 0048;
},
{
color = 4;
glyphname = I;
lastChange = "2020-09-26 15:40:27 +0000";
layers = (
{
hints = (
{
horizontal = 1;
origin = "{0, 2}";
target = up;
type = BottomGhost;
},
{
horizontal = 1;
origin = "{0, 1}";
target = down;
type = TopGhost;
},
{
origin = "{0, 2}";
target = "{0, 0}";
type = Stem;
}
);
layerId = "B64BEB12-03E1-41C2-8D0F-395888C0A328";
paths = (
{
closed = 1;
nodes = (
"177 730 LINE",
"97 730 LINE",
"-58 0 LINE",
"22 0 LINE"
);
}
);
userData = {
assembly = "PUSHW[ ]\011/* 4 values pushed */
0 1 1 4 
CALL[ ]\011/* CallFunction */
SVTCA[0]\011/* SetFreedomAndProjectionVectorToAxis */
PUSHW[ ]\011/* 1 value pushed */
2 
MDAP[1]\011/* MoveDirectAbsPt */
PUSHW[ ]\011/* 1 value pushed */
0 
RCVT[ ]\011/* ReadCVT */
IF[ ]\011/* If */
PUSHW[ ]\011/* 1 value pushed */
0 
MDAP[1]\011/* MoveDirectAbsPt */
ELSE[ ]\011/* Else */
PUSHW[ ]\011/* 2 values pushed */
0 2 
MIAP[0]\011/* MoveIndirectAbsPt */
EIF[ ]\011/* EndIf */
IUP[0]\011/* InterpolateUntPts */
IUP[1]\011/* InterpolateUntPts */";
};
width = 92;
},
{
hints = (
{
horizontal = 1;
origin = "{0, 2}";
target = up;
type = BottomGhost;
},
{
horizontal = 1;
origin = "{0, 1}";
target = down;
type = TopGhost;
}
);
layerId = "DBA696BD-A337-48FC-9DA1-CD58B2C81FFB";
paths = (
{
closed = 1;
nodes = (
"101 690 LINE",
"89 690 LINE",
"-58 0 LINE",
"-46 0 LINE"
);
}
);
width = 24;
}
);
note = I;
unicode = 0049;
},
{
color = 4;
glyphname = J;
lastChange = "2020-09-26 15:41:25 +0000";
layers = (
{
hints = (
{
horizontal = 1;
origin = "{0, 2}";
target = "{0, 10}";
type = Stem;
},
{
horizontal = 1;
origin = "{0, 6}";
target = "{0, 7}";
type = Stem;
}
);
layerId = "B64BEB12-03E1-41C2-8D0F-395888C0A328";
paths = (
{
closed = 1;
nodes = (
"79 643 LINE",
"-48 45 LINE",
"-19 0 LINE",
"75 0 LINE",
"124 45 LINE",
"270 730 LINE",
"98 730 LINE",
"82 655 LINE",
"174 655 LINE",
"50 75 LINE",
"38 75 LINE",
"159 643 LINE"
);
}
);
userData = {
assembly = "PUSHW[ ]\011/* 1 value pushed */
10 
CALL[ ]\011/* CallFunction */
PUSHW[ ]\011/* 1 value pushed */
12 
MDAP[1]\011/* MoveDirectAbsPt */
PUSHW[ ]\011/* 1 value pushed */
4 
MDAP[1]\011/* MoveDirectAbsPt */
PUSHW[ ]\011/* 2 values pushed */
7 9 
MIRP[10100]\011/* MoveIndirectRelPt */
PUSHW[ ]\011/* 1 value pushed */
0 
MDRP[10000]\011/* MoveDirectRelPt */
PUSHW[ ]\011/* 1 value pushed */
0 
MDAP[1]\011/* MoveDirectAbsPt */
PUSHW[ ]\011/* 3 values pushed */
1 4 7 
SRP1[ ]\011/* SetRefPoint1 */
SRP2[ ]\011/* SetRefPoint2 */
IP[ ]\011/* InterpolatePts */
PUSHW[ ]\011/* 1 value pushed */
12 
SRP0[ ]\011/* SetRefPoint0 */
PUSHW[ ]\011/* 1 value pushed */
10 
MDRP[10000]\011/* MoveDirectRelPt */
PUSHW[ ]\011/* 1 value pushed */
10 
MDAP[1]\011/* MoveDirectAbsPt */
PUSHW[ ]\011/* 2 values pushed */
3 9 
MIRP[10100]\011/* MoveIndirectRelPt */
PUSHW[ ]\011/* 1 value pushed */
7 
SRP0[ ]\011/* SetRefPoint0 */
PUSHW[ ]\011/* 1 value pushed */
13 
MDRP[11100]\011/* MoveDirectRelPt */
SVTCA[0]\011/* SetFreedomAndProjectionVectorToAxis */
PUSHW[ ]\011/* 1 value pushed */
6 
RCVT[ ]\011/* ReadCVT */
IF[ ]\011/* If */
PUSHW[ ]\011/* 1 value pushed */
0 
MDAP[1]\011/* MoveDirectAbsPt */
ELSE[ ]\011/* Else */
PUSHW[ ]\011/* 2 values pushed */
0 19 
MIAP[0]\011/* MoveIndirectAbsPt */
EIF[ ]\011/* EndIf */
PUSHW[ ]\011/* 1 value pushed */
6 
RCVT[ ]\011/* ReadCVT */
IF[ ]\011/* If */
PUSHW[ ]\011/* 1 value pushed */
5 
MDAP[1]\011/* MoveDirectAbsPt */
ELSE[ ]\011/* Else */
PUSHW[ ]\011/* 2 values pushed */
5 19 
MIAP[0]\011/* MoveIndirectAbsPt */
EIF[ ]\011/* EndIf */
PUSHW[ ]\011/* 1 value pushed */
6 
RCVT[ ]\011/* ReadCVT */
IF[ ]\011/* If */
PUSHW[ ]\011/* 1 value pushed */
8 
MDAP[1]\011/* MoveDirectAbsPt */
ELSE[ ]\011/* Else */
PUSHW[ ]\011/* 2 values pushed */
8 13 
MIAP[0]\011/* MoveIndirectAbsPt */
EIF[ ]\011/* EndIf */
IUP[0]\011/* InterpolateUntPts */
IUP[1]\011/* InterpolateUntPts */";
};
width = 185;
},
{
hints = (
{
horizontal = 1;
origin = "{0, 2}";
target = "{0, 10}";
type = Stem;
},
{
horizontal = 1;
origin = "{0, 6}";
target = "{0, 7}";
type = Stem;
},
{
place = "{88, 8}";
type = Stem;
}
);
layerId = "DBA696BD-A337-48FC-9DA1-CD58B2C81FFB";
paths = (
{
closed = 1;
nodes = (
"84 667 LINE",
"-56 8 LINE",
"-50 0 LINE",
"-30 0 LINE",
"-20 8 LINE",
"125 690 LINE",
"89 690 LINE",
"87 679 LINE",
"111 679 LINE",
"-31 11 LINE",
"-43 11 LINE",
"96 667 LINE"
);
}
);
width = 48;
}
);
note = J;
unicode = 004A;
},
{
color = 4;
glyphname = K;
lastChange = "2020-09-26 15:40:36 +0000";
layers = (
{
hints = (
{
horizontal = 1;
origin = "{0, 15}";
target = up;
type = BottomGhost;
},
{
horizontal = 1;
origin = "{0, 7}";
target = "{0, 12}";
type = Stem;
},
{
horizontal = 1;
origin = "{0, 14}";
target = down;
type = TopGhost;
},
{
horizontal = 1;
origin = "{0, 1}";
target = "{0, 6}";
type = Stem;
}
);
layerId = "B64BEB12-03E1-41C2-8D0F-395888C0A328";
paths = (
{
closed = 1;
nodes = (
"22 0 LINE",
"91 325 LINE",
"103 325 LINE",
"34 0 LINE",
"114 0 LINE",
"190 358 LINE",
"157 358 LINE",
"160 370 LINE",
"193 370 LINE",
"269 730 LINE",
"189 730 LINE",
"119 400 LINE",
"107 400 LINE",
"177 730 LINE",
"97 730 LINE",
"-58 0 LINE"
);
}
);
userData = {
assembly = "PUSHW[ ]\011/* 4 values pushed */
6 1 7 4 
CALL[ ]\011/* CallFunction */
PUSHW[ ]\011/* 1 value pushed */
6 
SRP0[ ]\011/* SetRefPoint0 */
PUSHW[ ]\011/* 1 value pushed */
4 
MDRP[10000]\011/* MoveDirectRelPt */
PUSHW[ ]\011/* 1 value pushed */
6 
SRP0[ ]\011/* SetRefPoint0 */
PUSHW[ ]\011/* 1 value pushed */
9 
MDRP[10000]\011/* MoveDirectRelPt */
PUSHW[ ]\011/* 1 value pushed */
6 
SRP0[ ]\011/* SetRefPoint0 */
PUSHW[ ]\011/* 1 value pushed */
11 
MDRP[10000]\011/* MoveDirectRelPt */
SVTCA[0]\011/* SetFreedomAndProjectionVectorToAxis */
PUSHW[ ]\011/* 1 value pushed */
0 
MDAP[1]\011/* MoveDirectAbsPt */
PUSHW[ ]\011/* 1 value pushed */
8 
MDAP[1]\011/* MoveDirectAbsPt */
PUSHW[ ]\011/* 1 value pushed */
12 
MDAP[1]\011/* MoveDirectAbsPt */
PUSHW[ ]\011/* 1 value pushed */
0 
RCVT[ ]\011/* ReadCVT */
IF[ ]\011/* If */
PUSHW[ ]\011/* 1 value pushed */
2 
MDAP[1]\011/* MoveDirectAbsPt */
ELSE[ ]\011/* Else */
PUSHW[ ]\011/* 2 values pushed */
2 2 
MIAP[0]\011/* MoveIndirectAbsPt */
EIF[ ]\011/* EndIf */
PUSHW[ ]\011/* 1 value pushed */
0 
RCVT[ ]\011/* ReadCVT */
IF[ ]\011/* If */
PUSHW[ ]\011/* 1 value pushed */
6 
MDAP[1]\011/* MoveDirectAbsPt */
ELSE[ ]\011/* Else */
PUSHW[ ]\011/* 2 values pushed */
6 2 
MIAP[0]\011/* MoveIndirectAbsPt */
EIF[ ]\011/* EndIf */
PUSHW[ ]\011/* 3 values pushed */
5 2 0 
SRP1[ ]\011/* SetRefPoint1 */
SRP2[ ]\011/* SetRefPoint2 */
IP[ ]\011/* InterpolatePts */
PUSHW[ ]\011/* 3 values pushed */
11 2 0 
SRP1[ ]\011/* SetRefPoint1 */
SRP2[ ]\011/* SetRefPoint2 */
IP[ ]\011/* InterpolatePts */
IUP[0]\011/* InterpolateUntPts */
IUP[1]\011/* InterpolateUntPts */";
};
width = 184;
},
{
hints = (
{
horizontal = 1;
origin = "{0, 15}";
target = up;
type = BottomGhost;
},
{
horizontal = 1;
origin = "{0, 1}";
target = "{0, 12}";
type = Stem;
},
{
horizontal = 1;
origin = "{0, 14}";
target = down;
type = TopGhost;
},
{
place = "{42, 8}";
type = Stem;
}
);
layerId = "DBA696BD-A337-48FC-9DA1-CD58B2C81FFB";
paths = (
{
closed = 1;
nodes = (
"-46 0 LINE",
"30 357 LINE",
"42 357 LINE",
"-34 0 LINE",
"-22 0 LINE",
"54 357 LINE",
"49 357 LINE",
"51 368 LINE",
"56 368 LINE",
"125 690 LINE",
"113 690 LINE",
"44 368 LINE",
"32 368 LINE",
"101 690 LINE",
"89 690 LINE",
"-58 0 LINE"
);
}
);
width = 48;
}
);
note = K;
unicode = 004B;
},
{
color = 4;
glyphname = L;
lastChange = "2020-10-01 09:25:50 +0000";
layers = (
{
hints = (
{
horizontal = 1;
origin = "{0, 1}";
target = "{0, 4}";
type = Stem;
},
{
horizontal = 1;
origin = "{0, 0}";
target = down;
type = TopGhost;
},
{
origin = "{0, 1}";
target = "{0, 5}";
type = Stem;
}
);
layerId = "B64BEB12-03E1-41C2-8D0F-395888C0A328";
paths = (
{
closed = 1;
nodes = (
"97 730 LINE",
"-58 0 LINE",
"28 0 LINE",
"44 75 LINE",
"38 75 LINE",
"177 730 LINE"
);
}
);
userData = {
assembly = "PUSHW[ ]\011/* 1 value pushed */
10 
CALL[ ]\011/* CallFunction */
PUSHW[ ]\011/* 4 values pushed */
0 12 5 14 
CALL[ ]\011/* CallFunction */
PUSHW[ ]\011/* 3 values pushed */
3 5 0 
SRP1[ ]\011/* SetRefPoint1 */
SRP2[ ]\011/* SetRefPoint2 */
IP[ ]\011/* InterpolatePts */
PUSHW[ ]\011/* 1 value pushed */
3 
MDAP[1]\011/* MoveDirectAbsPt */
PUSHW[ ]\011/* 2 values pushed */
2 9 
MIRP[10100]\011/* MoveIndirectRelPt */
SVTCA[0]\011/* SetFreedomAndProjectionVectorToAxis */
PUSHW[ ]\011/* 1 value pushed */
6 
RCVT[ ]\011/* ReadCVT */
IF[ ]\011/* If */
PUSHW[ ]\011/* 1 value pushed */
6 
MDAP[1]\011/* MoveDirectAbsPt */
ELSE[ ]\011/* Else */
PUSHW[ ]\011/* 2 values pushed */
6 19 
MIAP[0]\011/* MoveIndirectAbsPt */
EIF[ ]\011/* EndIf */
PUSHW[ ]\011/* 1 value pushed */
6 
RCVT[ ]\011/* ReadCVT */
IF[ ]\011/* If */
PUSHW[ ]\011/* 1 value pushed */
2 
MDAP[1]\011/* MoveDirectAbsPt */
ELSE[ ]\011/* Else */
PUSHW[ ]\011/* 2 values pushed */
2 13 
MIAP[0]\011/* MoveIndirectAbsPt */
EIF[ ]\011/* EndIf */
PUSHW[ ]\011/* 1 value pushed */
6 
SRP0[ ]\011/* SetRefPoint0 */
PUSHW[ ]\011/* 2 values pushed */
0 8 
MIRP[10100]\011/* MoveIndirectRelPt */
PUSHW[ ]\011/* 1 value pushed */
4 
MDRP[10000]\011/* MoveDirectRelPt */
PUSHW[ ]\011/* 1 value pushed */
5 
MDRP[10000]\011/* MoveDirectRelPt */
IUP[0]\011/* InterpolateUntPts */
IUP[1]\011/* InterpolateUntPts */";
};
width = 92;
},
{
hints = (
{
horizontal = 1;
origin = "{0, 1}";
target = "{0, 4}";
type = Stem;
},
{
horizontal = 1;
origin = "{0, 0}";
target = down;
type = TopGhost;
}
);
layerId = "DBA696BD-A337-48FC-9DA1-CD58B2C81FFB";
paths = (
{
closed = 1;
nodes = (
"89 690 LINE",
"-58 0 LINE",
"-40 0 LINE",
"-38 11 LINE",
"-44 11 LINE",
"101 690 LINE"
);
}
);
width = 24;
}
);
note = T;
unicode = 004C;
},
{
color = 4;
glyphname = M;
lastChange = "2020-09-26 15:41:33 +0000";
layers = (
{
guideLines = (
{
angle = 90;
position = "{22, 615}";
}
);
hints = (
{
horizontal = 1;
origin = "{0, 19}";
target = up;
type = BottomGhost;
},
{
horizontal = 1;
origin = "{0, 18}";
target = "{0, 1}";
type = Stem;
},
{
horizontal = 1;
origin = "{0, 1}";
target = "{0, 16}";
type = Stem;
}
);
layerId = "B64BEB12-03E1-41C2-8D0F-395888C0A328";
paths = (
{
closed = 1;
nodes = (
"22 0 LINE",
"161 655 LINE",
"173 655 LINE",
"34 0 LINE",
"114 0 LINE",
"253 655 LINE",
"265 655 LINE",
"126 0 LINE",
"206 0 LINE",
"361 730 LINE",
"281 730 LINE",
"276 705 LINE",
"264 705 LINE",
"269 730 LINE",
"189 730 LINE",
"184 705 LINE",
"172 705 LINE",
"177 730 LINE",
"97 730 LINE",
"-58 0 LINE"
);
}
);
userData = {
assembly = "PUSHW[ ]\011/* 1 value pushed */
15 
MDAP[1]\011/* MoveDirectAbsPt */
PUSHW[ ]\011/* 1 value pushed */
2 
MDAP[1]\011/* MoveDirectAbsPt */
PUSHW[ ]\011/* 2 values pushed */
1 1 
MIRP[10100]\011/* MoveIndirectRelPt */
PUSHW[ ]\011/* 1 value pushed */
2 
SRP0[ ]\011/* SetRefPoint0 */
PUSHW[ ]\011/* 1 value pushed */
4 
MDRP[10000]\011/* MoveDirectRelPt */
PUSHW[ ]\011/* 1 value pushed */
4 
MDAP[1]\011/* MoveDirectAbsPt */
PUSHW[ ]\011/* 1 value pushed */
15 
SRP0[ ]\011/* SetRefPoint0 */
PUSHW[ ]\011/* 1 value pushed */
10 
MDRP[10000]\011/* MoveDirectRelPt */
PUSHW[ ]\011/* 1 value pushed */
10 
MDAP[1]\011/* MoveDirectAbsPt */
PUSHW[ ]\011/* 2 values pushed */
9 1 
MIRP[10100]\011/* MoveIndirectRelPt */
PUSHW[ ]\011/* 3 values pushed */
13 10 1 
SRP1[ ]\011/* SetRefPoint1 */
SRP2[ ]\011/* SetRefPoint2 */
IP[ ]\011/* InterpolatePts */
PUSHW[ ]\011/* 1 value pushed */
1 
SRP0[ ]\011/* SetRefPoint0 */
PUSHW[ ]\011/* 1 value pushed */
16 
MDRP[11100]\011/* MoveDirectRelPt */
SVTCA[0]\011/* SetFreedomAndProjectionVectorToAxis */
PUSHW[ ]\011/* 1 value pushed */
0 
MDAP[1]\011/* MoveDirectAbsPt */
PUSHW[ ]\011/* 1 value pushed */
11 
MDAP[1]\011/* MoveDirectAbsPt */
PUSHW[ ]\011/* 1 value pushed */
0 
RCVT[ ]\011/* ReadCVT */
IF[ ]\011/* If */
PUSHW[ ]\011/* 1 value pushed */
1 
MDAP[1]\011/* MoveDirectAbsPt */
ELSE[ ]\011/* Else */
PUSHW[ ]\011/* 2 values pushed */
1 2 
MIAP[0]\011/* MoveIndirectAbsPt */
EIF[ ]\011/* EndIf */
PUSHW[ ]\011/* 1 value pushed */
0 
RCVT[ ]\011/* ReadCVT */
IF[ ]\011/* If */
PUSHW[ ]\011/* 1 value pushed */
5 
MDAP[1]\011/* MoveDirectAbsPt */
ELSE[ ]\011/* Else */
PUSHW[ ]\011/* 2 values pushed */
5 2 
MIAP[0]\011/* MoveIndirectAbsPt */
EIF[ ]\011/* EndIf */
PUSHW[ ]\011/* 1 value pushed */
0 
RCVT[ ]\011/* ReadCVT */
IF[ ]\011/* If */
PUSHW[ ]\011/* 1 value pushed */
9 
MDAP[1]\011/* MoveDirectAbsPt */
ELSE[ ]\011/* Else */
PUSHW[ ]\011/* 2 values pushed */
9 2 
MIAP[0]\011/* MoveIndirectAbsPt */
EIF[ ]\011/* EndIf */
PUSHW[ ]\011/* 3 values pushed */
4 1 0 
SRP1[ ]\011/* SetRefPoint1 */
SRP2[ ]\011/* SetRefPoint2 */
IP[ ]\011/* InterpolatePts */
PUSHW[ ]\011/* 3 values pushed */
8 1 0 
SRP1[ ]\011/* SetRefPoint1 */
SRP2[ ]\011/* SetRefPoint2 */
IP[ ]\011/* InterpolatePts */
PUSHW[ ]\011/* 3 values pushed */
13 1 0 
SRP1[ ]\011/* SetRefPoint1 */
SRP2[ ]\011/* SetRefPoint2 */
IP[ ]\011/* InterpolatePts */
IUP[0]\011/* InterpolateUntPts */
IUP[1]\011/* InterpolateUntPts */";
};
width = 276;
},
{
hints = (
{
horizontal = 1;
origin = "{0, 19}";
target = up;
type = BottomGhost;
},
{
horizontal = 1;
origin = "{0, 18}";
target = "{0, 1}";
type = Stem;
}
);
layerId = "DBA696BD-A337-48FC-9DA1-CD58B2C81FFB";
paths = (
{
closed = 1;
nodes = (
"-46 0 LINE",
"98 679 LINE",
"110 679 LINE",
"-34 0 LINE",
"-22 0 LINE",
"122 679 LINE",
"134 679 LINE",
"-10 0 LINE",
"2 0 LINE",
"149 690 LINE",
"137 690 LINE",
"137 690 LINE",
"125 690 LINE",
"125 690 LINE",
"113 690 LINE",
"113 690 LINE",
"101 690 LINE",
"101 690 LINE",
"89 690 LINE",
"-58 0 LINE"
);
}
);
width = 72;
}
);
note = M;
unicode = 004D;
},
{
color = 4;
glyphname = N;
lastChange = "2020-09-26 15:40:56 +0000";
layers = (
{
hints = (
{
horizontal = 1;
origin = "{0, 11}";
target = up;
type = BottomGhost;
},
{
horizontal = 1;
origin = "{0, 10}";
target = "{0, 0}";
type = Stem;
},
{
horizontal = 1;
origin = "{0, 0}";
target = "{0, 8}";
type = Stem;
}
);
layerId = "B64BEB12-03E1-41C2-8D0F-395888C0A328";
paths = (
{
closed = 1;
nodes = (
"161 655 LINE",
"173 655 LINE",
"34 0 LINE",
"114 0 LINE",
"269 730 LINE",
"230 730 LINE",
"189 730 LINE",
"184 705 LINE",
"172 705 LINE",
"177 730 LINE",
"97 730 LINE",
"-58 0 LINE",
"22 0 LINE"
);
}
);
userData = {
assembly = "PUSHW[ ]\011/* 1 value pushed */
10 
MDAP[1]\011/* MoveDirectAbsPt */
PUSHW[ ]\011/* 1 value pushed */
2 
MDAP[1]\011/* MoveDirectAbsPt */
PUSHW[ ]\011/* 2 values pushed */
1 1 
MIRP[10100]\011/* MoveIndirectRelPt */
PUSHW[ ]\011/* 1 value pushed */
10 
SRP0[ ]\011/* SetRefPoint0 */
PUSHW[ ]\011/* 1 value pushed */
5 
MDRP[10000]\011/* MoveDirectRelPt */
PUSHW[ ]\011/* 1 value pushed */
5 
MDAP[1]\011/* MoveDirectAbsPt */
PUSHW[ ]\011/* 2 values pushed */
4 1 
MIRP[10100]\011/* MoveIndirectRelPt */
PUSHW[ ]\011/* 1 value pushed */
7 
MDRP[10000]\011/* MoveDirectRelPt */
PUSHW[ ]\011/* 1 value pushed */
2 
SRP0[ ]\011/* SetRefPoint0 */
PUSHW[ ]\011/* 1 value pushed */
8 
MDRP[10000]\011/* MoveDirectRelPt */
PUSHW[ ]\011/* 1 value pushed */
1 
SRP0[ ]\011/* SetRefPoint0 */
PUSHW[ ]\011/* 1 value pushed */
11 
MDRP[11100]\011/* MoveDirectRelPt */
SVTCA[0]\011/* SetFreedomAndProjectionVectorToAxis */
PUSHW[ ]\011/* 1 value pushed */
0 
MDAP[1]\011/* MoveDirectAbsPt */
PUSHW[ ]\011/* 1 value pushed */
6 
MDAP[1]\011/* MoveDirectAbsPt */
PUSHW[ ]\011/* 1 value pushed */
0 
RCVT[ ]\011/* ReadCVT */
IF[ ]\011/* If */
PUSHW[ ]\011/* 1 value pushed */
1 
MDAP[1]\011/* MoveDirectAbsPt */
ELSE[ ]\011/* Else */
PUSHW[ ]\011/* 2 values pushed */
1 2 
MIAP[0]\011/* MoveIndirectAbsPt */
EIF[ ]\011/* EndIf */
PUSHW[ ]\011/* 1 value pushed */
0 
RCVT[ ]\011/* ReadCVT */
IF[ ]\011/* If */
PUSHW[ ]\011/* 1 value pushed */
4 
MDAP[1]\011/* MoveDirectAbsPt */
ELSE[ ]\011/* Else */
PUSHW[ ]\011/* 2 values pushed */
4 2 
MIAP[0]\011/* MoveIndirectAbsPt */
EIF[ ]\011/* EndIf */
PUSHW[ ]\011/* 3 values pushed */
3 1 0 
SRP1[ ]\011/* SetRefPoint1 */
SRP2[ ]\011/* SetRefPoint2 */
IP[ ]\011/* InterpolatePts */
PUSHW[ ]\011/* 3 values pushed */
8 1 0 
SRP1[ ]\011/* SetRefPoint1 */
SRP2[ ]\011/* SetRefPoint2 */
IP[ ]\011/* InterpolatePts */
IUP[0]\011/* InterpolateUntPts */
IUP[1]\011/* InterpolateUntPts */";
};
width = 184;
},
{
hints = (
{
horizontal = 1;
origin = "{0, 11}";
target = up;
type = BottomGhost;
},
{
horizontal = 1;
origin = "{0, 10}";
target = "{0, 0}";
type = Stem;
}
);
layerId = "DBA696BD-A337-48FC-9DA1-CD58B2C81FFB";
paths = (
{
closed = 1;
nodes = (
"98 679 LINE",
"110 679 LINE",
"-34 0 LINE",
"-23 0 LINE",
"124 690 LINE",
"117 690 LINE",
"113 690 LINE",
"113 690 LINE",
"101 690 LINE",
"101 690 LINE",
"89 690 LINE",
"-58 0 LINE",
"-46 0 LINE"
);
}
);
width = 47;
}
);
note = N;
unicode = 004E;
},
{
color = 4;
glyphname = O;
lastChange = "2020-09-26 15:43:09 +0000";
layers = (
{
hints = (
{
horizontal = 1;
origin = "{0, 1}";
target = "{1, 1}";
type = Stem;
},
{
horizontal = 1;
origin = "{0, 6}";
target = "{1, 2}";
type = Stem;
},
{
horizontal = 1;
origin = "{0, 6}";
target = "{0, 7}";
type = Stem;
}
);
layerId = "B64BEB12-03E1-41C2-8D0F-395888C0A328";
paths = (
{
closed = 1;
nodes = (
"-48 45 LINE",
"-19 0 LINE",
"75 0 LINE",
"124 45 LINE",
"260 685 LINE",
"231 730 LINE",
"138 730 LINE",
"88 685 LINE"
);
},
{
closed = 1;
nodes = (
"50 75 LINE",
"38 75 LINE",
"162 655 LINE",
"174 655 LINE"
);
}
);
userData = {
assembly = "PUSHW[ ]\011/* 1 value pushed */
12 
MDAP[1]\011/* MoveDirectAbsPt */
PUSHW[ ]\011/* 1 value pushed */
10 
MDAP[1]\011/* MoveDirectAbsPt */
PUSHW[ ]\011/* 2 values pushed */
1 1 
MIRP[10100]\011/* MoveIndirectRelPt */
PUSHW[ ]\011/* 1 value pushed */
12 
SRP0[ ]\011/* SetRefPoint0 */
PUSHW[ ]\011/* 1 value pushed */
4 
MDRP[10000]\011/* MoveDirectRelPt */
PUSHW[ ]\011/* 1 value pushed */
4 
MDAP[1]\011/* MoveDirectAbsPt */
PUSHW[ ]\011/* 2 values pushed */
9 1 
MIRP[10100]\011/* MoveIndirectRelPt */
PUSHW[ ]\011/* 1 value pushed */
1 
SRP0[ ]\011/* SetRefPoint0 */
PUSHW[ ]\011/* 1 value pushed */
13 
MDRP[11100]\011/* MoveDirectRelPt */
SVTCA[0]\011/* SetFreedomAndProjectionVectorToAxis */
PUSHW[ ]\011/* 1 value pushed */
6 
MDAP[1]\011/* MoveDirectAbsPt */
PUSHW[ ]\011/* 1 value pushed */
0 
RCVT[ ]\011/* ReadCVT */
IF[ ]\011/* If */
PUSHW[ ]\011/* 1 value pushed */
2 
MDAP[1]\011/* MoveDirectAbsPt */
ELSE[ ]\011/* Else */
PUSHW[ ]\011/* 2 values pushed */
2 2 
MIAP[0]\011/* MoveIndirectAbsPt */
EIF[ ]\011/* EndIf */
IUP[0]\011/* InterpolateUntPts */
IUP[1]\011/* InterpolateUntPts */";
};
width = 184;
},
{
hints = (
{
horizontal = 1;
origin = "{1, 1}";
target = "{0, 1}";
type = Stem;
},
{
horizontal = 1;
origin = "{0, 6}";
target = "{1, 2}";
type = Stem;
}
);
layerId = "DBA696BD-A337-48FC-9DA1-CD58B2C81FFB";
paths = (
{
closed = 1;
nodes = (
"-56 8 LINE",
"-50 0 LINE",
"-30 0 LINE",
"-20 8 LINE",
"123 682 LINE",
"117 690 LINE",
"97 690 LINE",
"87 682 LINE"
);
},
{
closed = 1;
nodes = (
"-31 11 LINE",
"-43 11 LINE",
"99 679 LINE",
"111 679 LINE"
);
}
);
width = 48;
}
);
note = O;
unicode = 004F;
},
{
color = 4;
glyphname = Oslash;
lastChange = "2020-09-17 07:27:14 +0000";
layers = (
{
components = (
{
name = O;
}
);
layerId = "B64BEB12-03E1-41C2-8D0F-395888C0A328";
paths = (
{
closed = 1;
nodes = (
"-27 -75 LINE",
"53 -75 LINE",
"71 12 LINE",
"-9 12 LINE"
);
},
{
closed = 1;
nodes = (
"129 657 LINE",
"209 657 LINE",
"244 819 LINE",
"164 819 LINE"
);
},
{
closed = 1;
nodes = (
"53 308 LINE",
"133 308 LINE",
"149 383 LINE",
"69 383 LINE"
);
}
);
width = 184;
},
{
components = (
{
name = O;
}
);
layerId = "DBA696BD-A337-48FC-9DA1-CD58B2C81FFB";
paths = (
{
closed = 1;
nodes = (
"-65 -90 LINE",
"-53 -90 LINE",
"-32 6 LINE",
"-44 6 LINE"
);
},
{
closed = 1;
nodes = (
"98 679 LINE",
"110 679 LINE",
"131 780 LINE",
"119 780 LINE"
);
},
{
closed = 1;
nodes = (
"16 339 LINE",
"50 339 LINE",
"52 351 LINE",
"18 351 LINE"
);
}
);
width = 48;
}
);
unicode = 00D8;
},
{
color = 4;
glyphname = OE;
lastChange = "2020-09-17 07:36:37 +0000";
layers = (
{
components = (
{
name = O;
}
);
layerId = "B64BEB12-03E1-41C2-8D0F-395888C0A328";
paths = (
{
closed = 1;
nodes = (
"207 0 LINE",
"274 315 LINE",
"194 315 LINE",
"143 75 LINE",
"131 75 LINE",
"254 655 LINE",
"266 655 LINE",
"215 414 LINE",
"295 414 LINE",
"362 730 LINE",
"190 730 LINE",
"35 0 LINE"
);
},
{
closed = 1;
nodes = (
"277 327 LINE",
"292 402 LINE",
"129 402 LINE",
"114 327 LINE"
);
}
);
width = 277;
},
{
components = (
{
name = O;
}
);
layerId = "DBA696BD-A337-48FC-9DA1-CD58B2C81FFB";
paths = (
{
closed = 1;
nodes = (
"3 0 LINE",
"76 345 LINE",
"64 345 LINE",
"-7 11 LINE",
"-19 11 LINE",
"122 675 LINE",
"134 675 LINE",
"72 380 LINE",
"84 380 LINE",
"150 690 LINE",
"114 690 LINE",
"-33 0 LINE"
);
},
{
closed = 1;
nodes = (
"79 357 LINE",
"81 368 LINE",
"46 368 LINE",
"44 357 LINE"
);
}
);
width = 73;
}
);
unicode = 0152;
},
{
color = 4;
glyphname = P;
lastChange = "2020-09-26 15:41:35 +0000";
layers = (
{
hints = (
{
horizontal = 1;
origin = "{0, 2}";
target = up;
type = BottomGhost;
},
{
horizontal = 1;
origin = "{0, 4}";
target = "{1, 1}";
type = Stem;
},
{
horizontal = 1;
origin = "{0, 1}";
target = "{0, 7}";
type = Stem;
},
{
horizontal = 1;
origin = "{0, 1}";
target = "{1, 2}";
type = Stem;
}
);
layerId = "B64BEB12-03E1-41C2-8D0F-395888C0A328";
paths = (
{
closed = 1;
nodes = (
"229 730 LINE",
"97 730 LINE",
"-58 -1 LINE",
"22 -1 LINE",
"69 219 LINE",
"122 219 LINE",
"170 264 LINE",
"260 685 LINE"
);
},
{
closed = 1;
nodes = (
"97 294 LINE",
"85 294 LINE",
"161 655 LINE",
"173 655 LINE"
);
}
);
userData = {
assembly = "PUSHW[ ]\011/* 1 value pushed */
14 
MDAP[1]\011/* MoveDirectAbsPt */
PUSHW[ ]\011/* 1 value pushed */
10 
MDAP[1]\011/* MoveDirectAbsPt */
PUSHW[ ]\011/* 2 values pushed */
0 1 
MIRP[10100]\011/* MoveIndirectRelPt */
PUSHW[ ]\011/* 1 value pushed */
14 
SRP0[ ]\011/* SetRefPoint0 */
PUSHW[ ]\011/* 1 value pushed */
5 
MDRP[10000]\011/* MoveDirectRelPt */
PUSHW[ ]\011/* 1 value pushed */
5 
MDAP[1]\011/* MoveDirectAbsPt */
PUSHW[ ]\011/* 2 values pushed */
4 1 
MIRP[10100]\011/* MoveIndirectRelPt */
PUSHW[ ]\011/* 1 value pushed */
5 
SRP0[ ]\011/* SetRefPoint0 */
PUSHW[ ]\011/* 1 value pushed */
7 
MDRP[10000]\011/* MoveDirectRelPt */
PUSHW[ ]\011/* 1 value pushed */
4 
SRP0[ ]\011/* SetRefPoint0 */
PUSHW[ ]\011/* 1 value pushed */
11 
MDRP[10000]\011/* MoveDirectRelPt */
PUSHW[ ]\011/* 1 value pushed */
0 
SRP0[ ]\011/* SetRefPoint0 */
PUSHW[ ]\011/* 1 value pushed */
15 
MDRP[11100]\011/* MoveDirectRelPt */
SVTCA[0]\011/* SetFreedomAndProjectionVectorToAxis */
PUSHW[ ]\011/* 1 value pushed */
7 
MDAP[1]\011/* MoveDirectAbsPt */
PUSHW[ ]\011/* 1 value pushed */
9 
MDAP[1]\011/* MoveDirectAbsPt */
PUSHW[ ]\011/* 1 value pushed */
0 
RCVT[ ]\011/* ReadCVT */
IF[ ]\011/* If */
PUSHW[ ]\011/* 1 value pushed */
4 
MDAP[1]\011/* MoveDirectAbsPt */
ELSE[ ]\011/* Else */
PUSHW[ ]\011/* 2 values pushed */
4 2 
MIAP[0]\011/* MoveIndirectAbsPt */
EIF[ ]\011/* EndIf */
IUP[0]\011/* InterpolateUntPts */
IUP[1]\011/* InterpolateUntPts */";
};
width = 184;
},
{
hints = (
{
horizontal = 1;
origin = "{0, 2}";
target = up;
type = BottomGhost;
},
{
horizontal = 1;
origin = "{0, 4}";
target = "{1, 1}";
type = Stem;
},
{
horizontal = 1;
origin = "{1, 2}";
target = "{0, 1}";
type = Stem;
}
);
layerId = "DBA696BD-A337-48FC-9DA1-CD58B2C81FFB";
paths = (
{
closed = 1;
nodes = (
"117 689 LINE",
"89 689 LINE",
"-58 -1 LINE",
"-46 -1 LINE",
"1 219 LINE",
"17 219 LINE",
"26 227 LINE",
"123 681 LINE"
);
},
{
closed = 1;
nodes = (
"15 230 LINE",
"3 230 LINE",
"98 678 LINE",
"110 678 LINE"
);
}
);
width = 48;
}
);
note = P;
unicode = 0050;
},
{
color = 4;
glyphname = Thorn;
lastChange = "2020-09-16 15:35:06 +0000";
layers = (
{
layerId = "B64BEB12-03E1-41C2-8D0F-395888C0A328";
paths = (
{
closed = 1;
nodes = (
"133 90 LINE",
"242 600 LINE",
"212 645 LINE",
"148 645 LINE",
"166 730 LINE",
"97 730 LINE",
"-58 0 LINE",
"21 0 LINE",
"35 64 LINE",
"31 45 LINE",
"85 45 LINE"
);
},
{
closed = 1;
nodes = (
"60 120 LINE",
"48 120 LINE",
"143 570 LINE",
"155 570 LINE"
);
}
);
width = 184;
},
{
layerId = "DBA696BD-A337-48FC-9DA1-CD58B2C81FFB";
paths = (
{
closed = 1;
nodes = (
"3 119 LINE",
"114 639 LINE",
"107 647 LINE",
"91 647 LINE",
"101 690 LINE",
"89 690 LINE",
"-63 -23 LINE",
"-51 -23 LINE",
"-18 130 LINE",
"-23 111 LINE",
"-7 111 LINE"
);
},
{
closed = 1;
nodes = (
"-8 122 LINE",
"-20 122 LINE",
"89 636 LINE",
"101 636 LINE"
);
}
);
width = 48;
}
);
unicode = 00DE;
},
{
color = 4;
glyphname = Q;
lastChange = "2020-09-26 15:40:13 +0000";
layers = (
{
hints = (
{
horizontal = 1;
origin = "{1, 1}";
target = up;
type = BottomGhost;
},
{
horizontal = 1;
origin = "{1, 6}";
target = "{2, 2}";
type = Stem;
},
{
horizontal = 1;
origin = "{0, 1}";
target = "{2, 1}";
type = Stem;
},
{
horizontal = 1;
origin = "{1, 6}";
target = "{1, 7}";
type = Stem;
},
{
horizontal = 1;
origin = "{1, 1}";
target = "{2, 1}";
type = Stem;
}
);
layerId = "B64BEB12-03E1-41C2-8D0F-395888C0A328";
paths = (
{
closed = 1;
nodes = (
"-11 -23 LINE",
"-25 -87 LINE",
"45 -87 LINE",
"59 -23 LINE",
"45 51 LINE",
"33 51 LINE"
);
},
{
closed = 1;
nodes = (
"-48 45 LINE",
"-19 0 LINE",
"75 0 LINE",
"124 45 LINE",
"260 685 LINE",
"231 730 LINE",
"138 730 LINE",
"88 685 LINE"
);
},
{
closed = 1;
nodes = (
"50 75 LINE",
"38 75 LINE",
"162 655 LINE",
"174 655 LINE"
);
}
);
userData = {
assembly = "PUSHW[ ]\011/* 1 value pushed */
10 
CALL[ ]\011/* CallFunction */
PUSHW[ ]\011/* 1 value pushed */
15 
MDAP[1]\011/* MoveDirectAbsPt */
PUSHW[ ]\011/* 1 value pushed */
11 
MDAP[1]\011/* MoveDirectAbsPt */
PUSHW[ ]\011/* 2 values pushed */
2 9 
MIRP[10100]\011/* MoveIndirectRelPt */
PUSHW[ ]\011/* 1 value pushed */
4 
MDRP[10000]\011/* MoveDirectRelPt */
PUSHW[ ]\011/* 1 value pushed */
11 
SRP0[ ]\011/* SetRefPoint0 */
PUSHW[ ]\011/* 1 value pushed */
6 
MDRP[10000]\011/* MoveDirectRelPt */
PUSHW[ ]\011/* 1 value pushed */
6 
MDAP[1]\011/* MoveDirectAbsPt */
PUSHW[ ]\011/* 1 value pushed */
15 
SRP0[ ]\011/* SetRefPoint0 */
PUSHW[ ]\011/* 1 value pushed */
8 
MDRP[10000]\011/* MoveDirectRelPt */
PUSHW[ ]\011/* 1 value pushed */
8 
MDAP[1]\011/* MoveDirectAbsPt */
PUSHW[ ]\011/* 2 values pushed */
14 9 
MIRP[10100]\011/* MoveIndirectRelPt */
PUSHW[ ]\011/* 1 value pushed */
2 
SRP0[ ]\011/* SetRefPoint0 */
PUSHW[ ]\011/* 1 value pushed */
16 
MDRP[11100]\011/* MoveDirectRelPt */
SVTCA[0]\011/* SetFreedomAndProjectionVectorToAxis */
PUSHW[ ]\011/* 1 value pushed */
5 
MDAP[1]\011/* MoveDirectAbsPt */
PUSHW[ ]\011/* 1 value pushed */
6 
RCVT[ ]\011/* ReadCVT */
IF[ ]\011/* If */
PUSHW[ ]\011/* 1 value pushed */
0 
MDAP[1]\011/* MoveDirectAbsPt */
ELSE[ ]\011/* Else */
PUSHW[ ]\011/* 2 values pushed */
0 19 
MIAP[0]\011/* MoveIndirectAbsPt */
EIF[ ]\011/* EndIf */
PUSHW[ ]\011/* 1 value pushed */
6 
RCVT[ ]\011/* ReadCVT */
IF[ ]\011/* If */
PUSHW[ ]\011/* 1 value pushed */
4 
MDAP[1]\011/* MoveDirectAbsPt */
ELSE[ ]\011/* Else */
PUSHW[ ]\011/* 2 values pushed */
4 13 
MIAP[0]\011/* MoveIndirectAbsPt */
EIF[ ]\011/* EndIf */
PUSHW[ ]\011/* 1 value pushed */
6 
RCVT[ ]\011/* ReadCVT */
IF[ ]\011/* If */
PUSHW[ ]\011/* 1 value pushed */
6 
MDAP[1]\011/* MoveDirectAbsPt */
ELSE[ ]\011/* Else */
PUSHW[ ]\011/* 2 values pushed */
6 13 
MIAP[0]\011/* MoveIndirectAbsPt */
EIF[ ]\011/* EndIf */
IUP[0]\011/* InterpolateUntPts */
IUP[1]\011/* InterpolateUntPts */";
};
width = 184;
},
{
layerId = "DBA696BD-A337-48FC-9DA1-CD58B2C81FFB";
paths = (
{
closed = 1;
nodes = (
"-47 -5 LINE",
"-55 -45 LINE",
"-43 -45 LINE",
"-35 -5 LINE",
"-36 8 LINE",
"-40 8 LINE"
);
},
{
closed = 1;
nodes = (
"-56 8 LINE",
"-50 0 LINE",
"-30 0 LINE",
"-20 8 LINE",
"123 682 LINE",
"117 690 LINE",
"97 690 LINE",
"87 682 LINE"
);
},
{
closed = 1;
nodes = (
"-31 11 LINE",
"-43 11 LINE",
"99 679 LINE",
"111 679 LINE"
);
}
);
width = 48;
}
);
note = Q;
unicode = 0051;
},
{
color = 4;
glyphname = R;
lastChange = "2020-09-26 15:40:49 +0000";
layers = (
{
hints = (
{
horizontal = 1;
origin = "{0, 12}";
target = up;
type = BottomGhost;
},
{
horizontal = 1;
origin = "{0, 7}";
target = "{1, 3}";
type = Stem;
},
{
horizontal = 1;
origin = "{0, 11}";
target = "{1, 0}";
type = Stem;
},
{
horizontal = 1;
origin = "{0, 1}";
target = "{0, 6}";
type = Stem;
},
{
horizontal = 1;
origin = "{0, 11}";
target = "{0, 9}";
type = Stem;
}
);
layerId = "B64BEB12-03E1-41C2-8D0F-395888C0A328";
paths = (
{
closed = 1;
nodes = (
"22 0 LINE",
"91 325 LINE",
"103 325 LINE",
"34 0 LINE",
"114 0 LINE",
"190 356 LINE",
"157 356 LINE",
"159 368 LINE",
"192 368 LINE",
"260 685 LINE",
"229 730 LINE",
"97 730 LINE",
"-58 0 LINE"
);
},
{
closed = 1;
nodes = (
"161 655 LINE",
"173 655 LINE",
"119 400 LINE",
"107 400 LINE"
);
}
);
userData = {
assembly = "PUSHW[ ]\011/* 1 value pushed */
18 
MDAP[1]\011/* MoveDirectAbsPt */
PUSHW[ ]\011/* 1 value pushed */
11 
MDAP[1]\011/* MoveDirectAbsPt */
PUSHW[ ]\011/* 1 value pushed */
18 
SRP0[ ]\011/* SetRefPoint0 */
PUSHW[ ]\011/* 1 value pushed */
1 
MDRP[10000]\011/* MoveDirectRelPt */
PUSHW[ ]\011/* 1 value pushed */
1 
MDAP[1]\011/* MoveDirectAbsPt */
PUSHW[ ]\011/* 1 value pushed */
11 
SRP0[ ]\011/* SetRefPoint0 */
PUSHW[ ]\011/* 2 values pushed */
10 1 
MIRP[10100]\011/* MoveIndirectRelPt */
PUSHW[ ]\011/* 1 value pushed */
4 
MDRP[10000]\011/* MoveDirectRelPt */
PUSHW[ ]\011/* 1 value pushed */
10 
SRP0[ ]\011/* SetRefPoint0 */
PUSHW[ ]\011/* 1 value pushed */
6 
MDRP[10000]\011/* MoveDirectRelPt */
PUSHW[ ]\011/* 3 values pushed */
7 11 10 
SRP1[ ]\011/* SetRefPoint1 */
SRP2[ ]\011/* SetRefPoint2 */
IP[ ]\011/* InterpolatePts */
PUSHW[ ]\011/* 1 value pushed */
10 
SRP0[ ]\011/* SetRefPoint0 */
PUSHW[ ]\011/* 1 value pushed */
8 
MDRP[10000]\011/* MoveDirectRelPt */
PUSHW[ ]\011/* 1 value pushed */
1 
SRP0[ ]\011/* SetRefPoint0 */
PUSHW[ ]\011/* 2 values pushed */
13 1 
MIRP[10100]\011/* MoveIndirectRelPt */
PUSHW[ ]\011/* 1 value pushed */
14 
MDRP[10000]\011/* MoveDirectRelPt */
PUSHW[ ]\011/* 1 value pushed */
11 
SRP0[ ]\011/* SetRefPoint0 */
PUSHW[ ]\011/* 1 value pushed */
16 
MDRP[10000]\011/* MoveDirectRelPt */
PUSHW[ ]\011/* 1 value pushed */
10 
SRP0[ ]\011/* SetRefPoint0 */
PUSHW[ ]\011/* 1 value pushed */
19 
MDRP[11100]\011/* MoveDirectRelPt */
SVTCA[0]\011/* SetFreedomAndProjectionVectorToAxis */
PUSHW[ ]\011/* 1 value pushed */
2 
MDAP[1]\011/* MoveDirectAbsPt */
PUSHW[ ]\011/* 1 value pushed */
0 
RCVT[ ]\011/* ReadCVT */
IF[ ]\011/* If */
PUSHW[ ]\011/* 1 value pushed */
0 
MDAP[1]\011/* MoveDirectAbsPt */
ELSE[ ]\011/* Else */
PUSHW[ ]\011/* 2 values pushed */
0 2 
MIAP[0]\011/* MoveIndirectAbsPt */
EIF[ ]\011/* EndIf */
PUSHW[ ]\011/* 1 value pushed */
0 
RCVT[ ]\011/* ReadCVT */
IF[ ]\011/* If */
PUSHW[ ]\011/* 1 value pushed */
10 
MDAP[1]\011/* MoveDirectAbsPt */
ELSE[ ]\011/* Else */
PUSHW[ ]\011/* 2 values pushed */
10 2 
MIAP[0]\011/* MoveIndirectAbsPt */
EIF[ ]\011/* EndIf */
PUSHW[ ]\011/* 3 values pushed */
7 0 2 
SRP1[ ]\011/* SetRefPoint1 */
SRP2[ ]\011/* SetRefPoint2 */
IP[ ]\011/* InterpolatePts */
IUP[0]\011/* InterpolateUntPts */
IUP[1]\011/* InterpolateUntPts */";
};
width = 184;
},
{
hints = (
{
horizontal = 1;
origin = "{0, 12}";
target = up;
type = BottomGhost;
},
{
horizontal = 1;
origin = "{0, 1}";
target = "{1, 3}";
type = Stem;
},
{
horizontal = 1;
origin = "{0, 11}";
target = "{1, 0}";
type = Stem;
},
{
place = "{42, 7}";
type = Stem;
}
);
layerId = "DBA696BD-A337-48FC-9DA1-CD58B2C81FFB";
paths = (
{
closed = 1;
nodes = (
"-46 0 LINE",
"30 357 LINE",
"42 357 LINE",
"-34 0 LINE",
"-22 0 LINE",
"54 357 LINE",
"48 357 LINE",
"50 368 LINE",
"56 368 LINE",
"123 682 LINE",
"117 690 LINE",
"89 690 LINE",
"-58 0 LINE"
);
},
{
closed = 1;
nodes = (
"98 679 LINE",
"110 679 LINE",
"44 368 LINE",
"32 368 LINE"
);
}
);
width = 48;
}
);
note = R;
unicode = 0052;
},
{
color = 4;
glyphname = S;
lastChange = "2020-09-26 15:41:37 +0000";
layers = (
{
hints = (
{
horizontal = 1;
origin = "{0, 18}";
target = "{0, 14}";
type = Stem;
},
{
horizontal = 1;
origin = "{0, 11}";
target = "{0, 1}";
type = Stem;
},
{
horizontal = 1;
origin = "{0, 8}";
target = "{0, 2}";
type = Stem;
},
{
horizontal = 1;
origin = "{0, 8}";
target = "{0, 9}";
type = Stem;
}
);
layerId = "B64BEB12-03E1-41C2-8D0F-395888C0A328";
paths = (
{
closed = 1;
nodes = (
"158 387 LINE",
"105 387 LINE",
"162 655 LINE",
"174 655 LINE",
"119 399 LINE",
"199 399 LINE",
"259 679 LINE",
"229 730 LINE",
"138 730 LINE",
"87 679 LINE",
"17 349 LINE",
"49 312 LINE",
"102 312 LINE",
"51 75 LINE",
"39 75 LINE",
"87 300 LINE",
"7 300 LINE",
"-47 45 LINE",
"-17 0 LINE",
"73 0 LINE",
"124 45 LINE",
"189 349 LINE"
);
}
);
userData = {
assembly = "PUSHW[ ]\011/* 1 value pushed */
22 
MDAP[1]\011/* MoveDirectAbsPt */
PUSHW[ ]\011/* 1 value pushed */
8 
MDAP[1]\011/* MoveDirectAbsPt */
PUSHW[ ]\011/* 2 values pushed */
1 1 
MIRP[10100]\011/* MoveIndirectRelPt */
PUSHW[ ]\011/* 1 value pushed */
22 
SRP0[ ]\011/* SetRefPoint0 */
PUSHW[ ]\011/* 1 value pushed */
4 
MDRP[10000]\011/* MoveDirectRelPt */
PUSHW[ ]\011/* 1 value pushed */
4 
MDAP[1]\011/* MoveDirectAbsPt */
PUSHW[ ]\011/* 2 values pushed */
7 1 
MIRP[10100]\011/* MoveIndirectRelPt */
PUSHW[ ]\011/* 1 value pushed */
4 
SRP0[ ]\011/* SetRefPoint0 */
PUSHW[ ]\011/* 1 value pushed */
11 
MDRP[10000]\011/* MoveDirectRelPt */
PUSHW[ ]\011/* 1 value pushed */
1 
SRP0[ ]\011/* SetRefPoint0 */
PUSHW[ ]\011/* 1 value pushed */
15 
MDRP[10000]\011/* MoveDirectRelPt */
PUSHW[ ]\011/* 1 value pushed */
15 
MDAP[1]\011/* MoveDirectAbsPt */
PUSHW[ ]\011/* 1 value pushed */
8 
SRP0[ ]\011/* SetRefPoint0 */
PUSHW[ ]\011/* 1 value pushed */
17 
MDRP[10000]\011/* MoveDirectRelPt */
PUSHW[ ]\011/* 1 value pushed */
7 
SRP0[ ]\011/* SetRefPoint0 */
PUSHW[ ]\011/* 1 value pushed */
19 
MDRP[10000]\011/* MoveDirectRelPt */
PUSHW[ ]\011/* 1 value pushed */
1 
SRP0[ ]\011/* SetRefPoint0 */
PUSHW[ ]\011/* 1 value pushed */
23 
MDRP[11100]\011/* MoveDirectRelPt */
SVTCA[0]\011/* SetFreedomAndProjectionVectorToAxis */
PUSHW[ ]\011/* 1 value pushed */
13 
MDAP[1]\011/* MoveDirectAbsPt */
PUSHW[ ]\011/* 1 value pushed */
0 
RCVT[ ]\011/* ReadCVT */
IF[ ]\011/* If */
PUSHW[ ]\011/* 1 value pushed */
2 
MDAP[1]\011/* MoveDirectAbsPt */
ELSE[ ]\011/* Else */
PUSHW[ ]\011/* 2 values pushed */
2 2 
MIAP[0]\011/* MoveIndirectAbsPt */
EIF[ ]\011/* EndIf */
IUP[0]\011/* InterpolateUntPts */
IUP[1]\011/* InterpolateUntPts */";
};
width = 185;
},
{
hints = (
{
horizontal = 1;
origin = "{0, 18}";
target = "{0, 14}";
type = Stem;
},
{
horizontal = 1;
origin = "{0, 11}";
target = "{0, 1}";
type = Stem;
},
{
horizontal = 1;
origin = "{0, 8}";
target = "{0, 2}";
type = Stem;
}
);
layerId = "DBA696BD-A337-48FC-9DA1-CD58B2C81FFB";
paths = (
{
closed = 1;
nodes = (
"46 358 LINE",
"30 358 LINE",
"99 679 LINE",
"111 679 LINE",
"45 370 LINE",
"57 370 LINE",
"123 682 LINE",
"117 690 LINE",
"97 690 LINE",
"87 682 LINE",
"18 355 LINE",
"24 347 LINE",
"40 347 LINE",
"-31 11 LINE",
"-43 11 LINE",
"25 334 LINE",
"13 334 LINE",
"-56 8 LINE",
"-50 0 LINE",
"-30 0 LINE",
"-20 8 LINE",
"53 350 LINE"
);
}
);
width = 48;
}
);
note = S;
unicode = 0053;
},
{
color = 4;
glyphname = T;
lastChange = "2020-09-26 15:40:02 +0000";
layers = (
{
hints = (
{
horizontal = 1;
origin = "{0, 3}";
target = up;
type = BottomGhost;
},
{
horizontal = 1;
origin = "{0, 10}";
target = "{0, 1}";
type = Stem;
}
);
layerId = "B64BEB12-03E1-41C2-8D0F-395888C0A328";
paths = (
{
closed = 1;
nodes = (
"79 359 LINE",
"142 655 LINE",
"154 655 LINE",
"15 0 LINE",
"95 0 LINE",
"234 655 LINE",
"246 655 LINE",
"183 359 LINE",
"243 359 LINE",
"322 730 LINE",
"98 730 LINE",
"19 359 LINE"
);
}
);
userData = {
assembly = "PUSHW[ ]\011/* 1 value pushed */
10 
CALL[ ]\011/* CallFunction */
PUSHW[ ]\011/* 4 values pushed */
0 12 5 14 
CALL[ ]\011/* CallFunction */
PUSHW[ ]\011/* 3 values pushed */
3 5 0 
SRP1[ ]\011/* SetRefPoint1 */
SRP2[ ]\011/* SetRefPoint2 */
IP[ ]\011/* InterpolatePts */
PUSHW[ ]\011/* 1 value pushed */
3 
MDAP[1]\011/* MoveDirectAbsPt */
PUSHW[ ]\011/* 2 values pushed */
2 9 
MIRP[10100]\011/* MoveIndirectRelPt */
SVTCA[0]\011/* SetFreedomAndProjectionVectorToAxis */
PUSHW[ ]\011/* 1 value pushed */
6 
RCVT[ ]\011/* ReadCVT */
IF[ ]\011/* If */
PUSHW[ ]\011/* 1 value pushed */
6 
MDAP[1]\011/* MoveDirectAbsPt */
ELSE[ ]\011/* Else */
PUSHW[ ]\011/* 2 values pushed */
6 19 
MIAP[0]\011/* MoveIndirectAbsPt */
EIF[ ]\011/* EndIf */
PUSHW[ ]\011/* 1 value pushed */
6 
RCVT[ ]\011/* ReadCVT */
IF[ ]\011/* If */
PUSHW[ ]\011/* 1 value pushed */
2 
MDAP[1]\011/* MoveDirectAbsPt */
ELSE[ ]\011/* Else */
PUSHW[ ]\011/* 2 values pushed */
2 13 
MIAP[0]\011/* MoveIndirectAbsPt */
EIF[ ]\011/* EndIf */
PUSHW[ ]\011/* 1 value pushed */
6 
SRP0[ ]\011/* SetRefPoint0 */
PUSHW[ ]\011/* 2 values pushed */
0 8 
MIRP[10100]\011/* MoveIndirectRelPt */
PUSHW[ ]\011/* 1 value pushed */
4 
MDRP[10000]\011/* MoveDirectRelPt */
PUSHW[ ]\011/* 1 value pushed */
5 
MDRP[10000]\011/* MoveDirectRelPt */
IUP[0]\011/* InterpolateUntPts */
IUP[1]\011/* InterpolateUntPts */";
};
width = 237;
},
{
hints = (
{
horizontal = 1;
origin = "{0, 3}";
target = up;
type = BottomGhost;
},
{
horizontal = 1;
origin = "{0, 10}";
target = "{0, 1}";
type = Stem;
}
);
layerId = "DBA696BD-A337-48FC-9DA1-CD58B2C81FFB";
paths = (
{
closed = 1;
nodes = (
"33 370 LINE",
"98 679 LINE",
"110 679 LINE",
"-34 0 LINE",
"-22 0 LINE",
"122 679 LINE",
"134 679 LINE",
"69 370 LINE",
"81 370 LINE",
"149 690 LINE",
"89 690 LINE",
"21 370 LINE"
);
}
);
width = 72;
}
);
note = T;
unicode = 0054;
},
{
color = 4;
glyphname = U;
lastChange = "2020-09-26 15:41:29 +0000";
layers = (
{
hints = (
{
horizontal = 1;
origin = "{0, 5}";
target = "{0, 9}";
type = Stem;
},
{
horizontal = 1;
origin = "{0, 7}";
target = down;
type = TopGhost;
}
);
layerId = "B64BEB12-03E1-41C2-8D0F-395888C0A328";
paths = (
{
closed = 1;
nodes = (
"75 0 LINE",
"124 45 LINE",
"270 730 LINE",
"190 730 LINE",
"50 75 LINE",
"38 75 LINE",
"178 730 LINE",
"98 730 LINE",
"-48 45 LINE",
"-19 0 LINE"
);
}
);
userData = {
assembly = "PUSHW[ ]\011/* 1 value pushed */
10 
MDAP[1]\011/* MoveDirectAbsPt */
PUSHW[ ]\011/* 1 value pushed */
2 
MDAP[1]\011/* MoveDirectAbsPt */
PUSHW[ ]\011/* 1 value pushed */
10 
SRP0[ ]\011/* SetRefPoint0 */
PUSHW[ ]\011/* 1 value pushed */
8 
MDRP[10000]\011/* MoveDirectRelPt */
PUSHW[ ]\011/* 1 value pushed */
8 
MDAP[1]\011/* MoveDirectAbsPt */
PUSHW[ ]\011/* 2 values pushed */
1 1 
MIRP[10100]\011/* MoveIndirectRelPt */
PUSHW[ ]\011/* 1 value pushed */
2 
SRP0[ ]\011/* SetRefPoint0 */
PUSHW[ ]\011/* 2 values pushed */
5 1 
MIRP[10100]\011/* MoveIndirectRelPt */
PUSHW[ ]\011/* 1 value pushed */
11 
MDRP[11100]\011/* MoveDirectRelPt */
SVTCA[0]\011/* SetFreedomAndProjectionVectorToAxis */
PUSHW[ ]\011/* 1 value pushed */
0 
MDAP[1]\011/* MoveDirectAbsPt */
PUSHW[ ]\011/* 1 value pushed */
3 
MDAP[1]\011/* MoveDirectAbsPt */
PUSHW[ ]\011/* 1 value pushed */
0 
RCVT[ ]\011/* ReadCVT */
IF[ ]\011/* If */
PUSHW[ ]\011/* 1 value pushed */
6 
MDAP[1]\011/* MoveDirectAbsPt */
ELSE[ ]\011/* Else */
PUSHW[ ]\011/* 2 values pushed */
6 2 
MIAP[0]\011/* MoveIndirectAbsPt */
EIF[ ]\011/* EndIf */
IUP[0]\011/* InterpolateUntPts */
IUP[1]\011/* InterpolateUntPts */";
};
width = 185;
},
{
hints = (
{
horizontal = 1;
origin = "{0, 5}";
target = "{0, 9}";
type = Stem;
},
{
horizontal = 1;
origin = "{0, 7}";
target = down;
type = TopGhost;
}
);
layerId = "DBA696BD-A337-48FC-9DA1-CD58B2C81FFB";
paths = (
{
closed = 1;
nodes = (
"-30 0 LINE",
"-20 8 LINE",
"125 690 LINE",
"113 690 LINE",
"-31 11 LINE",
"-43 11 LINE",
"101 690 LINE",
"89 690 LINE",
"-56 8 LINE",
"-50 0 LINE"
);
}
);
width = 48;
}
);
note = U;
unicode = 0055;
},
{
color = 4;
glyphname = V;
lastChange = "2020-09-26 15:42:41 +0000";
layers = (
{
hints = (
{
horizontal = 1;
origin = "{0, 9}";
target = "{0, 6}";
type = Stem;
},
{
horizontal = 1;
origin = "{0, 8}";
target = down;
type = TopGhost;
}
);
layerId = "B64BEB12-03E1-41C2-8D0F-395888C0A328";
paths = (
{
closed = 1;
nodes = (
"-19 0 LINE",
"75 0 LINE",
"124 45 LINE",
"269 730 LINE",
"189 730 LINE",
"50 75 LINE",
"38 75 LINE",
"177 730 LINE",
"97 730 LINE",
"-58 0 LINE"
);
}
);
userData = {
assembly = "SVTCA[0]\011/* SetFreedomAndProjectionVectorToAxis */
PUSHW[ ]\011/* 1 value pushed */
0 
MDAP[1]\011/* MoveDirectAbsPt */
PUSHW[ ]\011/* 1 value pushed */
4 
MDAP[1]\011/* MoveDirectAbsPt */
PUSHW[ ]\011/* 1 value pushed */
0 
RCVT[ ]\011/* ReadCVT */
IF[ ]\011/* If */
PUSHW[ ]\011/* 1 value pushed */
2 
MDAP[1]\011/* MoveDirectAbsPt */
ELSE[ ]\011/* Else */
PUSHW[ ]\011/* 2 values pushed */
2 2 
MIAP[0]\011/* MoveIndirectAbsPt */
EIF[ ]\011/* EndIf */
PUSHW[ ]\011/* 3 values pushed */
6 2 0 
SRP1[ ]\011/* SetRefPoint1 */
SRP2[ ]\011/* SetRefPoint2 */
IP[ ]\011/* InterpolatePts */
IUP[0]\011/* InterpolateUntPts */
IUP[1]\011/* InterpolateUntPts */";
};
width = 184;
},
{
hints = (
{
horizontal = 1;
origin = "{0, 9}";
target = "{0, 6}";
type = Stem;
},
{
horizontal = 1;
origin = "{0, 8}";
target = down;
type = TopGhost;
}
);
layerId = "DBA696BD-A337-48FC-9DA1-CD58B2C81FFB";
paths = (
{
closed = 1;
nodes = (
"-52 0 LINE",
"-30 0 LINE",
"-20 8 LINE",
"125 690 LINE",
"113 690 LINE",
"-32 11 LINE",
"-44 11 LINE",
"101 690 LINE",
"89 690 LINE",
"-58 0 LINE"
);
}
);
width = 48;
}
);
note = V;
unicode = 0056;
},
{
color = 4;
glyphname = W;
lastChange = "2020-09-26 15:40:53 +0000";
layers = (
{
hints = (
{
horizontal = 1;
origin = "{0, 1}";
target = "{0, 19}";
type = Stem;
},
{
horizontal = 1;
origin = "{0, 21}";
target = down;
type = TopGhost;
},
{
horizontal = 1;
origin = "{0, 3}";
target = "{0, 19}";
type = Stem;
}
);
layerId = "B64BEB12-03E1-41C2-8D0F-395888C0A328";
paths = (
{
closed = 1;
nodes = (
"-48 45 LINE",
"-18 0 LINE",
"22 0 LINE",
"28 25 LINE",
"40 25 LINE",
"34 0 LINE",
"114 0 LINE",
"120 25 LINE",
"132 25 LINE",
"126 0 LINE",
"167 0 LINE",
"216 45 LINE",
"362 730 LINE",
"282 730 LINE",
"142 75 LINE",
"130 75 LINE",
"270 730 LINE",
"190 730 LINE",
"50 75 LINE",
"38 75 LINE",
"178 730 LINE",
"98 730 LINE"
);
}
);
userData = {
assembly = "PUSHW[ ]\011/* 1 value pushed */
10 
CALL[ ]\011/* CallFunction */
SVTCA[0]\011/* SetFreedomAndProjectionVectorToAxis */
PUSHW[ ]\011/* 1 value pushed */
6 
RCVT[ ]\011/* ReadCVT */
IF[ ]\011/* If */
PUSHW[ ]\011/* 1 value pushed */
0 
MDAP[1]\011/* MoveDirectAbsPt */
ELSE[ ]\011/* Else */
PUSHW[ ]\011/* 2 values pushed */
0 19 
MIAP[0]\011/* MoveIndirectAbsPt */
EIF[ ]\011/* EndIf */
PUSHW[ ]\011/* 1 value pushed */
6 
RCVT[ ]\011/* ReadCVT */
IF[ ]\011/* If */
PUSHW[ ]\011/* 1 value pushed */
7 
MDAP[1]\011/* MoveDirectAbsPt */
ELSE[ ]\011/* Else */
PUSHW[ ]\011/* 2 values pushed */
7 19 
MIAP[0]\011/* MoveIndirectAbsPt */
EIF[ ]\011/* EndIf */
PUSHW[ ]\011/* 1 value pushed */
6 
RCVT[ ]\011/* ReadCVT */
IF[ ]\011/* If */
PUSHW[ ]\011/* 1 value pushed */
10 
MDAP[1]\011/* MoveDirectAbsPt */
ELSE[ ]\011/* Else */
PUSHW[ ]\011/* 2 values pushed */
10 19 
MIAP[0]\011/* MoveIndirectAbsPt */
EIF[ ]\011/* EndIf */
PUSHW[ ]\011/* 1 value pushed */
6 
RCVT[ ]\011/* ReadCVT */
IF[ ]\011/* If */
PUSHW[ ]\011/* 1 value pushed */
12 
MDAP[1]\011/* MoveDirectAbsPt */
ELSE[ ]\011/* Else */
PUSHW[ ]\011/* 2 values pushed */
12 19 
MIAP[0]\011/* MoveIndirectAbsPt */
EIF[ ]\011/* EndIf */
PUSHW[ ]\011/* 1 value pushed */
6 
RCVT[ ]\011/* ReadCVT */
IF[ ]\011/* If */
PUSHW[ ]\011/* 1 value pushed */
2 
MDAP[1]\011/* MoveDirectAbsPt */
ELSE[ ]\011/* Else */
PUSHW[ ]\011/* 2 values pushed */
2 13 
MIAP[0]\011/* MoveIndirectAbsPt */
EIF[ ]\011/* EndIf */
PUSHW[ ]\011/* 1 value pushed */
6 
RCVT[ ]\011/* ReadCVT */
IF[ ]\011/* If */
PUSHW[ ]\011/* 1 value pushed */
5 
MDAP[1]\011/* MoveDirectAbsPt */
ELSE[ ]\011/* Else */
PUSHW[ ]\011/* 2 values pushed */
5 13 
MIAP[0]\011/* MoveIndirectAbsPt */
EIF[ ]\011/* EndIf */
PUSHW[ ]\011/* 3 values pushed */
4 2 0 
SRP1[ ]\011/* SetRefPoint1 */
SRP2[ ]\011/* SetRefPoint2 */
IP[ ]\011/* InterpolatePts */
PUSHW[ ]\011/* 3 values pushed */
9 2 0 
SRP1[ ]\011/* SetRefPoint1 */
SRP2[ ]\011/* SetRefPoint2 */
IP[ ]\011/* InterpolatePts */
PUSHW[ ]\011/* 3 values pushed */
14 2 0 
SRP1[ ]\011/* SetRefPoint1 */
SRP2[ ]\011/* SetRefPoint2 */
IP[ ]\011/* InterpolatePts */
IUP[0]\011/* InterpolateUntPts */
IUP[1]\011/* InterpolateUntPts */";
};
width = 277;
},
{
hints = (
{
horizontal = 1;
origin = "{0, 1}";
target = "{0, 19}";
type = Stem;
},
{
horizontal = 1;
origin = "{0, 21}";
target = down;
type = TopGhost;
},
{
horizontal = 1;
origin = "{0, 3}";
target = "{0, 19}";
type = Stem;
},
{
place = "{-33, 12}";
type = Stem;
}
);
layerId = "DBA696BD-A337-48FC-9DA1-CD58B2C81FFB";
paths = (
{
closed = 1;
nodes = (
"-56 8 LINE",
"-50 0 LINE",
"-46 0 LINE",
"-44 6 LINE",
"-32 6 LINE",
"-34 0 LINE",
"-22 0 LINE",
"-20 6 LINE",
"-8 6 LINE",
"-10 0 LINE",
"-6 0 LINE",
"4 8 LINE",
"149 690 LINE",
"137 690 LINE",
"-6 17 LINE",
"-18 17 LINE",
"125 690 LINE",
"113 690 LINE",
"-30 17 LINE",
"-42 17 LINE",
"101 690 LINE",
"89 690 LINE"
);
}
);
width = 72;
}
);
note = W;
unicode = 0057;
},
{
color = 4;
glyphname = X;
lastChange = "2020-09-26 15:41:15 +0000";
layers = (
{
hints = (
{
horizontal = 1;
origin = "{0, 19}";
target = up;
type = BottomGhost;
},
{
horizontal = 1;
origin = "{0, 1}";
target = "{0, 18}";
type = Stem;
},
{
horizontal = 1;
origin = "{0, 14}";
target = down;
type = TopGhost;
},
{
horizontal = 1;
origin = "{0, 15}";
target = "{0, 12}";
type = Stem;
}
);
layerId = "B64BEB12-03E1-41C2-8D0F-395888C0A328";
paths = (
{
closed = 1;
nodes = (
"22 0 LINE",
"92 327 LINE",
"104 327 LINE",
"34 0 LINE",
"114 0 LINE",
"190 358 LINE",
"157 358 LINE",
"160 370 LINE",
"193 370 LINE",
"269 730 LINE",
"189 730 LINE",
"119 402 LINE",
"107 402 LINE",
"177 730 LINE",
"97 730 LINE",
"21 370 LINE",
"54 370 LINE",
"51 358 LINE",
"18 358 LINE",
"-58 0 LINE"
);
}
);
userData = {
assembly = "SVTCA[0]\011/* SetFreedomAndProjectionVectorToAxis */
PUSHW[ ]\011/* 1 value pushed */
0 
MDAP[1]\011/* MoveDirectAbsPt */
PUSHW[ ]\011/* 1 value pushed */
8 
MDAP[1]\011/* MoveDirectAbsPt */
PUSHW[ ]\011/* 1 value pushed */
11 
MDAP[1]\011/* MoveDirectAbsPt */
PUSHW[ ]\011/* 1 value pushed */
0 
RCVT[ ]\011/* ReadCVT */
IF[ ]\011/* If */
PUSHW[ ]\011/* 1 value pushed */
2 
MDAP[1]\011/* MoveDirectAbsPt */
ELSE[ ]\011/* Else */
PUSHW[ ]\011/* 2 values pushed */
2 2 
MIAP[0]\011/* MoveIndirectAbsPt */
EIF[ ]\011/* EndIf */
PUSHW[ ]\011/* 1 value pushed */
0 
RCVT[ ]\011/* ReadCVT */
IF[ ]\011/* If */
PUSHW[ ]\011/* 1 value pushed */
5 
MDAP[1]\011/* MoveDirectAbsPt */
ELSE[ ]\011/* Else */
PUSHW[ ]\011/* 2 values pushed */
5 2 
MIAP[0]\011/* MoveIndirectAbsPt */
EIF[ ]\011/* EndIf */
PUSHW[ ]\011/* 3 values pushed */
4 2 0 
SRP1[ ]\011/* SetRefPoint1 */
SRP2[ ]\011/* SetRefPoint2 */
IP[ ]\011/* InterpolatePts */
PUSHW[ ]\011/* 3 values pushed */
10 2 0 
SRP1[ ]\011/* SetRefPoint1 */
SRP2[ ]\011/* SetRefPoint2 */
IP[ ]\011/* InterpolatePts */
IUP[0]\011/* InterpolateUntPts */
IUP[1]\011/* InterpolateUntPts */";
};
width = 184;
},
{
hints = (
{
horizontal = 1;
origin = "{0, 19}";
target = up;
type = BottomGhost;
},
{
horizontal = 1;
origin = "{0, 18}";
target = "{0, 15}";
type = Stem;
},
{
horizontal = 1;
origin = "{0, 14}";
target = down;
type = TopGhost;
},
{
place = "{26.5, 24}";
type = Stem;
}
);
layerId = "DBA696BD-A337-48FC-9DA1-CD58B2C81FFB";
paths = (
{
closed = 1;
nodes = (
"-45 0 LINE",
"31 359 LINE",
"43 359 LINE",
"-33 0 LINE",
"-21 0 LINE",
"55 359 LINE",
"49 359 LINE",
"52 370 LINE",
"58 370 LINE",
"126 690 LINE",
"114 690 LINE",
"46 370 LINE",
"34 370 LINE",
"102 690 LINE",
"90 690 LINE",
"22 370 LINE",
"28 370 LINE",
"25 359 LINE",
"19 359 LINE",
"-57 0 LINE"
);
}
);
width = 49;
}
);
note = X;
unicode = 0058;
},
{
color = 4;
glyphname = Y;
lastChange = "2020-09-26 15:43:05 +0000";
layers = (
{
hints = (
{
horizontal = 1;
origin = "{0, 9}";
target = "{0, 8}";
type = Stem;
},
{
horizontal = 1;
origin = "{0, 3}";
target = down;
type = TopGhost;
},
{
horizontal = 1;
origin = "{0, 5}";
target = "{0, 1}";
type = Stem;
}
);
layerId = "B64BEB12-03E1-41C2-8D0F-395888C0A328";
paths = (
{
closed = 1;
nodes = (
"69 162 LINE",
"57 162 LINE",
"178 730 LINE",
"98 730 LINE",
"-29 132 LINE",
"1 87 LINE",
"53 87 LINE",
"51 75 LINE",
"-42 75 LINE",
"-58 0 LINE",
"76 0 LINE",
"125 45 LINE",
"270 730 LINE",
"190 730 LINE"
);
}
);
userData = {
assembly = "PUSHW[ ]\011/* 1 value pushed */
10 
CALL[ ]\011/* CallFunction */
PUSHW[ ]\011/* 4 values pushed */
3 9 4 14 
CALL[ ]\011/* CallFunction */
PUSHW[ ]\011/* 3 values pushed */
8 4 3 
SRP1[ ]\011/* SetRefPoint1 */
SRP2[ ]\011/* SetRefPoint2 */
IP[ ]\011/* InterpolatePts */
SVTCA[0]\011/* SetFreedomAndProjectionVectorToAxis */
PUSHW[ ]\011/* 1 value pushed */
6 
RCVT[ ]\011/* ReadCVT */
IF[ ]\011/* If */
PUSHW[ ]\011/* 1 value pushed */
0 
MDAP[1]\011/* MoveDirectAbsPt */
ELSE[ ]\011/* Else */
PUSHW[ ]\011/* 2 values pushed */
0 19 
MIAP[0]\011/* MoveIndirectAbsPt */
EIF[ ]\011/* EndIf */
PUSHW[ ]\011/* 1 value pushed */
6 
RCVT[ ]\011/* ReadCVT */
IF[ ]\011/* If */
PUSHW[ ]\011/* 1 value pushed */
6 
MDAP[1]\011/* MoveDirectAbsPt */
ELSE[ ]\011/* Else */
PUSHW[ ]\011/* 2 values pushed */
6 19 
MIAP[0]\011/* MoveIndirectAbsPt */
EIF[ ]\011/* EndIf */
PUSHW[ ]\011/* 1 value pushed */
6 
RCVT[ ]\011/* ReadCVT */
IF[ ]\011/* If */
PUSHW[ ]\011/* 1 value pushed */
3 
MDAP[1]\011/* MoveDirectAbsPt */
ELSE[ ]\011/* Else */
PUSHW[ ]\011/* 2 values pushed */
3 13 
MIAP[0]\011/* MoveIndirectAbsPt */
EIF[ ]\011/* EndIf */
PUSHW[ ]\011/* 3 values pushed */
8 3 0 
SRP1[ ]\011/* SetRefPoint1 */
SRP2[ ]\011/* SetRefPoint2 */
IP[ ]\011/* InterpolatePts */
IUP[0]\011/* InterpolateUntPts */
IUP[1]\011/* InterpolateUntPts */";
};
width = 185;
},
{
hints = (
{
horizontal = 1;
origin = "{0, 9}";
target = "{0, 8}";
type = Stem;
},
{
horizontal = 1;
origin = "{0, 3}";
target = down;
type = TopGhost;
},
{
horizontal = 1;
origin = "{0, 5}";
target = "{0, 1}";
type = Stem;
}
);
layerId = "DBA696BD-A337-48FC-9DA1-CD58B2C81FFB";
paths = (
{
closed = 1;
nodes = (
"-26 34 LINE",
"-38 34 LINE",
"102 690 LINE",
"90 690 LINE",
"-50 31 LINE",
"-44 23 LINE",
"-28 23 LINE",
"-31 11 LINE",
"-55 11 LINE",
"-57 0 LINE",
"-31 0 LINE",
"-19 8 LINE",
"126 690 LINE",
"114 690 LINE"
);
}
);
width = 49;
}
);
note = Y;
unicode = 0059;
},
{
color = 4;
glyphname = Z;
lastChange = "2020-09-26 15:43:04 +0000";
layers = (
{
hints = (
{
horizontal = 1;
origin = "{0, 1}";
target = "{0, 7}";
type = Stem;
},
{
horizontal = 1;
origin = "{0, 8}";
target = "{0, 18}";
type = Stem;
},
{
horizontal = 1;
origin = "{0, 12}";
target = "{0, 15}";
type = Stem;
},
{
horizontal = 1;
origin = "{0, 12}";
target = "{0, 10}";
type = Stem;
}
);
layerId = "B64BEB12-03E1-41C2-8D0F-395888C0A328";
paths = (
{
closed = 1;
nodes = (
"-48 45 LINE",
"-17 0 LINE",
"114 0 LINE",
"124 45 LINE",
"178 300 LINE",
"98 300 LINE",
"50 75 LINE",
"38 75 LINE",
"89 312 LINE",
"181 312 LINE",
"260 685 LINE",
"230 730 LINE",
"98 730 LINE",
"27 399 LINE",
"107 399 LINE",
"162 655 LINE",
"174 655 LINE",
"117 387 LINE",
"25 387 LINE"
);
}
);
userData = {
assembly = "PUSHW[ ]\011/* 3 values pushed */
9 6 3 
CALL[ ]\011/* CallFunction */
PUSHW[ ]\011/* 1 value pushed */
6 
SRP0[ ]\011/* SetRefPoint0 */
PUSHW[ ]\011/* 1 value pushed */
3 
MDRP[10000]\011/* MoveDirectRelPt */
PUSHW[ ]\011/* 1 value pushed */
9 
SRP0[ ]\011/* SetRefPoint0 */
PUSHW[ ]\011/* 1 value pushed */
11 
MDRP[11100]\011/* MoveDirectRelPt */
SVTCA[0]\011/* SetFreedomAndProjectionVectorToAxis */
PUSHW[ ]\011/* 1 value pushed */
0 
RCVT[ ]\011/* ReadCVT */
IF[ ]\011/* If */
PUSHW[ ]\011/* 1 value pushed */
2 
MDAP[1]\011/* MoveDirectAbsPt */
ELSE[ ]\011/* Else */
PUSHW[ ]\011/* 2 values pushed */
2 2 
MIAP[0]\011/* MoveIndirectAbsPt */
EIF[ ]\011/* EndIf */
PUSHW[ ]\011/* 3 values pushed */
8 9 3 
CALL[ ]\011/* CallFunction */
PUSHW[ ]\011/* 1 value pushed */
2 
SRP0[ ]\011/* SetRefPoint0 */
PUSHW[ ]\011/* 1 value pushed */
0 
MDRP[11100]\011/* MoveDirectRelPt */
PUSHW[ ]\011/* 1 value pushed */
9 
SRP0[ ]\011/* SetRefPoint0 */
PUSHW[ ]\011/* 1 value pushed */
5 
MDRP[10000]\011/* MoveDirectRelPt */
IUP[0]\011/* InterpolateUntPts */
IUP[1]\011/* InterpolateUntPts */";
};
width = 184;
},
{
hints = (
{
horizontal = 1;
origin = "{0, 1}";
target = "{0, 7}";
type = Stem;
},
{
horizontal = 1;
origin = "{0, 8}";
target = "{0, 18}";
type = Stem;
},
{
horizontal = 1;
origin = "{0, 12}";
target = "{0, 15}";
type = Stem;
}
);
layerId = "DBA696BD-A337-48FC-9DA1-CD58B2C81FFB";
paths = (
{
closed = 1;
nodes = (
"-56 8 LINE",
"-50 0 LINE",
"-22 0 LINE",
"-12 45 LINE",
"49 334 LINE",
"37 334 LINE",
"-31 11 LINE",
"-43 11 LINE",
"28 346 LINE",
"52 346 LINE",
"123 682 LINE",
"117 690 LINE",
"89 690 LINE",
"21 369 LINE",
"33 369 LINE",
"99 679 LINE",
"111 679 LINE",
"42 357 LINE",
"18 357 LINE"
);
}
);
width = 48;
}
);
note = Z;
unicode = 005A;
},
{
color = 4;
glyphname = E.ss01;
lastChange = "2020-10-01 09:47:55 +0000";
layers = (
{
layerId = "B64BEB12-03E1-41C2-8D0F-395888C0A328";
paths = (
{
closed = 1;
nodes = (
"22 0 LINE",
"177 730 LINE",
"97 730 LINE",
"-58 0 LINE"
);
},
{
closed = 1;
nodes = (
"98 327 LINE",
"113 402 LINE",
"53 402 LINE",
"34 327 LINE"
);
},
{
closed = 1;
nodes = (
"173 655 LINE",
"189 730 LINE",
"145 730 LINE",
"129 655 LINE"
);
},
{
closed = 1;
nodes = (
"34 0 LINE",
"50 75 LINE",
"6 75 LINE",
"-10 0 LINE"
);
}
);
userData = {
assembly = "PUSHW[ ]\011/* 4 values pushed */
6 1 9 4 
CALL[ ]\011/* CallFunction */
PUSHW[ ]\011/* 1 value pushed */
9 
SRP0[ ]\011/* SetRefPoint0 */
PUSHW[ ]\011/* 1 value pushed */
8 
MDRP[11100]\011/* MoveDirectRelPt */
PUSHW[ ]\011/* 1 value pushed */
0 
MDRP[10000]\011/* MoveDirectRelPt */
PUSHW[ ]\011/* 1 value pushed */
6 
SRP0[ ]\011/* SetRefPoint0 */
PUSHW[ ]\011/* 1 value pushed */
1 
MDRP[10000]\011/* MoveDirectRelPt */
PUSHW[ ]\011/* 1 value pushed */
8 
SRP0[ ]\011/* SetRefPoint0 */
PUSHW[ ]\011/* 1 value pushed */
11 
MDRP[10000]\011/* MoveDirectRelPt */
SVTCA[0]\011/* SetFreedomAndProjectionVectorToAxis */
PUSHW[ ]\011/* 1 value pushed */
10 
MDAP[1]\011/* MoveDirectAbsPt */
PUSHW[ ]\011/* 1 value pushed */
0 
RCVT[ ]\011/* ReadCVT */
IF[ ]\011/* If */
PUSHW[ ]\011/* 1 value pushed */
8 
MDAP[1]\011/* MoveDirectAbsPt */
ELSE[ ]\011/* Else */
PUSHW[ ]\011/* 2 values pushed */
8 2 
MIAP[0]\011/* MoveIndirectAbsPt */
EIF[ ]\011/* EndIf */
IUP[0]\011/* InterpolateUntPts */
IUP[1]\011/* InterpolateUntPts */";
};
width = 98;
},
{
hints = (
{
horizontal = 1;
origin = "{0, 3}";
target = up;
type = BottomGhost;
},
{
horizontal = 1;
origin = "{1, 3}";
target = "{1, 2}";
type = Stem;
},
{
horizontal = 1;
origin = "{0, 2}";
target = "{2, 3}";
type = Stem;
}
);
layerId = "DBA696BD-A337-48FC-9DA1-CD58B2C81FFB";
paths = (
{
closed = 1;
nodes = (
"-46 0 LINE",
"101 690 LINE",
"89 690 LINE",
"-58 0 LINE"
);
},
{
closed = 1;
nodes = (
"33 340 LINE",
"35 351 LINE",
"17 351 LINE",
"26 340 LINE"
);
},
{
closed = 1;
nodes = (
"105 679 LINE",
"107 690 LINE",
"101 690 LINE",
"98 679 LINE"
);
},
{
closed = 1;
nodes = (
"-40 0 LINE",
"-38 11 LINE",
"-52 11 LINE",
"-47 0 LINE"
);
}
);
width = 24;
}
);
note = E;
},
{
color = 4;
glyphname = F.ss01;
lastChange = "2020-10-01 09:36:28 +0000";
layers = (
{
layerId = "B64BEB12-03E1-41C2-8D0F-395888C0A328";
paths = (
{
closed = 1;
nodes = (
"22 0 LINE",
"177 730 LINE",
"97 730 LINE",
"-58 0 LINE"
);
},
{
closed = 1;
nodes = (
"98 327 LINE",
"113 402 LINE",
"53 402 LINE",
"34 327 LINE"
);
},
{
closed = 1;
nodes = (
"173 655 LINE",
"189 730 LINE",
"145 730 LINE",
"129 655 LINE"
);
}
);
userData = {
assembly = "PUSHW[ ]\011/* 4 values pushed */
6 1 9 4 
CALL[ ]\011/* CallFunction */
PUSHW[ ]\011/* 1 value pushed */
9 
SRP0[ ]\011/* SetRefPoint0 */
PUSHW[ ]\011/* 1 value pushed */
8 
MDRP[11100]\011/* MoveDirectRelPt */
PUSHW[ ]\011/* 1 value pushed */
0 
MDRP[10000]\011/* MoveDirectRelPt */
PUSHW[ ]\011/* 1 value pushed */
6 
SRP0[ ]\011/* SetRefPoint0 */
PUSHW[ ]\011/* 1 value pushed */
1 
MDRP[10000]\011/* MoveDirectRelPt */
PUSHW[ ]\011/* 1 value pushed */
8 
SRP0[ ]\011/* SetRefPoint0 */
PUSHW[ ]\011/* 1 value pushed */
11 
MDRP[10000]\011/* MoveDirectRelPt */
SVTCA[0]\011/* SetFreedomAndProjectionVectorToAxis */
PUSHW[ ]\011/* 1 value pushed */
10 
MDAP[1]\011/* MoveDirectAbsPt */
PUSHW[ ]\011/* 1 value pushed */
0 
RCVT[ ]\011/* ReadCVT */
IF[ ]\011/* If */
PUSHW[ ]\011/* 1 value pushed */
8 
MDAP[1]\011/* MoveDirectAbsPt */
ELSE[ ]\011/* Else */
PUSHW[ ]\011/* 2 values pushed */
8 2 
MIAP[0]\011/* MoveIndirectAbsPt */
EIF[ ]\011/* EndIf */
IUP[0]\011/* InterpolateUntPts */
IUP[1]\011/* InterpolateUntPts */";
};
width = 98;
},
{
hints = (
{
horizontal = 1;
origin = "{0, 3}";
target = up;
type = BottomGhost;
},
{
horizontal = 1;
origin = "{1, 3}";
target = "{1, 2}";
type = Stem;
},
{
horizontal = 1;
origin = "{0, 2}";
target = "{2, 3}";
type = Stem;
}
);
layerId = "DBA696BD-A337-48FC-9DA1-CD58B2C81FFB";
paths = (
{
closed = 1;
nodes = (
"-46 0 LINE",
"101 690 LINE",
"89 690 LINE",
"-58 0 LINE"
);
},
{
closed = 1;
nodes = (
"33 340 LINE",
"35 351 LINE",
"17 351 LINE",
"26 340 LINE"
);
},
{
closed = 1;
nodes = (
"105 679 LINE",
"107 690 LINE",
"101 690 LINE",
"98 679 LINE"
);
}
);
width = 24;
}
);
note = E;
},
{
color = 4;
glyphname = J.ss01;
lastChange = "2020-09-26 14:57:59 +0000";
layers = (
{
layerId = "B64BEB12-03E1-41C2-8D0F-395888C0A328";
paths = (
{
closed = 1;
nodes = (
"28 0 LINE",
"183 730 LINE",
"97 730 LINE",
"81 655 LINE",
"87 655 LINE",
"-52 0 LINE"
);
}
);
userData = {
assembly = "PUSHW[ ]\011/* 1 value pushed */
10 
CALL[ ]\011/* CallFunction */
PUSHW[ ]\011/* 4 values pushed */
0 12 5 14 
CALL[ ]\011/* CallFunction */
PUSHW[ ]\011/* 3 values pushed */
3 5 0 
SRP1[ ]\011/* SetRefPoint1 */
SRP2[ ]\011/* SetRefPoint2 */
IP[ ]\011/* InterpolatePts */
PUSHW[ ]\011/* 1 value pushed */
3 
MDAP[1]\011/* MoveDirectAbsPt */
PUSHW[ ]\011/* 2 values pushed */
2 9 
MIRP[10100]\011/* MoveIndirectRelPt */
SVTCA[0]\011/* SetFreedomAndProjectionVectorToAxis */
PUSHW[ ]\011/* 1 value pushed */
6 
RCVT[ ]\011/* ReadCVT */
IF[ ]\011/* If */
PUSHW[ ]\011/* 1 value pushed */
6 
MDAP[1]\011/* MoveDirectAbsPt */
ELSE[ ]\011/* Else */
PUSHW[ ]\011/* 2 values pushed */
6 19 
MIAP[0]\011/* MoveIndirectAbsPt */
EIF[ ]\011/* EndIf */
PUSHW[ ]\011/* 1 value pushed */
6 
RCVT[ ]\011/* ReadCVT */
IF[ ]\011/* If */
PUSHW[ ]\011/* 1 value pushed */
2 
MDAP[1]\011/* MoveDirectAbsPt */
ELSE[ ]\011/* Else */
PUSHW[ ]\011/* 2 values pushed */
2 13 
MIAP[0]\011/* MoveIndirectAbsPt */
EIF[ ]\011/* EndIf */
PUSHW[ ]\011/* 1 value pushed */
6 
SRP0[ ]\011/* SetRefPoint0 */
PUSHW[ ]\011/* 2 values pushed */
0 8 
MIRP[10100]\011/* MoveIndirectRelPt */
PUSHW[ ]\011/* 1 value pushed */
4 
MDRP[10000]\011/* MoveDirectRelPt */
PUSHW[ ]\011/* 1 value pushed */
5 
MDRP[10000]\011/* MoveDirectRelPt */
IUP[0]\011/* InterpolateUntPts */
IUP[1]\011/* InterpolateUntPts */";
};
width = 98;
},
{
hints = (
{
horizontal = 1;
origin = "{0, 5}";
target = up;
type = BottomGhost;
},
{
horizontal = 1;
origin = "{0, 2}";
target = "{0, 3}";
type = Stem;
}
);
layerId = "DBA696BD-A337-48FC-9DA1-CD58B2C81FFB";
paths = (
{
closed = 1;
nodes = (
"-45 0 LINE",
"102 690 LINE",
"83 690 LINE",
"81 679 LINE",
"87 679 LINE",
"-57 0 LINE"
);
}
);
width = 25;
}
);
note = T;
},
{
color = 4;
glyphname = L.ss01;
lastChange = "2020-10-01 09:42:54 +0000";
layers = (
{
hints = (
{
horizontal = 1;
origin = "{0, 10}";
target = "{0, 2}";
type = Stem;
},
{
horizontal = 1;
origin = "{0, 8}";
target = "{0, 3}";
type = Stem;
}
);
layerId = "B64BEB12-03E1-41C2-8D0F-395888C0A328";
paths = (
{
closed = 1;
nodes = (
"114 0 LINE",
"130 75 LINE",
"38 75 LINE",
"161 655 LINE",
"173 655 LINE",
"52 87 LINE",
"132 87 LINE",
"269 730 LINE",
"137 730 LINE",
"88 685 LINE",
"-58 0 LINE"
);
}
);
userData = {
assembly = "PUSHW[ ]\011/* 4 values pushed */
0 1 3 4 
CALL[ ]\011/* CallFunction */
PUSHW[ ]\011/* 1 value pushed */
3 
SRP0[ ]\011/* SetRefPoint0 */
PUSHW[ ]\011/* 1 value pushed */
2 
MDRP[11100]\011/* MoveDirectRelPt */
SVTCA[0]\011/* SetFreedomAndProjectionVectorToAxis */
PUSHW[ ]\011/* 1 value pushed */
4 
MDAP[1]\011/* MoveDirectAbsPt */
PUSHW[ ]\011/* 1 value pushed */
0 
RCVT[ ]\011/* ReadCVT */
IF[ ]\011/* If */
PUSHW[ ]\011/* 1 value pushed */
2 
MDAP[1]\011/* MoveDirectAbsPt */
ELSE[ ]\011/* Else */
PUSHW[ ]\011/* 2 values pushed */
2 2 
MIAP[0]\011/* MoveIndirectAbsPt */
EIF[ ]\011/* EndIf */
IUP[0]\011/* InterpolateUntPts */
IUP[1]\011/* InterpolateUntPts */";
};
width = 184;
},
{
hints = (
{
horizontal = 1;
origin = "{0, 10}";
target = "{0, 2}";
type = Stem;
},
{
horizontal = 1;
origin = "{0, 8}";
target = "{0, 3}";
type = Stem;
},
{
place = "{-29, 8}";
type = Stem;
}
);
layerId = "DBA696BD-A337-48FC-9DA1-CD58B2C81FFB";
paths = (
{
closed = 1;
nodes = (
"-22 0 LINE",
"-20 11 LINE",
"-44 11 LINE",
"98 679 LINE",
"110 679 LINE",
"-29 23 LINE",
"-17 23 LINE",
"125 690 LINE",
"99 690 LINE",
"87 682 LINE",
"-58 0 LINE"
);
}
);
width = 48;
}
);
note = L;
},
{
color = 4;
glyphname = T.ss01;
lastChange = "2020-09-26 15:43:26 +0000";
layers = (
{
hints = (
{
horizontal = 1;
origin = "{0, 6}";
target = up;
type = BottomGhost;
},
{
horizontal = 1;
origin = "{0, 3}";
target = "{0, 4}";
type = Stem;
}
);
layerId = "B64BEB12-03E1-41C2-8D0F-395888C0A328";
paths = (
{
closed = 1;
nodes = (
"167 655 LINE",
"173 655 LINE",
"189 730 LINE",
"97 730 LINE",
"81 655 LINE",
"87 655 LINE",
"-52 0 LINE",
"28 0 LINE"
);
}
);
userData = {
assembly = "PUSHW[ ]\011/* 1 value pushed */
10 
CALL[ ]\011/* CallFunction */
PUSHW[ ]\011/* 4 values pushed */
0 12 5 14 
CALL[ ]\011/* CallFunction */
PUSHW[ ]\011/* 3 values pushed */
3 5 0 
SRP1[ ]\011/* SetRefPoint1 */
SRP2[ ]\011/* SetRefPoint2 */
IP[ ]\011/* InterpolatePts */
PUSHW[ ]\011/* 1 value pushed */
3 
MDAP[1]\011/* MoveDirectAbsPt */
PUSHW[ ]\011/* 2 values pushed */
2 9 
MIRP[10100]\011/* MoveIndirectRelPt */
SVTCA[0]\011/* SetFreedomAndProjectionVectorToAxis */
PUSHW[ ]\011/* 1 value pushed */
6 
RCVT[ ]\011/* ReadCVT */
IF[ ]\011/* If */
PUSHW[ ]\011/* 1 value pushed */
6 
MDAP[1]\011/* MoveDirectAbsPt */
ELSE[ ]\011/* Else */
PUSHW[ ]\011/* 2 values pushed */
6 19 
MIAP[0]\011/* MoveIndirectAbsPt */
EIF[ ]\011/* EndIf */
PUSHW[ ]\011/* 1 value pushed */
6 
RCVT[ ]\011/* ReadCVT */
IF[ ]\011/* If */
PUSHW[ ]\011/* 1 value pushed */
2 
MDAP[1]\011/* MoveDirectAbsPt */
ELSE[ ]\011/* Else */
PUSHW[ ]\011/* 2 values pushed */
2 13 
MIAP[0]\011/* MoveIndirectAbsPt */
EIF[ ]\011/* EndIf */
PUSHW[ ]\011/* 1 value pushed */
6 
SRP0[ ]\011/* SetRefPoint0 */
PUSHW[ ]\011/* 2 values pushed */
0 8 
MIRP[10100]\011/* MoveIndirectRelPt */
PUSHW[ ]\011/* 1 value pushed */
4 
MDRP[10000]\011/* MoveDirectRelPt */
PUSHW[ ]\011/* 1 value pushed */
5 
MDRP[10000]\011/* MoveDirectRelPt */
IUP[0]\011/* InterpolateUntPts */
IUP[1]\011/* InterpolateUntPts */";
};
width = 104;
},
{
hints = (
{
horizontal = 1;
origin = "{0, 6}";
target = up;
type = BottomGhost;
},
{
horizontal = 1;
origin = "{0, 3}";
target = "{0, 4}";
type = Stem;
},
{
place = "{82.5, 24}";
type = Stem;
}
);
layerId = "DBA696BD-A337-48FC-9DA1-CD58B2C81FFB";
paths = (
{
closed = 1;
nodes = (
"99 679 LINE",
"105 679 LINE",
"108 690 LINE",
"84 690 LINE",
"81 679 LINE",
"87 679 LINE",
"-57 0 LINE",
"-45 0 LINE"
);
}
);
width = 25;
}
);
note = T;
},
{
color = 4;
glyphname = a;
lastChange = "2020-09-26 15:39:27 +0000";
layers = (
{
hints = (
{
horizontal = 1;
origin = "{0, 10}";
target = "{1, 0}";
type = Stem;
},
{
horizontal = 1;
origin = "{1, 1}";
target = "{0, 7}";
type = Stem;
},
{
horizontal = 1;
origin = "{0, 0}";
target = "{0, 4}";
type = Stem;
},
{
horizontal = 1;
origin = "{0, 0}";
target = "{0, 2}";
type = Stem;
},
{
horizontal = 1;
origin = "{0, 12}";
target = "{1, 0}";
type = Stem;
},
{
horizontal = 1;
origin = "{0, 0}";
target = "{0, 16}";
type = Stem;
}
);
layerId = "B64BEB12-03E1-41C2-8D0F-395888C0A328";
paths = (
{
closed = 1;
nodes = (
"110 600 LINE",
"60 555 LINE",
"30 413 LINE",
"110 413 LINE",
"134 525 LINE",
"146 525 LINE",
"120 401 LINE",
"68 401 LINE",
"18 356 LINE",
"-48 45 LINE",
"-19 0 LINE",
"22 0 LINE",
"28 25 LINE",
"40 25 LINE",
"34 0 LINE",
"114 0 LINE",
"232 553 LINE",
"203 600 LINE"
);
},
{
closed = 1;
nodes = (
"38 75 LINE",
"92 326 LINE",
"104 326 LINE",
"50 75 LINE"
);
}
);
userData = {
assembly = "PUSHW[ ]\011/* 1 value pushed */
22 
MDAP[1]\011/* MoveDirectAbsPt */
PUSHW[ ]\011/* 1 value pushed */
5 
MDAP[1]\011/* MoveDirectAbsPt */
PUSHW[ ]\011/* 2 values pushed */
2 1 
MIRP[10100]\011/* MoveIndirectRelPt */
PUSHW[ ]\011/* 1 value pushed */
22 
SRP0[ ]\011/* SetRefPoint0 */
PUSHW[ ]\011/* 1 value pushed */
8 
MDRP[10000]\011/* MoveDirectRelPt */
PUSHW[ ]\011/* 1 value pushed */
8 
MDAP[1]\011/* MoveDirectAbsPt */
PUSHW[ ]\011/* 2 values pushed */
21 1 
MIRP[10100]\011/* MoveIndirectRelPt */
PUSHW[ ]\011/* 1 value pushed */
6 
MDRP[10000]\011/* MoveDirectRelPt */
PUSHW[ ]\011/* 1 value pushed */
5 
SRP0[ ]\011/* SetRefPoint0 */
PUSHW[ ]\011/* 1 value pushed */
11 
MDRP[10000]\011/* MoveDirectRelPt */
PUSHW[ ]\011/* 1 value pushed */
21 
SRP0[ ]\011/* SetRefPoint0 */
PUSHW[ ]\011/* 1 value pushed */
13 
MDRP[10000]\011/* MoveDirectRelPt */
PUSHW[ ]\011/* 1 value pushed */
8 
SRP0[ ]\011/* SetRefPoint0 */
PUSHW[ ]\011/* 1 value pushed */
15 
MDRP[10000]\011/* MoveDirectRelPt */
PUSHW[ ]\011/* 1 value pushed */
5 
SRP0[ ]\011/* SetRefPoint0 */
PUSHW[ ]\011/* 1 value pushed */
18 
MDRP[10000]\011/* MoveDirectRelPt */
PUSHW[ ]\011/* 1 value pushed */
2 
SRP0[ ]\011/* SetRefPoint0 */
PUSHW[ ]\011/* 1 value pushed */
23 
MDRP[11100]\011/* MoveDirectRelPt */
SVTCA[0]\011/* SetFreedomAndProjectionVectorToAxis */
PUSHW[ ]\011/* 1 value pushed */
0 
RCVT[ ]\011/* ReadCVT */
IF[ ]\011/* If */
PUSHW[ ]\011/* 1 value pushed */
3 
MDAP[1]\011/* MoveDirectAbsPt */
ELSE[ ]\011/* Else */
PUSHW[ ]\011/* 2 values pushed */
3 2 
MIAP[0]\011/* MoveIndirectAbsPt */
EIF[ ]\011/* EndIf */
PUSHW[ ]\011/* 1 value pushed */
0 
RCVT[ ]\011/* ReadCVT */
IF[ ]\011/* If */
PUSHW[ ]\011/* 1 value pushed */
6 
MDAP[1]\011/* MoveDirectAbsPt */
ELSE[ ]\011/* Else */
PUSHW[ ]\011/* 2 values pushed */
6 2 
MIAP[0]\011/* MoveIndirectAbsPt */
EIF[ ]\011/* EndIf */
PUSHW[ ]\011/* 3 values pushed */
17 14 3 
CALL[ ]\011/* CallFunction */
IUP[0]\011/* InterpolateUntPts */
IUP[1]\011/* InterpolateUntPts */";
};
width = 184;
},
{
hints = (
{
horizontal = 1;
origin = "{0, 10}";
target = "{1, 0}";
type = Stem;
},
{
horizontal = 1;
origin = "{1, 1}";
target = "{0, 7}";
type = Stem;
},
{
horizontal = 1;
origin = "{0, 0}";
target = "{0, 4}";
type = Stem;
}
);
layerId = "DBA696BD-A337-48FC-9DA1-CD58B2C81FFB";
paths = (
{
closed = 1;
nodes = (
"78 600 LINE",
"68 592 LINE",
"30 412 LINE",
"42 412 LINE",
"79 589 LINE",
"91 589 LINE",
"51 400 LINE",
"35 400 LINE",
"26 392 LINE",
"-56 8 LINE",
"-51 0 LINE",
"-46 0 LINE",
"-46 0 LINE",
"-34 0 LINE",
"-34 0 LINE",
"-22 0 LINE",
"104 592 LINE",
"98 600 LINE"
);
},
{
closed = 1;
nodes = (
"-43 11 LINE",
"37 389 LINE",
"49 389 LINE",
"-31 11 LINE"
);
}
);
width = 48;
}
);
note = a;
unicode = 0061;
},
{
color = 4;
glyphname = ae;
lastChange = "2020-09-16 15:35:06 +0000";
layers = (
{
guideLines = (
{
position = "{124, 375}";
}
);
layerId = "B64BEB12-03E1-41C2-8D0F-395888C0A328";
paths = (
{
closed = 1;
nodes = (
"25 0 LINE",
"34 0 LINE",
"43 0 LINE",
"167 0 LINE",
"216 45 LINE",
"268 288 LINE",
"188 288 LINE",
"142 75 LINE",
"130 75 LINE",
"178 300 LINE",
"270 300 LINE",
"324 555 LINE",
"294 600 LINE",
"110 600 LINE",
"60 555 LINE",
"25 387 LINE",
"105 387 LINE",
"134 525 LINE",
"146 525 LINE",
"114 375 LINE",
"62 375 LINE",
"13 330 LINE",
"-48 45 LINE",
"-19 0 LINE"
);
},
{
closed = 1;
nodes = (
"86 300 LINE",
"98 300 LINE",
"50 75 LINE",
"38 75 LINE"
);
},
{
closed = 1;
nodes = (
"226 525 LINE",
"238 525 LINE",
"206 375 LINE",
"194 375 LINE"
);
}
);
width = 277;
},
{
layerId = "DBA696BD-A337-48FC-9DA1-CD58B2C81FFB";
paths = (
{
closed = 1;
nodes = (
"-40 0 LINE",
"-40 0 LINE",
"-34 0 LINE",
"-6 0 LINE",
"4 8 LINE",
"64 288 LINE",
"52 288 LINE",
"-7 11 LINE",
"-19 11 LINE",
"42 300 LINE",
"66 300 LINE",
"128 592 LINE",
"122 600 LINE",
"78 600 LINE",
"68 592 LINE",
"30 412 LINE",
"42 412 LINE",
"79 589 LINE",
"91 589 LINE",
"52 401 LINE",
"36 401 LINE",
"26 393 LINE",
"-56 8 LINE",
"-51 0 LINE"
);
},
{
closed = 1;
nodes = (
"37 390 LINE",
"49 390 LINE",
"-31 11 LINE",
"-43 11 LINE"
);
},
{
closed = 1;
nodes = (
"103 589 LINE",
"115 589 LINE",
"56 311 LINE",
"44 311 LINE"
);
}
);
width = 73;
}
);
unicode = 00E6;
},
{
color = 4;
glyphname = b;
lastChange = "2020-09-26 15:36:36 +0000";
layers = (
{
hints = (
{
horizontal = 1;
origin = "{0, 13}";
target = "{1, 3}";
type = Stem;
},
{
horizontal = 1;
origin = "{0, 8}";
target = "{1, 0}";
type = Stem;
},
{
horizontal = 1;
origin = "{0, 12}";
target = down;
type = TopGhost;
},
{
horizontal = 1;
origin = "{0, 1}";
target = "{1, 3}";
type = Stem;
},
{
horizontal = 1;
origin = "{1, 0}";
target = "{0, 10}";
type = Stem;
}
);
layerId = "B64BEB12-03E1-41C2-8D0F-395888C0A328";
paths = (
{
closed = 1;
nodes = (
"22 0 LINE",
"27 25 LINE",
"39 25 LINE",
"34 0 LINE",
"75 0 LINE",
"124 45 LINE",
"232 555 LINE",
"203 600 LINE",
"162 600 LINE",
"156 575 LINE",
"144 575 LINE",
"177 730 LINE",
"97 730 LINE",
"-58 0 LINE"
);
},
{
closed = 1;
nodes = (
"134 525 LINE",
"146 525 LINE",
"50 75 LINE",
"38 75 LINE"
);
}
);
userData = {
assembly = "PUSHW[ ]\011/* 1 value pushed */
10 
CALL[ ]\011/* CallFunction */
PUSHW[ ]\011/* 1 value pushed */
16 
MDAP[1]\011/* MoveDirectAbsPt */
PUSHW[ ]\011/* 1 value pushed */
12 
MDAP[1]\011/* MoveDirectAbsPt */
PUSHW[ ]\011/* 2 values pushed */
1 9 
MIRP[10100]\011/* MoveIndirectRelPt */
PUSHW[ ]\011/* 1 value pushed */
12 
SRP0[ ]\011/* SetRefPoint0 */
PUSHW[ ]\011/* 1 value pushed */
4 
MDRP[10000]\011/* MoveDirectRelPt */
PUSHW[ ]\011/* 1 value pushed */
4 
MDAP[1]\011/* MoveDirectAbsPt */
PUSHW[ ]\011/* 1 value pushed */
16 
SRP0[ ]\011/* SetRefPoint0 */
PUSHW[ ]\011/* 1 value pushed */
7 
MDRP[10000]\011/* MoveDirectRelPt */
PUSHW[ ]\011/* 1 value pushed */
7 
MDAP[1]\011/* MoveDirectAbsPt */
PUSHW[ ]\011/* 2 values pushed */
5 9 
MIRP[10100]\011/* MoveIndirectRelPt */
PUSHW[ ]\011/* 1 value pushed */
9 
MDRP[10000]\011/* MoveDirectRelPt */
PUSHW[ ]\011/* 1 value pushed */
12 
SRP0[ ]\011/* SetRefPoint0 */
PUSHW[ ]\011/* 1 value pushed */
11 
MDRP[10000]\011/* MoveDirectRelPt */
PUSHW[ ]\011/* 1 value pushed */
11 
MDAP[1]\011/* MoveDirectAbsPt */
PUSHW[ ]\011/* 1 value pushed */
5 
SRP0[ ]\011/* SetRefPoint0 */
PUSHW[ ]\011/* 1 value pushed */
13 
MDRP[10000]\011/* MoveDirectRelPt */
PUSHW[ ]\011/* 1 value pushed */
1 
SRP0[ ]\011/* SetRefPoint0 */
PUSHW[ ]\011/* 1 value pushed */
17 
MDRP[11100]\011/* MoveDirectRelPt */
SVTCA[0]\011/* SetFreedomAndProjectionVectorToAxis */
PUSHW[ ]\011/* 1 value pushed */
6 
RCVT[ ]\011/* ReadCVT */
IF[ ]\011/* If */
PUSHW[ ]\011/* 1 value pushed */
8 
MDAP[1]\011/* MoveDirectAbsPt */
ELSE[ ]\011/* Else */
PUSHW[ ]\011/* 2 values pushed */
8 19 
MIAP[0]\011/* MoveIndirectAbsPt */
EIF[ ]\011/* EndIf */
PUSHW[ ]\011/* 1 value pushed */
6 
RCVT[ ]\011/* ReadCVT */
IF[ ]\011/* If */
PUSHW[ ]\011/* 1 value pushed */
0 
MDAP[1]\011/* MoveDirectAbsPt */
ELSE[ ]\011/* Else */
PUSHW[ ]\011/* 2 values pushed */
0 17 
MIAP[0]\011/* MoveIndirectAbsPt */
EIF[ ]\011/* EndIf */
PUSHW[ ]\011/* 1 value pushed */
6 
RCVT[ ]\011/* ReadCVT */
IF[ ]\011/* If */
PUSHW[ ]\011/* 1 value pushed */
3 
MDAP[1]\011/* MoveDirectAbsPt */
ELSE[ ]\011/* Else */
PUSHW[ ]\011/* 2 values pushed */
3 13 
MIAP[0]\011/* MoveIndirectAbsPt */
EIF[ ]\011/* EndIf */
PUSHW[ ]\011/* 1 value pushed */
6 
RCVT[ ]\011/* ReadCVT */
IF[ ]\011/* If */
PUSHW[ ]\011/* 1 value pushed */
6 
MDAP[1]\011/* MoveDirectAbsPt */
ELSE[ ]\011/* Else */
PUSHW[ ]\011/* 2 values pushed */
6 13 
MIAP[0]\011/* MoveIndirectAbsPt */
EIF[ ]\011/* EndIf */
PUSHW[ ]\011/* 3 values pushed */
5 3 8 
SRP1[ ]\011/* SetRefPoint1 */
SRP2[ ]\011/* SetRefPoint2 */
IP[ ]\011/* InterpolatePts */
PUSHW[ ]\011/* 3 values pushed */
10 3 8 
SRP1[ ]\011/* SetRefPoint1 */
SRP2[ ]\011/* SetRefPoint2 */
IP[ ]\011/* InterpolatePts */
IUP[0]\011/* InterpolateUntPts */
IUP[1]\011/* InterpolateUntPts */";
};
width = 184;
},
{
hints = (
{
horizontal = 1;
origin = "{0, 13}";
target = "{1, 3}";
type = Stem;
},
{
horizontal = 1;
origin = "{0, 10}";
target = "{1, 0}";
type = Stem;
},
{
horizontal = 1;
origin = "{0, 12}";
target = down;
type = TopGhost;
}
);
layerId = "DBA696BD-A337-48FC-9DA1-CD58B2C81FFB";
paths = (
{
closed = 1;
nodes = (
"-46 0 LINE",
"-46 0 LINE",
"-34 0 LINE",
"-34 0 LINE",
"-30 0 LINE",
"-20 8 LINE",
"104 592 LINE",
"98 600 LINE",
"94 600 LINE",
"94 600 LINE",
"82 600 LINE",
"101 690 LINE",
"89 690 LINE",
"-58 0 LINE"
);
},
{
closed = 1;
nodes = (
"79 590 LINE",
"91 590 LINE",
"-32 11 LINE",
"-44 11 LINE"
);
}
);
width = 48;
}
);
note = b;
unicode = 0062;
},
{
color = 4;
glyphname = c;
lastChange = "2020-09-26 15:36:22 +0000";
layers = (
{
hints = (
{
horizontal = 1;
origin = "{0, 11}";
target = "{0, 1}";
type = Stem;
},
{
horizontal = 1;
origin = "{0, 8}";
target = "{0, 2}";
type = Stem;
},
{
horizontal = 1;
origin = "{0, 8}";
target = "{0, 9}";
type = Stem;
}
);
layerId = "B64BEB12-03E1-41C2-8D0F-395888C0A328";
paths = (
{
closed = 1;
nodes = (
"50 75 LINE",
"38 75 LINE",
"134 525 LINE",
"146 525 LINE",
"98 300 LINE",
"177 300 LINE",
"231 555 LINE",
"202 600 LINE",
"109 600 LINE",
"60 555 LINE",
"-48 45 LINE",
"-19 0 LINE",
"74 0 LINE",
"123 45 LINE",
"175 288 LINE",
"96 288 LINE"
);
}
);
userData = {
assembly = "PUSHW[ ]\011/* 1 value pushed */
17 
MDAP[1]\011/* MoveDirectAbsPt */
PUSHW[ ]\011/* 1 value pushed */
0 
MDAP[1]\011/* MoveDirectAbsPt */
PUSHW[ ]\011/* 2 values pushed */
1 1 
MIRP[10100]\011/* MoveIndirectRelPt */
PUSHW[ ]\011/* 1 value pushed */
17 
SRP0[ ]\011/* SetRefPoint0 */
PUSHW[ ]\011/* 1 value pushed */
5 
MDRP[10000]\011/* MoveDirectRelPt */
PUSHW[ ]\011/* 1 value pushed */
5 
MDAP[1]\011/* MoveDirectAbsPt */
PUSHW[ ]\011/* 1 value pushed */
1 
SRP0[ ]\011/* SetRefPoint0 */
PUSHW[ ]\011/* 1 value pushed */
9 
MDRP[10000]\011/* MoveDirectRelPt */
PUSHW[ ]\011/* 1 value pushed */
0 
SRP0[ ]\011/* SetRefPoint0 */
PUSHW[ ]\011/* 1 value pushed */
11 
MDRP[10000]\011/* MoveDirectRelPt */
PUSHW[ ]\011/* 1 value pushed */
5 
SRP0[ ]\011/* SetRefPoint0 */
PUSHW[ ]\011/* 2 values pushed */
14 1 
MIRP[10100]\011/* MoveIndirectRelPt */
PUSHW[ ]\011/* 1 value pushed */
0 
SRP0[ ]\011/* SetRefPoint0 */
PUSHW[ ]\011/* 1 value pushed */
15 
MDRP[10000]\011/* MoveDirectRelPt */
PUSHW[ ]\011/* 1 value pushed */
1 
SRP0[ ]\011/* SetRefPoint0 */
PUSHW[ ]\011/* 1 value pushed */
18 
MDRP[11100]\011/* MoveDirectRelPt */
SVTCA[0]\011/* SetFreedomAndProjectionVectorToAxis */
PUSHW[ ]\011/* 1 value pushed */
0 
RCVT[ ]\011/* ReadCVT */
IF[ ]\011/* If */
PUSHW[ ]\011/* 1 value pushed */
3 
MDAP[1]\011/* MoveDirectAbsPt */
ELSE[ ]\011/* Else */
PUSHW[ ]\011/* 2 values pushed */
3 2 
MIAP[0]\011/* MoveIndirectAbsPt */
EIF[ ]\011/* EndIf */
PUSHW[ ]\011/* 3 values pushed */
8 10 3 
CALL[ ]\011/* CallFunction */
PUSHW[ ]\011/* 1 value pushed */
3 
SRP0[ ]\011/* SetRefPoint0 */
PUSHW[ ]\011/* 1 value pushed */
0 
MDRP[11100]\011/* MoveDirectRelPt */
IUP[0]\011/* InterpolateUntPts */
IUP[1]\011/* InterpolateUntPts */";
};
width = 184;
},
{
hints = (
{
horizontal = 1;
origin = "{0, 11}";
target = "{0, 1}";
type = Stem;
},
{
horizontal = 1;
origin = "{0, 8}";
target = "{0, 2}";
type = Stem;
}
);
layerId = "DBA696BD-A337-48FC-9DA1-CD58B2C81FFB";
paths = (
{
closed = 1;
nodes = (
"-31 11 LINE",
"-43 11 LINE",
"79 589 LINE",
"91 589 LINE",
"30 300 LINE",
"42 300 LINE",
"104 592 LINE",
"98 600 LINE",
"78 600 LINE",
"68 592 LINE",
"-56 8 LINE",
"-50 0 LINE",
"-30 0 LINE",
"-20 8 LINE",
"40 288 LINE",
"28 288 LINE"
);
}
);
width = 49;
}
);
note = c;
unicode = 0063;
},
{
color = 4;
glyphname = d;
lastChange = "2020-09-26 15:39:38 +0000";
layers = (
{
hints = (
{
horizontal = 1;
origin = "{0, 13}";
target = "{1, 3}";
type = Stem;
},
{
horizontal = 1;
origin = "{0, 10}";
target = "{1, 0}";
type = Stem;
},
{
horizontal = 1;
origin = "{0, 6}";
target = down;
type = TopGhost;
},
{
horizontal = 1;
origin = "{0, 1}";
target = "{1, 3}";
type = Stem;
},
{
horizontal = 1;
origin = "{1, 0}";
target = "{0, 8}";
type = Stem;
}
);
layerId = "B64BEB12-03E1-41C2-8D0F-395888C0A328";
paths = (
{
closed = 1;
nodes = (
"22 0 LINE",
"28 25 LINE",
"40 25 LINE",
"34 0 LINE",
"114 0 LINE",
"270 730 LINE",
"190 730 LINE",
"157 575 LINE",
"145 575 LINE",
"150 600 LINE",
"109 600 LINE",
"60 555 LINE",
"-48 45 LINE",
"-18 0 LINE"
);
},
{
closed = 1;
nodes = (
"134 525 LINE",
"146 525 LINE",
"50 75 LINE",
"38 75 LINE"
);
}
);
userData = {
assembly = "PUSHW[ ]\011/* 1 value pushed */
10 
CALL[ ]\011/* CallFunction */
PUSHW[ ]\011/* 1 value pushed */
16 
MDAP[1]\011/* MoveDirectAbsPt */
PUSHW[ ]\011/* 1 value pushed */
3 
MDAP[1]\011/* MoveDirectAbsPt */
PUSHW[ ]\011/* 1 value pushed */
16 
SRP0[ ]\011/* SetRefPoint0 */
PUSHW[ ]\011/* 1 value pushed */
10 
MDRP[10000]\011/* MoveDirectRelPt */
PUSHW[ ]\011/* 1 value pushed */
10 
MDAP[1]\011/* MoveDirectAbsPt */
PUSHW[ ]\011/* 2 values pushed */
12 9 
MIRP[10100]\011/* MoveIndirectRelPt */
PUSHW[ ]\011/* 1 value pushed */
1 
MDRP[10000]\011/* MoveDirectRelPt */
PUSHW[ ]\011/* 1 value pushed */
1 
MDAP[1]\011/* MoveDirectAbsPt */
PUSHW[ ]\011/* 1 value pushed */
3 
SRP0[ ]\011/* SetRefPoint0 */
PUSHW[ ]\011/* 2 values pushed */
4 9 
MIRP[10100]\011/* MoveIndirectRelPt */
PUSHW[ ]\011/* 1 value pushed */
3 
SRP0[ ]\011/* SetRefPoint0 */
PUSHW[ ]\011/* 1 value pushed */
7 
MDRP[10000]\011/* MoveDirectRelPt */
PUSHW[ ]\011/* 1 value pushed */
12 
SRP0[ ]\011/* SetRefPoint0 */
PUSHW[ ]\011/* 1 value pushed */
8 
MDRP[10000]\011/* MoveDirectRelPt */
PUSHW[ ]\011/* 1 value pushed */
8 
MDAP[1]\011/* MoveDirectAbsPt */
PUSHW[ ]\011/* 1 value pushed */
3 
SRP0[ ]\011/* SetRefPoint0 */
PUSHW[ ]\011/* 1 value pushed */
13 
MDRP[10000]\011/* MoveDirectRelPt */
PUSHW[ ]\011/* 1 value pushed */
4 
SRP0[ ]\011/* SetRefPoint0 */
PUSHW[ ]\011/* 1 value pushed */
17 
MDRP[11100]\011/* MoveDirectRelPt */
SVTCA[0]\011/* SetFreedomAndProjectionVectorToAxis */
PUSHW[ ]\011/* 1 value pushed */
6 
RCVT[ ]\011/* ReadCVT */
IF[ ]\011/* If */
PUSHW[ ]\011/* 1 value pushed */
3 
MDAP[1]\011/* MoveDirectAbsPt */
ELSE[ ]\011/* Else */
PUSHW[ ]\011/* 2 values pushed */
3 19 
MIAP[0]\011/* MoveIndirectAbsPt */
EIF[ ]\011/* EndIf */
PUSHW[ ]\011/* 1 value pushed */
6 
RCVT[ ]\011/* ReadCVT */
IF[ ]\011/* If */
PUSHW[ ]\011/* 1 value pushed */
0 
MDAP[1]\011/* MoveDirectAbsPt */
ELSE[ ]\011/* Else */
PUSHW[ ]\011/* 2 values pushed */
0 17 
MIAP[0]\011/* MoveIndirectAbsPt */
EIF[ ]\011/* EndIf */
PUSHW[ ]\011/* 1 value pushed */
6 
RCVT[ ]\011/* ReadCVT */
IF[ ]\011/* If */
PUSHW[ ]\011/* 1 value pushed */
5 
MDAP[1]\011/* MoveDirectAbsPt */
ELSE[ ]\011/* Else */
PUSHW[ ]\011/* 2 values pushed */
5 13 
MIAP[0]\011/* MoveIndirectAbsPt */
EIF[ ]\011/* EndIf */
PUSHW[ ]\011/* 1 value pushed */
6 
RCVT[ ]\011/* ReadCVT */
IF[ ]\011/* If */
PUSHW[ ]\011/* 1 value pushed */
8 
MDAP[1]\011/* MoveDirectAbsPt */
ELSE[ ]\011/* Else */
PUSHW[ ]\011/* 2 values pushed */
8 13 
MIAP[0]\011/* MoveIndirectAbsPt */
EIF[ ]\011/* EndIf */
PUSHW[ ]\011/* 3 values pushed */
2 5 3 
SRP1[ ]\011/* SetRefPoint1 */
SRP2[ ]\011/* SetRefPoint2 */
IP[ ]\011/* InterpolatePts */
PUSHW[ ]\011/* 3 values pushed */
7 5 3 
SRP1[ ]\011/* SetRefPoint1 */
SRP2[ ]\011/* SetRefPoint2 */
IP[ ]\011/* InterpolatePts */
IUP[0]\011/* InterpolateUntPts */
IUP[1]\011/* InterpolateUntPts */";
};
width = 185;
},
{
hints = (
{
horizontal = 1;
origin = "{0, 13}";
target = "{1, 3}";
type = Stem;
},
{
horizontal = 1;
origin = "{0, 10}";
target = "{1, 0}";
type = Stem;
},
{
horizontal = 1;
origin = "{0, 6}";
target = down;
type = TopGhost;
}
);
layerId = "DBA696BD-A337-48FC-9DA1-CD58B2C81FFB";
paths = (
{
closed = 1;
nodes = (
"-46 0 LINE",
"-46 0 LINE",
"-34 0 LINE",
"-34 0 LINE",
"-22 0 LINE",
"125 690 LINE",
"113 690 LINE",
"94 600 LINE",
"82 600 LINE",
"82 600 LINE",
"78 600 LINE",
"68 592 LINE",
"-56 8 LINE",
"-50 0 LINE"
);
},
{
closed = 1;
nodes = (
"79 589 LINE",
"91 589 LINE",
"-31 11 LINE",
"-43 11 LINE"
);
}
);
width = 48;
}
);
note = d;
unicode = 0064;
},
{
color = 4;
glyphname = eth;
lastChange = "2020-09-16 20:02:49 +0000";
layers = (
{
components = (
{
name = d;
}
);
layerId = "B64BEB12-03E1-41C2-8D0F-395888C0A328";
paths = (
{
closed = 1;
nodes = (
"110 612 LINE",
"242 612 LINE",
"253 662 LINE",
"121 662 LINE"
);
}
);
width = 185;
},
{
components = (
{
name = d;
}
);
layerId = "DBA696BD-A337-48FC-9DA1-CD58B2C81FFB";
paths = (
{
closed = 1;
nodes = (
"74 612 LINE",
"105 612 LINE",
"108 624 LINE",
"77 624 LINE"
);
}
);
width = 48;
}
);
unicode = 00F0;
},
{
color = 4;
glyphname = e;
lastChange = "2020-09-26 15:34:11 +0000";
layers = (
{
hints = (
{
horizontal = 1;
origin = "{0, 3}";
target = "{0, 9}";
type = Stem;
},
{
horizontal = 1;
origin = "{0, 10}";
target = "{1, 3}";
type = Stem;
},
{
horizontal = 1;
origin = "{0, 0}";
target = "{1, 0}";
type = Stem;
},
{
horizontal = 1;
origin = "{0, 0}";
target = "{0, 1}";
type = Stem;
}
);
layerId = "B64BEB12-03E1-41C2-8D0F-395888C0A328";
paths = (
{
closed = 1;
nodes = (
"109 600 LINE",
"60 555 LINE",
"-48 45 LINE",
"-19 0 LINE",
"75 0 LINE",
"124 45 LINE",
"176 288 LINE",
"96 288 LINE",
"50 75 LINE",
"38 75 LINE",
"86 300 LINE",
"178 300 LINE",
"232 555 LINE",
"202 600 LINE"
);
},
{
closed = 1;
nodes = (
"134 525 LINE",
"146 525 LINE",
"114 375 LINE",
"102 375 LINE"
);
}
);
userData = {
assembly = "PUSHW[ ]\011/* 1 value pushed */
18 
MDAP[1]\011/* MoveDirectAbsPt */
PUSHW[ ]\011/* 1 value pushed */
5 
MDAP[1]\011/* MoveDirectAbsPt */
PUSHW[ ]\011/* 2 values pushed */
8 1 
MIRP[10100]\011/* MoveIndirectRelPt */
PUSHW[ ]\011/* 1 value pushed */
1 
MDRP[10000]\011/* MoveDirectRelPt */
PUSHW[ ]\011/* 1 value pushed */
18 
SRP0[ ]\011/* SetRefPoint0 */
PUSHW[ ]\011/* 1 value pushed */
11 
MDRP[10000]\011/* MoveDirectRelPt */
PUSHW[ ]\011/* 1 value pushed */
11 
MDAP[1]\011/* MoveDirectAbsPt */
PUSHW[ ]\011/* 2 values pushed */
4 1 
MIRP[10100]\011/* MoveIndirectRelPt */
PUSHW[ ]\011/* 1 value pushed */
14 
MDRP[10000]\011/* MoveDirectRelPt */
PUSHW[ ]\011/* 1 value pushed */
5 
SRP0[ ]\011/* SetRefPoint0 */
PUSHW[ ]\011/* 1 value pushed */
15 
MDRP[10000]\011/* MoveDirectRelPt */
PUSHW[ ]\011/* 1 value pushed */
8 
SRP0[ ]\011/* SetRefPoint0 */
PUSHW[ ]\011/* 1 value pushed */
19 
MDRP[11100]\011/* MoveDirectRelPt */
SVTCA[0]\011/* SetFreedomAndProjectionVectorToAxis */
PUSHW[ ]\011/* 1 value pushed */
0 
MDAP[1]\011/* MoveDirectAbsPt */
PUSHW[ ]\011/* 1 value pushed */
0 
RCVT[ ]\011/* ReadCVT */
IF[ ]\011/* If */
PUSHW[ ]\011/* 1 value pushed */
9 
MDAP[1]\011/* MoveDirectAbsPt */
ELSE[ ]\011/* Else */
PUSHW[ ]\011/* 2 values pushed */
9 2 
MIAP[0]\011/* MoveIndirectAbsPt */
EIF[ ]\011/* EndIf */
PUSHW[ ]\011/* 1 value pushed */
6 
MDRP[11100]\011/* MoveDirectRelPt */
IUP[0]\011/* InterpolateUntPts */
IUP[1]\011/* InterpolateUntPts */";
};
width = 185;
},
{
hints = (
{
horizontal = 1;
origin = "{0, 3}";
target = "{0, 9}";
type = Stem;
},
{
horizontal = 1;
origin = "{0, 10}";
target = "{1, 3}";
type = Stem;
},
{
horizontal = 1;
origin = "{0, 0}";
target = "{1, 0}";
type = Stem;
}
);
layerId = "DBA696BD-A337-48FC-9DA1-CD58B2C81FFB";
paths = (
{
closed = 1;
nodes = (
"78 600 LINE",
"68 592 LINE",
"-56 8 LINE",
"-50 0 LINE",
"-30 0 LINE",
"-20 8 LINE",
"40 288 LINE",
"28 288 LINE",
"-31 11 LINE",
"-43 11 LINE",
"18 300 LINE",
"42 300 LINE",
"104 592 LINE",
"98 600 LINE"
);
},
{
closed = 1;
nodes = (
"79 589 LINE",
"91 589 LINE",
"32 311 LINE",
"20 311 LINE"
);
}
);
width = 49;
}
);
note = e;
unicode = 0065;
},
{
color = 4;
glyphname = f;
lastChange = "2020-09-26 15:18:50 +0000";
layers = (
{
hints = (
{
horizontal = 1;
origin = "{0, 7}";
target = up;
type = BottomGhost;
},
{
horizontal = 1;
origin = "{0, 4}";
target = down;
type = TopGhost;
},
{
horizontal = 1;
origin = "{0, 1}";
target = "{0, 13}";
type = Stem;
}
);
layerId = "B64BEB12-03E1-41C2-8D0F-395888C0A328";
paths = (
{
closed = 1;
nodes = (
"183 730 LINE",
"136 730 LINE",
"88 685 LINE",
"70 600 LINE",
"64 600 LINE",
"48 525 LINE",
"54 525 LINE",
"-58 0 LINE",
"22 0 LINE",
"134 525 LINE",
"140 525 LINE",
"156 600 LINE",
"150 600 LINE",
"161 655 LINE",
"167 655 LINE"
);
}
);
userData = {
assembly = "PUSHW[ ]\011/* 1 value pushed */
10 
CALL[ ]\011/* CallFunction */
PUSHW[ ]\011/* 4 values pushed */
12 12 5 14 
CALL[ ]\011/* CallFunction */
PUSHW[ ]\011/* 1 value pushed */
12 
SRP0[ ]\011/* SetRefPoint0 */
PUSHW[ ]\011/* 1 value pushed */
0 
MDRP[10000]\011/* MoveDirectRelPt */
PUSHW[ ]\011/* 3 values pushed */
3 5 12 
SRP1[ ]\011/* SetRefPoint1 */
SRP2[ ]\011/* SetRefPoint2 */
IP[ ]\011/* InterpolatePts */
PUSHW[ ]\011/* 1 value pushed */
3 
MDAP[1]\011/* MoveDirectAbsPt */
PUSHW[ ]\011/* 1 value pushed */
7 
MDRP[10000]\011/* MoveDirectRelPt */
PUSHW[ ]\011/* 1 value pushed */
3 
SRP0[ ]\011/* SetRefPoint0 */
PUSHW[ ]\011/* 2 values pushed */
14 9 
MIRP[10100]\011/* MoveIndirectRelPt */
PUSHW[ ]\011/* 1 value pushed */
9 
MDRP[10000]\011/* MoveDirectRelPt */
PUSHW[ ]\011/* 1 value pushed */
12 
SRP0[ ]\011/* SetRefPoint0 */
PUSHW[ ]\011/* 1 value pushed */
16 
MDRP[11100]\011/* MoveDirectRelPt */
SVTCA[0]\011/* SetFreedomAndProjectionVectorToAxis */
PUSHW[ ]\011/* 1 value pushed */
6 
RCVT[ ]\011/* ReadCVT */
IF[ ]\011/* If */
PUSHW[ ]\011/* 1 value pushed */
8 
MDAP[1]\011/* MoveDirectAbsPt */
ELSE[ ]\011/* Else */
PUSHW[ ]\011/* 2 values pushed */
8 19 
MIAP[0]\011/* MoveIndirectAbsPt */
EIF[ ]\011/* EndIf */
PUSHW[ ]\011/* 1 value pushed */
6 
RCVT[ ]\011/* ReadCVT */
IF[ ]\011/* If */
PUSHW[ ]\011/* 1 value pushed */
6 
MDAP[1]\011/* MoveDirectAbsPt */
ELSE[ ]\011/* Else */
PUSHW[ ]\011/* 2 values pushed */
6 17 
MIAP[0]\011/* MoveIndirectAbsPt */
EIF[ ]\011/* EndIf */
PUSHW[ ]\011/* 1 value pushed */
6 
RCVT[ ]\011/* ReadCVT */
IF[ ]\011/* If */
PUSHW[ ]\011/* 1 value pushed */
10 
MDAP[1]\011/* MoveDirectAbsPt */
ELSE[ ]\011/* Else */
PUSHW[ ]\011/* 2 values pushed */
10 17 
MIAP[0]\011/* MoveIndirectAbsPt */
EIF[ ]\011/* EndIf */
PUSHW[ ]\011/* 1 value pushed */
6 
RCVT[ ]\011/* ReadCVT */
IF[ ]\011/* If */
PUSHW[ ]\011/* 1 value pushed */
1 
MDAP[1]\011/* MoveDirectAbsPt */
ELSE[ ]\011/* Else */
PUSHW[ ]\011/* 2 values pushed */
1 13 
MIAP[0]\011/* MoveIndirectAbsPt */
EIF[ ]\011/* EndIf */
PUSHW[ ]\011/* 1 value pushed */
6 
SRP0[ ]\011/* SetRefPoint0 */
PUSHW[ ]\011/* 2 values pushed */
4 8 
MIRP[10100]\011/* MoveIndirectRelPt */
PUSHW[ ]\011/* 1 value pushed */
12 
MDRP[10000]\011/* MoveDirectRelPt */
PUSHW[ ]\011/* 1 value pushed */
13 
MDRP[10000]\011/* MoveDirectRelPt */
IUP[0]\011/* InterpolateUntPts */
IUP[1]\011/* InterpolateUntPts */";
};
width = 92;
},
{
hints = (
{
horizontal = 1;
origin = "{0, 7}";
target = up;
type = BottomGhost;
},
{
horizontal = 1;
origin = "{0, 4}";
target = "{0, 5}";
type = Stem;
},
{
horizontal = 1;
origin = "{0, 1}";
target = "{0, 13}";
type = Stem;
},
{
place = "{62.5, 24}";
type = Stem;
}
);
layerId = "DBA696BD-A337-48FC-9DA1-CD58B2C81FFB";
paths = (
{
closed = 1;
nodes = (
"107 690 LINE",
"97 690 LINE",
"87 682 LINE",
"70 600 LINE",
"64 600 LINE",
"61 589 LINE",
"67 589 LINE",
"-58 0 LINE",
"-46 0 LINE",
"79 589 LINE",
"85 589 LINE",
"88 600 LINE",
"82 600 LINE",
"98 679 LINE",
"104 679 LINE"
);
}
);
width = 24;
}
);
note = t;
unicode = 0066;
},
{
color = 4;
glyphname = g;
lastChange = "2020-09-26 15:12:02 +0000";
layers = (
{
hints = (
{
horizontal = 1;
origin = "{0, 21}";
target = "{0, 19}";
type = Stem;
},
{
horizontal = 1;
origin = "{0, 13}";
target = "{1, 3}";
type = Stem;
},
{
horizontal = 1;
origin = "{0, 8}";
target = "{1, 0}";
type = Stem;
},
{
horizontal = 1;
origin = "{1, 0}";
target = "{0, 6}";
type = Stem;
},
{
horizontal = 1;
origin = "{0, 11}";
target = "{1, 3}";
type = Stem;
},
{
horizontal = 1;
origin = "{0, 21}";
target = "{0, 17}";
type = Stem;
},
{
origin = "{0, 16}";
target = "{0, 1}";
type = Stem;
},
{
origin = "{0, 20}";
target = "{0, 17}";
type = Stem;
}
);
layerId = "B64BEB12-03E1-41C2-8D0F-395888C0A328";
paths = (
{
closed = 1;
nodes = (
"47 -130 LINE",
"96 -85 LINE",
"232 555 LINE",
"242 600 LINE",
"162 600 LINE",
"156 575 LINE",
"144 575 LINE",
"150 600 LINE",
"109 600 LINE",
"60 555 LINE",
"-48 45 LINE",
"-18 0 LINE",
"22 0 LINE",
"27 25 LINE",
"39 25 LINE",
"34 0 LINE",
"22 -55 LINE",
"10 -55 LINE",
"20 -12 LINE",
"-60 -12 LINE",
"-76 -85 LINE",
"-47 -130 LINE"
);
},
{
closed = 1;
nodes = (
"134 525 LINE",
"146 525 LINE",
"50 75 LINE",
"38 75 LINE"
);
}
);
userData = {
assembly = "PUSHW[ ]\011/* 1 value pushed */
10 
CALL[ ]\011/* CallFunction */
PUSHW[ ]\011/* 1 value pushed */
19 
MDAP[1]\011/* MoveDirectAbsPt */
PUSHW[ ]\011/* 1 value pushed */
3 
MDAP[1]\011/* MoveDirectAbsPt */
PUSHW[ ]\011/* 1 value pushed */
19 
SRP0[ ]\011/* SetRefPoint0 */
PUSHW[ ]\011/* 1 value pushed */
6 
MDRP[10000]\011/* MoveDirectRelPt */
PUSHW[ ]\011/* 1 value pushed */
6 
MDAP[1]\011/* MoveDirectAbsPt */
PUSHW[ ]\011/* 1 value pushed */
1 
MDRP[10000]\011/* MoveDirectRelPt */
PUSHW[ ]\011/* 1 value pushed */
6 
SRP0[ ]\011/* SetRefPoint0 */
PUSHW[ ]\011/* 2 values pushed */
17 9 
MIRP[10100]\011/* MoveIndirectRelPt */
PUSHW[ ]\011/* 1 value pushed */
9 
MDRP[10000]\011/* MoveDirectRelPt */
PUSHW[ ]\011/* 1 value pushed */
3 
SRP0[ ]\011/* SetRefPoint0 */
PUSHW[ ]\011/* 1 value pushed */
10 
MDRP[10000]\011/* MoveDirectRelPt */
PUSHW[ ]\011/* 1 value pushed */
3 
SRP0[ ]\011/* SetRefPoint0 */
PUSHW[ ]\011/* 2 values pushed */
14 9 
MIRP[10100]\011/* MoveIndirectRelPt */
PUSHW[ ]\011/* 1 value pushed */
12 
MDRP[10000]\011/* MoveDirectRelPt */
PUSHW[ ]\011/* 1 value pushed */
12 
MDAP[1]\011/* MoveDirectAbsPt */
PUSHW[ ]\011/* 1 value pushed */
3 
SRP0[ ]\011/* SetRefPoint0 */
PUSHW[ ]\011/* 1 value pushed */
15 
MDRP[10000]\011/* MoveDirectRelPt */
PUSHW[ ]\011/* 1 value pushed */
14 
SRP0[ ]\011/* SetRefPoint0 */
PUSHW[ ]\011/* 1 value pushed */
20 
MDRP[11100]\011/* MoveDirectRelPt */
SVTCA[0]\011/* SetFreedomAndProjectionVectorToAxis */
PUSHW[ ]\011/* 1 value pushed */
6 
RCVT[ ]\011/* ReadCVT */
IF[ ]\011/* If */
PUSHW[ ]\011/* 1 value pushed */
8 
MDAP[1]\011/* MoveDirectAbsPt */
ELSE[ ]\011/* Else */
PUSHW[ ]\011/* 2 values pushed */
8 17 
MIAP[0]\011/* MoveIndirectAbsPt */
EIF[ ]\011/* EndIf */
PUSHW[ ]\011/* 1 value pushed */
6 
RCVT[ ]\011/* ReadCVT */
IF[ ]\011/* If */
PUSHW[ ]\011/* 1 value pushed */
11 
MDAP[1]\011/* MoveDirectAbsPt */
ELSE[ ]\011/* Else */
PUSHW[ ]\011/* 2 values pushed */
11 17 
MIAP[0]\011/* MoveIndirectAbsPt */
EIF[ ]\011/* EndIf */
PUSHW[ ]\011/* 1 value pushed */
6 
RCVT[ ]\011/* ReadCVT */
IF[ ]\011/* If */
PUSHW[ ]\011/* 1 value pushed */
4 
MDAP[1]\011/* MoveDirectAbsPt */
ELSE[ ]\011/* Else */
PUSHW[ ]\011/* 2 values pushed */
4 13 
MIAP[0]\011/* MoveIndirectAbsPt */
EIF[ ]\011/* EndIf */
PUSHW[ ]\011/* 1 value pushed */
6 
RCVT[ ]\011/* ReadCVT */
IF[ ]\011/* If */
PUSHW[ ]\011/* 1 value pushed */
0 
MDAP[1]\011/* MoveDirectAbsPt */
ELSE[ ]\011/* Else */
PUSHW[ ]\011/* 2 values pushed */
0 15 
MIAP[0]\011/* MoveIndirectAbsPt */
EIF[ ]\011/* EndIf */
PUSHW[ ]\011/* 2 values pushed */
2 8 
MIRP[10100]\011/* MoveIndirectRelPt */
PUSHW[ ]\011/* 3 values pushed */
10 0 8 
SRP1[ ]\011/* SetRefPoint1 */
SRP2[ ]\011/* SetRefPoint2 */
IP[ ]\011/* InterpolatePts */
IUP[0]\011/* InterpolateUntPts */
IUP[1]\011/* InterpolateUntPts */";
};
width = 184;
},
{
hints = (
{
horizontal = 1;
origin = "{0, 21}";
target = "{0, 17}";
type = Stem;
},
{
horizontal = 1;
origin = "{0, 11}";
target = "{1, 3}";
type = Stem;
},
{
horizontal = 1;
origin = "{0, 8}";
target = "{1, 0}";
type = Stem;
},
{
origin = "{0, 20}";
target = "{0, 17}";
type = Stem;
},
{
origin = "{0, 16}";
target = "{0, 1}";
type = Stem;
}
);
layerId = "DBA696BD-A337-48FC-9DA1-CD58B2C81FFB";
paths = (
{
closed = 1;
nodes = (
"-49 -90 LINE",
"-39 -82 LINE",
"106 600 LINE",
"106 600 LINE",
"94 600 LINE",
"94 600 LINE",
"82 600 LINE",
"82 600 LINE",
"78 600 LINE",
"68 592 LINE",
"-56 8 LINE",
"-50 0 LINE",
"-46 0 LINE",
"-46 0 LINE",
"-34 0 LINE",
"-34 0 LINE",
"-50 -78 LINE",
"-62 -78 LINE",
"-48 -12 LINE",
"-60 -12 LINE",
"-75 -82 LINE",
"-69 -90 LINE"
);
},
{
closed = 1;
nodes = (
"80 589 LINE",
"92 589 LINE",
"-31 11 LINE",
"-43 11 LINE"
);
}
);
width = 48;
}
);
note = g;
unicode = 0067;
},
{
color = 4;
glyphname = h;
lastChange = "2020-09-26 15:34:09 +0000";
layers = (
{
hints = (
{
horizontal = 1;
origin = "{0, 11}";
target = up;
type = BottomGhost;
},
{
horizontal = 1;
origin = "{0, 6}";
target = "{0, 0}";
type = Stem;
},
{
horizontal = 1;
origin = "{0, 10}";
target = down;
type = TopGhost;
},
{
horizontal = 1;
origin = "{0, 0}";
target = "{0, 8}";
type = Stem;
}
);
layerId = "B64BEB12-03E1-41C2-8D0F-395888C0A328";
paths = (
{
closed = 1;
nodes = (
"134 525 LINE",
"146 525 LINE",
"34 0 LINE",
"114 0 LINE",
"232 555 LINE",
"203 600 LINE",
"162 600 LINE",
"156 575 LINE",
"144 575 LINE",
"177 730 LINE",
"97 730 LINE",
"-58 0 LINE",
"22 0 LINE"
);
}
);
userData = {
assembly = "PUSHW[ ]\011/* 1 value pushed */
12 
MDAP[1]\011/* MoveDirectAbsPt */
PUSHW[ ]\011/* 1 value pushed */
9 
MDAP[1]\011/* MoveDirectAbsPt */
PUSHW[ ]\011/* 1 value pushed */
12 
SRP0[ ]\011/* SetRefPoint0 */
PUSHW[ ]\011/* 1 value pushed */
1 
MDRP[10000]\011/* MoveDirectRelPt */
PUSHW[ ]\011/* 1 value pushed */
1 
MDAP[1]\011/* MoveDirectAbsPt */
PUSHW[ ]\011/* 2 values pushed */
0 1 
MIRP[10100]\011/* MoveIndirectRelPt */
PUSHW[ ]\011/* 1 value pushed */
3 
MDRP[10000]\011/* MoveDirectRelPt */
PUSHW[ ]\011/* 1 value pushed */
9 
SRP0[ ]\011/* SetRefPoint0 */
PUSHW[ ]\011/* 1 value pushed */
5 
MDRP[10000]\011/* MoveDirectRelPt */
PUSHW[ ]\011/* 1 value pushed */
5 
MDAP[1]\011/* MoveDirectAbsPt */
PUSHW[ ]\011/* 1 value pushed */
9 
SRP0[ ]\011/* SetRefPoint0 */
PUSHW[ ]\011/* 2 values pushed */
8 1 
MIRP[10100]\011/* MoveIndirectRelPt */
PUSHW[ ]\011/* 1 value pushed */
13 
MDRP[11100]\011/* MoveDirectRelPt */
SVTCA[0]\011/* SetFreedomAndProjectionVectorToAxis */
PUSHW[ ]\011/* 1 value pushed */
2 
MDAP[1]\011/* MoveDirectAbsPt */
PUSHW[ ]\011/* 1 value pushed */
0 
RCVT[ ]\011/* ReadCVT */
IF[ ]\011/* If */
PUSHW[ ]\011/* 1 value pushed */
0 
MDAP[1]\011/* MoveDirectAbsPt */
ELSE[ ]\011/* Else */
PUSHW[ ]\011/* 2 values pushed */
0 2 
MIAP[0]\011/* MoveIndirectAbsPt */
EIF[ ]\011/* EndIf */
PUSHW[ ]\011/* 1 value pushed */
0 
RCVT[ ]\011/* ReadCVT */
IF[ ]\011/* If */
PUSHW[ ]\011/* 1 value pushed */
8 
MDAP[1]\011/* MoveDirectAbsPt */
ELSE[ ]\011/* Else */
PUSHW[ ]\011/* 2 values pushed */
8 2 
MIAP[0]\011/* MoveIndirectAbsPt */
EIF[ ]\011/* EndIf */
PUSHW[ ]\011/* 3 values pushed */
4 0 2 
SRP1[ ]\011/* SetRefPoint1 */
SRP2[ ]\011/* SetRefPoint2 */
IP[ ]\011/* InterpolatePts */
IUP[0]\011/* InterpolateUntPts */
IUP[1]\011/* InterpolateUntPts */";
};
width = 184;
},
{
hints = (
{
horizontal = 1;
origin = "{0, 11}";
target = up;
type = BottomGhost;
},
{
horizontal = 1;
origin = "{0, 8}";
target = "{0, 0}";
type = Stem;
},
{
horizontal = 1;
origin = "{0, 10}";
target = down;
type = TopGhost;
}
);
layerId = "DBA696BD-A337-48FC-9DA1-CD58B2C81FFB";
paths = (
{
closed = 1;
nodes = (
"79 589 LINE",
"91 589 LINE",
"-34 0 LINE",
"-22 0 LINE",
"104 592 LINE",
"98 600 LINE",
"94 600 LINE",
"94 600 LINE",
"82 600 LINE",
"101 690 LINE",
"89 690 LINE",
"-58 0 LINE",
"-46 0 LINE"
);
}
);
width = 48;
}
);
note = h;
unicode = 0068;
},
{
color = 4;
glyphname = i;
lastChange = "2020-09-26 15:36:16 +0000";
layers = (
{
hints = (
{
horizontal = 1;
origin = "{1, 2}";
target = "{1, 1}";
type = Stem;
},
{
horizontal = 1;
origin = "{0, 0}";
target = "{1, 1}";
type = Stem;
},
{
origin = "{0, 3}";
target = "{1, 0}";
type = Stem;
}
);
layerId = "B64BEB12-03E1-41C2-8D0F-395888C0A328";
paths = (
{
closed = 1;
nodes = (
"70 600 LINE",
"150 600 LINE",
"22 0 LINE",
"-58 0 LINE"
);
},
{
closed = 1;
nodes = (
"178 730 LINE",
"97 730 LINE",
"72 612 LINE",
"153 612 LINE"
);
}
);
userData = {
assembly = "PUSHW[ ]\011/* 1 value pushed */
10 
CALL[ ]\011/* CallFunction */
PUSHW[ ]\011/* 4 values pushed */
4 9 5 14 
CALL[ ]\011/* CallFunction */
PUSHW[ ]\011/* 1 value pushed */
5 
SRP0[ ]\011/* SetRefPoint0 */
PUSHW[ ]\011/* 1 value pushed */
0 
MDRP[10000]\011/* MoveDirectRelPt */
PUSHW[ ]\011/* 1 value pushed */
4 
SRP0[ ]\011/* SetRefPoint0 */
PUSHW[ ]\011/* 1 value pushed */
1 
MDRP[10000]\011/* MoveDirectRelPt */
PUSHW[ ]\011/* 1 value pushed */
1 
MDAP[1]\011/* MoveDirectAbsPt */
PUSHW[ ]\011/* 1 value pushed */
4 
SRP0[ ]\011/* SetRefPoint0 */
PUSHW[ ]\011/* 1 value pushed */
9 
MDRP[11100]\011/* MoveDirectRelPt */
SVTCA[0]\011/* SetFreedomAndProjectionVectorToAxis */
PUSHW[ ]\011/* 1 value pushed */
6 
RCVT[ ]\011/* ReadCVT */
IF[ ]\011/* If */
PUSHW[ ]\011/* 1 value pushed */
2 
MDAP[1]\011/* MoveDirectAbsPt */
ELSE[ ]\011/* Else */
PUSHW[ ]\011/* 2 values pushed */
2 17 
MIAP[0]\011/* MoveIndirectAbsPt */
EIF[ ]\011/* EndIf */
PUSHW[ ]\011/* 1 value pushed */
6 
RCVT[ ]\011/* ReadCVT */
IF[ ]\011/* If */
PUSHW[ ]\011/* 1 value pushed */
6 
MDAP[1]\011/* MoveDirectAbsPt */
ELSE[ ]\011/* Else */
PUSHW[ ]\011/* 2 values pushed */
6 19 
MIAP[0]\011/* MoveIndirectAbsPt */
EIF[ ]\011/* EndIf */
PUSHW[ ]\011/* 1 value pushed */
6 
RCVT[ ]\011/* ReadCVT */
IF[ ]\011/* If */
PUSHW[ ]\011/* 1 value pushed */
0 
MDAP[1]\011/* MoveDirectAbsPt */
ELSE[ ]\011/* Else */
PUSHW[ ]\011/* 2 values pushed */
0 13 
MIAP[0]\011/* MoveIndirectAbsPt */
EIF[ ]\011/* EndIf */
PUSHW[ ]\011/* 1 value pushed */
6 
SRP0[ ]\011/* SetRefPoint0 */
PUSHW[ ]\011/* 2 values pushed */
4 8 
MIRP[10100]\011/* MoveIndirectRelPt */
IUP[0]\011/* InterpolateUntPts */
IUP[1]\011/* InterpolateUntPts */";
};
width = 93;
},
{
hints = (
{
horizontal = 1;
origin = "{1, 1}";
target = "{1, 2}";
type = Stem;
}
);
layerId = "DBA696BD-A337-48FC-9DA1-CD58B2C81FFB";
paths = (
{
closed = 1;
nodes = (
"70 600 LINE",
"82 600 LINE",
"-46 0 LINE",
"-58 0 LINE"
);
},
{
closed = 1;
nodes = (
"102 690 LINE",
"89 690 LINE",
"72 612 LINE",
"85 612 LINE"
);
}
);
width = 25;
}
);
note = i;
unicode = 0069;
},
{
color = 4;
glyphname = idotless;
lastChange = "2020-09-16 15:35:06 +0000";
layers = (
{
layerId = "B64BEB12-03E1-41C2-8D0F-395888C0A328";
paths = (
{
closed = 1;
nodes = (
"70 600 LINE",
"150 600 LINE",
"22 0 LINE",
"-58 0 LINE"
);
}
);
userData = {
assembly = "PUSHW[ ]\011/* 1 value pushed */
10 
CALL[ ]\011/* CallFunction */
PUSHW[ ]\011/* 4 values pushed */
4 9 5 14 
CALL[ ]\011/* CallFunction */
PUSHW[ ]\011/* 1 value pushed */
5 
SRP0[ ]\011/* SetRefPoint0 */
PUSHW[ ]\011/* 1 value pushed */
0 
MDRP[10000]\011/* MoveDirectRelPt */
PUSHW[ ]\011/* 1 value pushed */
4 
SRP0[ ]\011/* SetRefPoint0 */
PUSHW[ ]\011/* 1 value pushed */
1 
MDRP[10000]\011/* MoveDirectRelPt */
PUSHW[ ]\011/* 1 value pushed */
1 
MDAP[1]\011/* MoveDirectAbsPt */
PUSHW[ ]\011/* 1 value pushed */
4 
SRP0[ ]\011/* SetRefPoint0 */
PUSHW[ ]\011/* 1 value pushed */
9 
MDRP[11100]\011/* MoveDirectRelPt */
SVTCA[0]\011/* SetFreedomAndProjectionVectorToAxis */
PUSHW[ ]\011/* 1 value pushed */
6 
RCVT[ ]\011/* ReadCVT */
IF[ ]\011/* If */
PUSHW[ ]\011/* 1 value pushed */
2 
MDAP[1]\011/* MoveDirectAbsPt */
ELSE[ ]\011/* Else */
PUSHW[ ]\011/* 2 values pushed */
2 17 
MIAP[0]\011/* MoveIndirectAbsPt */
EIF[ ]\011/* EndIf */
PUSHW[ ]\011/* 1 value pushed */
6 
RCVT[ ]\011/* ReadCVT */
IF[ ]\011/* If */
PUSHW[ ]\011/* 1 value pushed */
6 
MDAP[1]\011/* MoveDirectAbsPt */
ELSE[ ]\011/* Else */
PUSHW[ ]\011/* 2 values pushed */
6 19 
MIAP[0]\011/* MoveIndirectAbsPt */
EIF[ ]\011/* EndIf */
PUSHW[ ]\011/* 1 value pushed */
6 
RCVT[ ]\011/* ReadCVT */
IF[ ]\011/* If */
PUSHW[ ]\011/* 1 value pushed */
0 
MDAP[1]\011/* MoveDirectAbsPt */
ELSE[ ]\011/* Else */
PUSHW[ ]\011/* 2 values pushed */
0 13 
MIAP[0]\011/* MoveIndirectAbsPt */
EIF[ ]\011/* EndIf */
PUSHW[ ]\011/* 1 value pushed */
6 
SRP0[ ]\011/* SetRefPoint0 */
PUSHW[ ]\011/* 2 values pushed */
4 8 
MIRP[10100]\011/* MoveIndirectRelPt */
IUP[0]\011/* InterpolateUntPts */
IUP[1]\011/* InterpolateUntPts */";
};
width = 92;
},
{
layerId = "DBA696BD-A337-48FC-9DA1-CD58B2C81FFB";
paths = (
{
closed = 1;
nodes = (
"70 600 LINE",
"82 600 LINE",
"-46 0 LINE",
"-58 0 LINE"
);
}
);
width = 24;
}
);
note = i;
unicode = 0131;
},
{
color = 4;
glyphname = j;
lastChange = "2020-09-26 15:38:11 +0000";
layers = (
{
hints = (
{
horizontal = 1;
origin = "{1, 2}";
target = "{1, 1}";
type = Stem;
},
{
horizontal = 1;
origin = "{0, 1}";
target = "{1, 1}";
type = Stem;
}
);
layerId = "B64BEB12-03E1-41C2-8D0F-395888C0A328";
paths = (
{
closed = 1;
nodes = (
"-61 -15 LINE",
"70 600 LINE",
"150 600 LINE",
"-5 -130 LINE",
"-85 -130 LINE"
);
},
{
closed = 1;
nodes = (
"178 730 LINE",
"98 730 LINE",
"73 612 LINE",
"153 612 LINE"
);
}
);
userData = {
assembly = "PUSHW[ ]\011/* 1 value pushed */
10 
CALL[ ]\011/* CallFunction */
PUSHW[ ]\011/* 4 values pushed */
3 12 0 14 
CALL[ ]\011/* CallFunction */
PUSHW[ ]\011/* 1 value pushed */
3 
SRP0[ ]\011/* SetRefPoint0 */
PUSHW[ ]\011/* 2 values pushed */
5 9 
MIRP[10100]\011/* MoveIndirectRelPt */
PUSHW[ ]\011/* 1 value pushed */
3 
SRP0[ ]\011/* SetRefPoint0 */
PUSHW[ ]\011/* 1 value pushed */
7 
MDRP[10000]\011/* MoveDirectRelPt */
PUSHW[ ]\011/* 1 value pushed */
5 
SRP0[ ]\011/* SetRefPoint0 */
PUSHW[ ]\011/* 1 value pushed */
8 
MDRP[10000]\011/* MoveDirectRelPt */
PUSHW[ ]\011/* 1 value pushed */
8 
MDAP[1]\011/* MoveDirectAbsPt */
PUSHW[ ]\011/* 1 value pushed */
4 
SRP0[ ]\011/* SetRefPoint0 */
PUSHW[ ]\011/* 1 value pushed */
10 
MDRP[10000]\011/* MoveDirectRelPt */
PUSHW[ ]\011/* 1 value pushed */
3 
SRP0[ ]\011/* SetRefPoint0 */
PUSHW[ ]\011/* 1 value pushed */
12 
MDRP[11100]\011/* MoveDirectRelPt */
SVTCA[0]\011/* SetFreedomAndProjectionVectorToAxis */
PUSHW[ ]\011/* 1 value pushed */
6 
RCVT[ ]\011/* ReadCVT */
IF[ ]\011/* If */
PUSHW[ ]\011/* 1 value pushed */
4 
MDAP[1]\011/* MoveDirectAbsPt */
ELSE[ ]\011/* Else */
PUSHW[ ]\011/* 2 values pushed */
4 17 
MIAP[0]\011/* MoveIndirectAbsPt */
EIF[ ]\011/* EndIf */
PUSHW[ ]\011/* 1 value pushed */
6 
RCVT[ ]\011/* ReadCVT */
IF[ ]\011/* If */
PUSHW[ ]\011/* 1 value pushed */
9 
MDAP[1]\011/* MoveDirectAbsPt */
ELSE[ ]\011/* Else */
PUSHW[ ]\011/* 2 values pushed */
9 19 
MIAP[0]\011/* MoveIndirectAbsPt */
EIF[ ]\011/* EndIf */
PUSHW[ ]\011/* 1 value pushed */
6 
RCVT[ ]\011/* ReadCVT */
IF[ ]\011/* If */
PUSHW[ ]\011/* 1 value pushed */
1 
MDAP[1]\011/* MoveDirectAbsPt */
ELSE[ ]\011/* Else */
PUSHW[ ]\011/* 2 values pushed */
1 15 
MIAP[0]\011/* MoveIndirectAbsPt */
EIF[ ]\011/* EndIf */
PUSHW[ ]\011/* 1 value pushed */
9 
SRP0[ ]\011/* SetRefPoint0 */
PUSHW[ ]\011/* 2 values pushed */
7 8 
MIRP[10100]\011/* MoveIndirectRelPt */
IUP[0]\011/* InterpolateUntPts */
IUP[1]\011/* InterpolateUntPts */";
};
width = 93;
},
{
layerId = "DBA696BD-A337-48FC-9DA1-CD58B2C81FFB";
paths = (
{
closed = 1;
nodes = (
"-47 49 LINE",
"70 600 LINE",
"82 600 LINE",
"-65 -90 LINE",
"-77 -90 LINE"
);
},
{
closed = 1;
nodes = (
"101 690 LINE",
"89 690 LINE",
"72 612 LINE",
"84 612 LINE"
);
}
);
width = 24;
}
);
note = j;
unicode = 006A;
},
{
color = 4;
glyphname = k;
lastChange = "2020-09-26 15:36:27 +0000";
layers = (
{
guideLines = (
{
angle = 270;
position = "{22, 420}";
}
);
hints = (
{
horizontal = 1;
origin = "{0, 15}";
target = up;
type = BottomGhost;
},
{
horizontal = 1;
origin = "{0, 7}";
target = "{0, 12}";
type = Stem;
},
{
horizontal = 1;
origin = "{0, 10}";
target = up;
type = BottomGhost;
},
{
horizontal = 1;
origin = "{0, 14}";
target = down;
type = TopGhost;
},
{
horizontal = 1;
origin = "{0, 1}";
target = "{0, 6}";
type = Stem;
}
);
layerId = "B64BEB12-03E1-41C2-8D0F-395888C0A328";
paths = (
{
closed = 1;
nodes = (
"22 0 LINE",
"87 308 LINE",
"99 308 LINE",
"34 0 LINE",
"114 0 LINE",
"186 339 LINE",
"153 339 LINE",
"156 351 LINE",
"189 351 LINE",
"242 600 LINE",
"162 600 LINE",
"115 383 LINE",
"103 383 LINE",
"177 730 LINE",
"97 730 LINE",
"-58 0 LINE"
);
}
);
userData = {
assembly = "PUSHW[ ]\011/* 1 value pushed */
10 
CALL[ ]\011/* CallFunction */
PUSHW[ ]\011/* 4 values pushed */
4 9 5 14 
CALL[ ]\011/* CallFunction */
PUSHW[ ]\011/* 1 value pushed */
4 
SRP0[ ]\011/* SetRefPoint0 */
PUSHW[ ]\011/* 1 value pushed */
7 
MDRP[10000]\011/* MoveDirectRelPt */
SVTCA[0]\011/* SetFreedomAndProjectionVectorToAxis */
PUSHW[ ]\011/* 1 value pushed */
6 
RCVT[ ]\011/* ReadCVT */
IF[ ]\011/* If */
PUSHW[ ]\011/* 1 value pushed */
6 
MDAP[1]\011/* MoveDirectAbsPt */
ELSE[ ]\011/* Else */
PUSHW[ ]\011/* 2 values pushed */
6 19 
MIAP[0]\011/* MoveIndirectAbsPt */
EIF[ ]\011/* EndIf */
PUSHW[ ]\011/* 1 value pushed */
6 
RCVT[ ]\011/* ReadCVT */
IF[ ]\011/* If */
PUSHW[ ]\011/* 1 value pushed */
9 
MDAP[1]\011/* MoveDirectAbsPt */
ELSE[ ]\011/* Else */
PUSHW[ ]\011/* 2 values pushed */
9 17 
MIAP[0]\011/* MoveIndirectAbsPt */
EIF[ ]\011/* EndIf */
PUSHW[ ]\011/* 1 value pushed */
6 
RCVT[ ]\011/* ReadCVT */
IF[ ]\011/* If */
PUSHW[ ]\011/* 1 value pushed */
1 
MDAP[1]\011/* MoveDirectAbsPt */
ELSE[ ]\011/* Else */
PUSHW[ ]\011/* 2 values pushed */
1 13 
MIAP[0]\011/* MoveIndirectAbsPt */
EIF[ ]\011/* EndIf */
PUSHW[ ]\011/* 1 value pushed */
6 
RCVT[ ]\011/* ReadCVT */
IF[ ]\011/* If */
PUSHW[ ]\011/* 1 value pushed */
4 
MDAP[1]\011/* MoveDirectAbsPt */
ELSE[ ]\011/* Else */
PUSHW[ ]\011/* 2 values pushed */
4 13 
MIAP[0]\011/* MoveIndirectAbsPt */
EIF[ ]\011/* EndIf */
PUSHW[ ]\011/* 3 values pushed */
3 1 6 
SRP1[ ]\011/* SetRefPoint1 */
SRP2[ ]\011/* SetRefPoint2 */
IP[ ]\011/* InterpolatePts */
PUSHW[ ]\011/* 3 values pushed */
8 1 6 
SRP1[ ]\011/* SetRefPoint1 */
SRP2[ ]\011/* SetRefPoint2 */
IP[ ]\011/* InterpolatePts */
IUP[0]\011/* InterpolateUntPts */
IUP[1]\011/* InterpolateUntPts */";
};
width = 184;
},
{
hints = (
{
horizontal = 1;
origin = "{0, 15}";
target = up;
type = BottomGhost;
},
{
horizontal = 1;
origin = "{0, 1}";
target = "{0, 12}";
type = Stem;
},
{
horizontal = 1;
origin = "{0, 10}";
target = up;
type = BottomGhost;
},
{
horizontal = 1;
origin = "{0, 14}";
target = down;
type = TopGhost;
},
{
place = "{30, 7}";
type = Stem;
}
);
layerId = "DBA696BD-A337-48FC-9DA1-CD58B2C81FFB";
paths = (
{
closed = 1;
nodes = (
"-46 0 LINE",
"18 300 LINE",
"30 300 LINE",
"-34 0 LINE",
"-22 0 LINE",
"42 300 LINE",
"36 300 LINE",
"38 311 LINE",
"44 311 LINE",
"106 600 LINE",
"94 600 LINE",
"32 311 LINE",
"20 311 LINE",
"101 690 LINE",
"89 690 LINE",
"-58 0 LINE"
);
}
);
width = 48;
}
);
note = k;
unicode = 006B;
},
{
color = 4;
glyphname = l;
lastChange = "2020-09-26 15:39:24 +0000";
layers = (
{
hints = (
{
horizontal = 1;
origin = "{0, 3}";
target = up;
type = BottomGhost;
},
{
horizontal = 1;
origin = "{0, 2}";
target = down;
type = TopGhost;
},
{
origin = "{0, 3}";
target = "{0, 1}";
type = Stem;
}
);
layerId = "B64BEB12-03E1-41C2-8D0F-395888C0A328";
paths = (
{
closed = 1;
nodes = (
"22 0 LINE",
"177 730 LINE",
"97 730 LINE",
"-58 0 LINE"
);
}
);
userData = {
assembly = "PUSHW[ ]\011/* 4 values pushed */
0 1 1 4 
CALL[ ]\011/* CallFunction */
SVTCA[0]\011/* SetFreedomAndProjectionVectorToAxis */
PUSHW[ ]\011/* 1 value pushed */
2 
MDAP[1]\011/* MoveDirectAbsPt */
PUSHW[ ]\011/* 1 value pushed */
0 
RCVT[ ]\011/* ReadCVT */
IF[ ]\011/* If */
PUSHW[ ]\011/* 1 value pushed */
0 
MDAP[1]\011/* MoveDirectAbsPt */
ELSE[ ]\011/* Else */
PUSHW[ ]\011/* 2 values pushed */
0 2 
MIAP[0]\011/* MoveIndirectAbsPt */
EIF[ ]\011/* EndIf */
IUP[0]\011/* InterpolateUntPts */
IUP[1]\011/* InterpolateUntPts */";
};
width = 92;
},
{
hints = (
{
horizontal = 1;
origin = "{0, 3}";
target = up;
type = BottomGhost;
},
{
horizontal = 1;
origin = "{0, 2}";
target = down;
type = TopGhost;
}
);
layerId = "DBA696BD-A337-48FC-9DA1-CD58B2C81FFB";
paths = (
{
closed = 1;
nodes = (
"-46 0 LINE",
"101 690 LINE",
"89 690 LINE",
"-58 0 LINE"
);
}
);
width = 24;
}
);
note = l;
unicode = 006C;
},
{
color = 4;
glyphname = m;
lastChange = "2020-09-26 15:38:19 +0000";
layers = (
{
hints = (
{
horizontal = 1;
origin = "{0, 9}";
target = up;
type = BottomGhost;
},
{
horizontal = 1;
origin = "{0, 8}";
target = "{0, 11}";
type = Stem;
},
{
horizontal = 1;
origin = "{0, 11}";
target = "{0, 6}";
type = Stem;
},
{
horizontal = 1;
origin = "{0, 8}";
target = "{0, 19}";
type = Stem;
}
);
layerId = "B64BEB12-03E1-41C2-8D0F-395888C0A328";
paths = (
{
closed = 1;
nodes = (
"254 600 LINE",
"248 575 LINE",
"236 575 LINE",
"242 600 LINE",
"162 600 LINE",
"156 575 LINE",
"144 575 LINE",
"150 600 LINE",
"70 600 LINE",
"-58 0 LINE",
"22 0 LINE",
"134 525 LINE",
"146 525 LINE",
"34 0 LINE",
"114 0 LINE",
"226 525 LINE",
"238 525 LINE",
"126 0 LINE",
"206 0 LINE",
"324 555 LINE",
"295 600 LINE"
);
}
);
userData = {
assembly = "PUSHW[ ]\011/* 1 value pushed */
10 
CALL[ ]\011/* CallFunction */
PUSHW[ ]\011/* 1 value pushed */
19 
MDAP[1]\011/* MoveDirectAbsPt */
PUSHW[ ]\011/* 1 value pushed */
11 
MDRP[10000]\011/* MoveDirectRelPt */
PUSHW[ ]\011/* 1 value pushed */
11 
MDAP[1]\011/* MoveDirectAbsPt */
PUSHW[ ]\011/* 1 value pushed */
7 
MDRP[11100]\011/* MoveDirectRelPt */
NPUSHW[ ]\011/* 3 values pushed */
111 7 1 
DELTAP1[ ]\011/* DeltaExceptionP1 */
PUSHW[ ]\011/* 1 value pushed */
3 
MDRP[11100]\011/* MoveDirectRelPt */
NPUSHW[ ]\011/* 3 values pushed */
111 3 1 
DELTAP1[ ]\011/* DeltaExceptionP1 */
PUSHW[ ]\011/* 2 values pushed */
2 9 
MIRP[10100]\011/* MoveIndirectRelPt */
PUSHW[ ]\011/* 1 value pushed */
7 
SRP0[ ]\011/* SetRefPoint0 */
PUSHW[ ]\011/* 2 values pushed */
6 9 
MIRP[10100]\011/* MoveIndirectRelPt */
PUSHW[ ]\011/* 1 value pushed */
11 
SRP0[ ]\011/* SetRefPoint0 */
PUSHW[ ]\011/* 2 values pushed */
10 9 
MIRP[10100]\011/* MoveIndirectRelPt */
PUSHW[ ]\011/* 1 value pushed */
14 
MDRP[10000]\011/* MoveDirectRelPt */
PUSHW[ ]\011/* 1 value pushed */
7 
SRP0[ ]\011/* SetRefPoint0 */
PUSHW[ ]\011/* 1 value pushed */
15 
MDRP[10000]\011/* MoveDirectRelPt */
PUSHW[ ]\011/* 1 value pushed */
15 
MDAP[1]\011/* MoveDirectAbsPt */
PUSHW[ ]\011/* 1 value pushed */
6 
SRP0[ ]\011/* SetRefPoint0 */
PUSHW[ ]\011/* 1 value pushed */
17 
MDRP[10000]\011/* MoveDirectRelPt */
PUSHW[ ]\011/* 1 value pushed */
3 
SRP0[ ]\011/* SetRefPoint0 */
PUSHW[ ]\011/* 1 value pushed */
18 
MDRP[10000]\011/* MoveDirectRelPt */
PUSHW[ ]\011/* 1 value pushed */
18 
MDAP[1]\011/* MoveDirectAbsPt */
PUSHW[ ]\011/* 1 value pushed */
2 
SRP0[ ]\011/* SetRefPoint0 */
PUSHW[ ]\011/* 1 value pushed */
20 
MDRP[11100]\011/* MoveDirectRelPt */
SVTCA[0]\011/* SetFreedomAndProjectionVectorToAxis */
PUSHW[ ]\011/* 1 value pushed */
6 
RCVT[ ]\011/* ReadCVT */
IF[ ]\011/* If */
PUSHW[ ]\011/* 1 value pushed */
0 
MDAP[1]\011/* MoveDirectAbsPt */
ELSE[ ]\011/* Else */
PUSHW[ ]\011/* 2 values pushed */
0 17 
MIAP[0]\011/* MoveIndirectAbsPt */
EIF[ ]\011/* EndIf */
PUSHW[ ]\011/* 1 value pushed */
6 
RCVT[ ]\011/* ReadCVT */
IF[ ]\011/* If */
PUSHW[ ]\011/* 1 value pushed */
12 
MDAP[1]\011/* MoveDirectAbsPt */
ELSE[ ]\011/* Else */
PUSHW[ ]\011/* 2 values pushed */
12 17 
MIAP[0]\011/* MoveIndirectAbsPt */
EIF[ ]\011/* EndIf */
PUSHW[ ]\011/* 1 value pushed */
6 
RCVT[ ]\011/* ReadCVT */
IF[ ]\011/* If */
PUSHW[ ]\011/* 1 value pushed */
15 
MDAP[1]\011/* MoveDirectAbsPt */
ELSE[ ]\011/* Else */
PUSHW[ ]\011/* 2 values pushed */
15 17 
MIAP[0]\011/* MoveIndirectAbsPt */
EIF[ ]\011/* EndIf */
PUSHW[ ]\011/* 1 value pushed */
6 
RCVT[ ]\011/* ReadCVT */
IF[ ]\011/* If */
PUSHW[ ]\011/* 1 value pushed */
2 
MDAP[1]\011/* MoveDirectAbsPt */
ELSE[ ]\011/* Else */
PUSHW[ ]\011/* 2 values pushed */
2 13 
MIAP[0]\011/* MoveIndirectAbsPt */
EIF[ ]\011/* EndIf */
PUSHW[ ]\011/* 1 value pushed */
6 
RCVT[ ]\011/* ReadCVT */
IF[ ]\011/* If */
PUSHW[ ]\011/* 1 value pushed */
6 
MDAP[1]\011/* MoveDirectAbsPt */
ELSE[ ]\011/* Else */
PUSHW[ ]\011/* 2 values pushed */
6 13 
MIAP[0]\011/* MoveIndirectAbsPt */
EIF[ ]\011/* EndIf */
PUSHW[ ]\011/* 1 value pushed */
6 
RCVT[ ]\011/* ReadCVT */
IF[ ]\011/* If */
PUSHW[ ]\011/* 1 value pushed */
10 
MDAP[1]\011/* MoveDirectAbsPt */
ELSE[ ]\011/* Else */
PUSHW[ ]\011/* 2 values pushed */
10 13 
MIAP[0]\011/* MoveIndirectAbsPt */
EIF[ ]\011/* EndIf */
PUSHW[ ]\011/* 3 values pushed */
14 2 0 
SRP1[ ]\011/* SetRefPoint1 */
SRP2[ ]\011/* SetRefPoint2 */
IP[ ]\011/* InterpolatePts */
PUSHW[ ]\011/* 3 values pushed */
17 2 0 
SRP1[ ]\011/* SetRefPoint1 */
SRP2[ ]\011/* SetRefPoint2 */
IP[ ]\011/* InterpolatePts */
IUP[0]\011/* InterpolateUntPts */
IUP[1]\011/* InterpolateUntPts */";
};
width = 276;
},
{
hints = (
{
horizontal = 1;
origin = "{0, 9}";
target = up;
type = BottomGhost;
},
{
horizontal = 1;
origin = "{0, 8}";
target = "{0, 11}";
type = Stem;
}
);
layerId = "DBA696BD-A337-48FC-9DA1-CD58B2C81FFB";
paths = (
{
closed = 1;
nodes = (
"118 600 LINE",
"118 600 LINE",
"106 600 LINE",
"106 600 LINE",
"94 600 LINE",
"94 600 LINE",
"82 600 LINE",
"82 600 LINE",
"70 600 LINE",
"-58 0 LINE",
"-46 0 LINE",
"79 589 LINE",
"91 589 LINE",
"-34 0 LINE",
"-22 0 LINE",
"103 589 LINE",
"115 589 LINE",
"-10 0 LINE",
"2 0 LINE",
"129 592 LINE",
"123 600 LINE"
);
}
);
width = 72;
}
);
note = m;
unicode = 006D;
},
{
color = 4;
glyphname = n;
lastChange = "2020-09-26 14:40:36 +0000";
layers = (
{
hints = (
{
horizontal = 1;
origin = "{0, 11}";
target = up;
type = BottomGhost;
},
{
horizontal = 1;
origin = "{0, 10}";
target = "{0, 0}";
type = Stem;
},
{
horizontal = 1;
origin = "{0, 10}";
target = "{0, 4}";
type = Stem;
},
{
horizontal = 1;
origin = "{0, 0}";
target = "{0, 8}";
type = Stem;
}
);
layerId = "B64BEB12-03E1-41C2-8D0F-395888C0A328";
paths = (
{
closed = 1;
nodes = (
"134 525 LINE",
"146 525 LINE",
"34 0 LINE",
"114 0 LINE",
"232 555 LINE",
"203 600 LINE",
"162 600 LINE",
"156 575 LINE",
"144 575 LINE",
"150 600 LINE",
"70 600 LINE",
"-58 0 LINE",
"22 0 LINE"
);
}
);
userData = {
assembly = "PUSHW[ ]\011/* 1 value pushed */
12 
MDAP[1]\011/* MoveDirectAbsPt */
PUSHW[ ]\011/* 1 value pushed */
9 
MDAP[1]\011/* MoveDirectAbsPt */
PUSHW[ ]\011/* 1 value pushed */
12 
SRP0[ ]\011/* SetRefPoint0 */
PUSHW[ ]\011/* 1 value pushed */
1 
MDRP[10000]\011/* MoveDirectRelPt */
PUSHW[ ]\011/* 1 value pushed */
1 
MDAP[1]\011/* MoveDirectAbsPt */
PUSHW[ ]\011/* 2 values pushed */
0 1 
MIRP[10100]\011/* MoveIndirectRelPt */
PUSHW[ ]\011/* 1 value pushed */
4 
MDRP[10000]\011/* MoveDirectRelPt */
PUSHW[ ]\011/* 1 value pushed */
9 
SRP0[ ]\011/* SetRefPoint0 */
PUSHW[ ]\011/* 1 value pushed */
5 
MDRP[10000]\011/* MoveDirectRelPt */
PUSHW[ ]\011/* 1 value pushed */
5 
MDAP[1]\011/* MoveDirectAbsPt */
PUSHW[ ]\011/* 1 value pushed */
9 
SRP0[ ]\011/* SetRefPoint0 */
PUSHW[ ]\011/* 2 values pushed */
8 1 
MIRP[10100]\011/* MoveIndirectRelPt */
PUSHW[ ]\011/* 1 value pushed */
13 
MDRP[11100]\011/* MoveDirectRelPt */
SVTCA[0]\011/* SetFreedomAndProjectionVectorToAxis */
PUSHW[ ]\011/* 1 value pushed */
2 
MDAP[1]\011/* MoveDirectAbsPt */
PUSHW[ ]\011/* 1 value pushed */
5 
MDAP[1]\011/* MoveDirectAbsPt */
PUSHW[ ]\011/* 1 value pushed */
0 
RCVT[ ]\011/* ReadCVT */
IF[ ]\011/* If */
PUSHW[ ]\011/* 1 value pushed */
0 
MDAP[1]\011/* MoveDirectAbsPt */
ELSE[ ]\011/* Else */
PUSHW[ ]\011/* 2 values pushed */
0 2 
MIAP[0]\011/* MoveIndirectAbsPt */
EIF[ ]\011/* EndIf */
PUSHW[ ]\011/* 1 value pushed */
0 
RCVT[ ]\011/* ReadCVT */
IF[ ]\011/* If */
PUSHW[ ]\011/* 1 value pushed */
8 
MDAP[1]\011/* MoveDirectAbsPt */
ELSE[ ]\011/* Else */
PUSHW[ ]\011/* 2 values pushed */
8 2 
MIAP[0]\011/* MoveIndirectAbsPt */
EIF[ ]\011/* EndIf */
PUSHW[ ]\011/* 3 values pushed */
4 0 2 
SRP1[ ]\011/* SetRefPoint1 */
SRP2[ ]\011/* SetRefPoint2 */
IP[ ]\011/* InterpolatePts */
IUP[0]\011/* InterpolateUntPts */
IUP[1]\011/* InterpolateUntPts */";
};
width = 184;
},
{
background = {
hints = (
{
horizontal = 1;
origin = "{0, 11}";
target = up;
type = BottomGhost;
},
{
horizontal = 1;
origin = "{0, 10}";
target = "{0, 0}";
type = Stem;
}
);
paths = (
{
closed = 1;
nodes = (
"79 589 LINE",
"91 589 LINE",
"-34 0 LINE",
"-22 0 LINE",
"104 592 LINE",
"98 600 LINE",
"94 600 LINE",
"94 600 LINE",
"82 600 LINE",
"82 600 LINE",
"70 600 LINE",
"-58 0 LINE",
"-46 0 LINE"
);
}
);
};
hints = (
{
horizontal = 1;
origin = "{0, 11}";
target = up;
type = BottomGhost;
},
{
horizontal = 1;
origin = "{0, 10}";
target = "{0, 0}";
type = Stem;
}
);
layerId = "DBA696BD-A337-48FC-9DA1-CD58B2C81FFB";
paths = (
{
closed = 1;
nodes = (
"79 589 LINE",
"91 589 LINE",
"-34 0 LINE",
"-22 0 LINE",
"104 592 LINE",
"98 600 LINE",
"94 600 LINE",
"94 600 LINE",
"82 600 LINE",
"82 600 LINE",
"70 600 LINE",
"-58 0 LINE",
"-46 0 LINE"
);
}
);
width = 48;
}
);
note = n;
unicode = 006E;
},
{
color = 4;
glyphname = o;
lastChange = "2020-09-26 15:39:40 +0000";
layers = (
{
hints = (
{
horizontal = 1;
origin = "{0, 3}";
target = "{1, 1}";
type = Stem;
},
{
horizontal = 1;
origin = "{0, 0}";
target = "{1, 2}";
type = Stem;
},
{
horizontal = 1;
origin = "{0, 0}";
target = "{0, 1}";
type = Stem;
}
);
layerId = "B64BEB12-03E1-41C2-8D0F-395888C0A328";
paths = (
{
closed = 1;
nodes = (
"109 600 LINE",
"60 555 LINE",
"-48 45 LINE",
"-19 0 LINE",
"75 0 LINE",
"124 45 LINE",
"232 555 LINE",
"202 600 LINE"
);
},
{
closed = 1;
nodes = (
"50 75 LINE",
"38 75 LINE",
"134 525 LINE",
"146 525 LINE"
);
}
);
userData = {
assembly = "PUSHW[ ]\011/* 1 value pushed */
10 
CALL[ ]\011/* CallFunction */
PUSHW[ ]\011/* 1 value pushed */
12 
MDAP[1]\011/* MoveDirectAbsPt */
PUSHW[ ]\011/* 1 value pushed */
8 
MDAP[1]\011/* MoveDirectAbsPt */
PUSHW[ ]\011/* 2 values pushed */
1 9 
MIRP[10100]\011/* MoveIndirectRelPt */
PUSHW[ ]\011/* 1 value pushed */
12 
SRP0[ ]\011/* SetRefPoint0 */
PUSHW[ ]\011/* 1 value pushed */
5 
MDRP[10000]\011/* MoveDirectRelPt */
PUSHW[ ]\011/* 1 value pushed */
5 
MDAP[1]\011/* MoveDirectAbsPt */
PUSHW[ ]\011/* 2 values pushed */
10 9 
MIRP[10100]\011/* MoveIndirectRelPt */
PUSHW[ ]\011/* 1 value pushed */
1 
SRP0[ ]\011/* SetRefPoint0 */
PUSHW[ ]\011/* 1 value pushed */
13 
MDRP[11100]\011/* MoveDirectRelPt */
SVTCA[0]\011/* SetFreedomAndProjectionVectorToAxis */
PUSHW[ ]\011/* 1 value pushed */
6 
RCVT[ ]\011/* ReadCVT */
IF[ ]\011/* If */
PUSHW[ ]\011/* 1 value pushed */
0 
MDAP[1]\011/* MoveDirectAbsPt */
ELSE[ ]\011/* Else */
PUSHW[ ]\011/* 2 values pushed */
0 17 
MIAP[0]\011/* MoveIndirectAbsPt */
EIF[ ]\011/* EndIf */
PUSHW[ ]\011/* 1 value pushed */
6 
RCVT[ ]\011/* ReadCVT */
IF[ ]\011/* If */
PUSHW[ ]\011/* 1 value pushed */
3 
MDAP[1]\011/* MoveDirectAbsPt */
ELSE[ ]\011/* Else */
PUSHW[ ]\011/* 2 values pushed */
3 13 
MIAP[0]\011/* MoveIndirectAbsPt */
EIF[ ]\011/* EndIf */
IUP[0]\011/* InterpolateUntPts */
IUP[1]\011/* InterpolateUntPts */";
};
width = 184;
},
{
hints = (
{
horizontal = 1;
origin = "{0, 3}";
target = "{1, 1}";
type = Stem;
},
{
horizontal = 1;
origin = "{0, 0}";
target = "{1, 2}";
type = Stem;
}
);
layerId = "DBA696BD-A337-48FC-9DA1-CD58B2C81FFB";
paths = (
{
closed = 1;
nodes = (
"78 600 LINE",
"68 592 LINE",
"-56 8 LINE",
"-50 0 LINE",
"-30 0 LINE",
"-20 8 LINE",
"104 592 LINE",
"98 600 LINE"
);
},
{
closed = 1;
nodes = (
"-31 11 LINE",
"-43 11 LINE",
"79 589 LINE",
"91 589 LINE"
);
}
);
width = 48;
}
);
note = o;
unicode = 006F;
},
{
color = 4;
glyphname = oslash;
lastChange = "2020-10-01 15:49:44 +0000";
layers = (
{
components = (
{
name = o;
}
);
layerId = "B64BEB12-03E1-41C2-8D0F-395888C0A328";
paths = (
{
closed = 1;
nodes = (
"-14 -12 LINE",
"66 -12 LINE",
"84 75 LINE",
"4 75 LINE"
);
},
{
closed = 1;
nodes = (
"102 540 LINE",
"182 540 LINE",
"198 612 LINE",
"118 612 LINE"
);
},
{
closed = 1;
nodes = (
"41 263 LINE",
"121 263 LINE",
"137 338 LINE",
"57 338 LINE"
);
}
);
width = 184;
},
{
components = (
{
name = o;
}
);
layerId = "DBA696BD-A337-48FC-9DA1-CD58B2C81FFB";
paths = (
{
closed = 1;
nodes = (
"-49 -12 LINE",
"-37 -12 LINE",
"-32 11 LINE",
"-44 11 LINE"
);
},
{
closed = 1;
nodes = (
"79 589 LINE",
"91 589 LINE",
"96 612 LINE",
"84 612 LINE"
);
},
{
closed = 1;
nodes = (
"5 295 LINE",
"39 295 LINE",
"42 307 LINE",
"8 307 LINE"
);
}
);
width = 48;
}
);
unicode = 00F8;
},
{
color = 4;
glyphname = oe;
lastChange = "2020-09-16 15:35:06 +0000";
layers = (
{
layerId = "B64BEB12-03E1-41C2-8D0F-395888C0A328";
paths = (
{
closed = 1;
nodes = (
"109 600 LINE",
"60 555 LINE",
"-48 45 LINE",
"-19 0 LINE",
"75 0 LINE",
"124 45 LINE",
"232 555 LINE",
"202 600 LINE"
);
},
{
closed = 1;
nodes = (
"50 75 LINE",
"38 75 LINE",
"134 525 LINE",
"146 525 LINE"
);
},
{
closed = 1;
nodes = (
"201 600 LINE",
"152 555 LINE",
"44 45 LINE",
"73 0 LINE",
"167 0 LINE",
"216 45 LINE",
"268 288 LINE",
"188 288 LINE",
"142 75 LINE",
"130 75 LINE",
"178 300 LINE",
"270 300 LINE",
"324 555 LINE",
"294 600 LINE"
);
},
{
closed = 1;
nodes = (
"226 525 LINE",
"238 525 LINE",
"206 375 LINE",
"194 375 LINE"
);
}
);
width = 277;
},
{
layerId = "DBA696BD-A337-48FC-9DA1-CD58B2C81FFB";
paths = (
{
closed = 1;
nodes = (
"78 600 LINE",
"68 592 LINE",
"-56 8 LINE",
"-50 0 LINE",
"-30 0 LINE",
"-22 0 LINE",
"106 600 LINE",
"98 600 LINE"
);
},
{
closed = 1;
nodes = (
"-31 11 LINE",
"-43 11 LINE",
"79 589 LINE",
"91 589 LINE"
);
},
{
closed = 1;
nodes = (
"102 600 LINE",
"94 600 LINE",
"-34 0 LINE",
"-26 0 LINE",
"-6 0 LINE",
"4 8 LINE",
"64 288 LINE",
"52 288 LINE",
"-7 11 LINE",
"-19 11 LINE",
"42 300 LINE",
"66 300 LINE",
"128 592 LINE",
"122 600 LINE"
);
},
{
closed = 1;
nodes = (
"103 589 LINE",
"115 589 LINE",
"56 311 LINE",
"44 311 LINE"
);
}
);
width = 73;
}
);
unicode = 0153;
},
{
color = 4;
glyphname = p;
lastChange = "2020-09-26 15:38:23 +0000";
layers = (
{
hints = (
{
horizontal = 1;
origin = "{0, 8}";
target = up;
type = BottomGhost;
},
{
horizontal = 1;
origin = "{0, 12}";
target = "{1, 1}";
type = Stem;
},
{
horizontal = 1;
origin = "{0, 7}";
target = "{1, 2}";
type = Stem;
},
{
horizontal = 1;
origin = "{1, 2}";
target = "{0, 5}";
type = Stem;
},
{
horizontal = 1;
origin = "{0, 10}";
target = "{1, 1}";
type = Stem;
}
);
layerId = "B64BEB12-03E1-41C2-8D0F-395888C0A328";
paths = (
{
closed = 1;
nodes = (
"124 45 LINE",
"233 555 LINE",
"203 600 LINE",
"162 600 LINE",
"157 575 LINE",
"145 575 LINE",
"150 600 LINE",
"70 600 LINE",
"-85 -130 LINE",
"-5 -130 LINE",
"28 25 LINE",
"40 25 LINE",
"35 0 LINE",
"76 0 LINE"
);
},
{
closed = 1;
nodes = (
"51 75 LINE",
"39 75 LINE",
"134 525 LINE",
"146 525 LINE"
);
}
);
userData = {
assembly = "PUSHW[ ]\011/* 1 value pushed */
10 
CALL[ ]\011/* CallFunction */
PUSHW[ ]\011/* 1 value pushed */
16 
MDAP[1]\011/* MoveDirectAbsPt */
PUSHW[ ]\011/* 1 value pushed */
12 
MDAP[1]\011/* MoveDirectAbsPt */
PUSHW[ ]\011/* 1 value pushed */
1 
MDRP[10000]\011/* MoveDirectRelPt */
PUSHW[ ]\011/* 1 value pushed */
1 
MDAP[1]\011/* MoveDirectAbsPt */
PUSHW[ ]\011/* 1 value pushed */
16 
SRP0[ ]\011/* SetRefPoint0 */
PUSHW[ ]\011/* 1 value pushed */
4 
MDRP[10000]\011/* MoveDirectRelPt */
PUSHW[ ]\011/* 1 value pushed */
4 
MDAP[1]\011/* MoveDirectAbsPt */
PUSHW[ ]\011/* 2 values pushed */
3 9 
MIRP[10100]\011/* MoveIndirectRelPt */
PUSHW[ ]\011/* 1 value pushed */
7 
MDRP[10000]\011/* MoveDirectRelPt */
PUSHW[ ]\011/* 1 value pushed */
12 
SRP0[ ]\011/* SetRefPoint0 */
PUSHW[ ]\011/* 1 value pushed */
8 
MDRP[10000]\011/* MoveDirectRelPt */
PUSHW[ ]\011/* 1 value pushed */
8 
MDAP[1]\011/* MoveDirectAbsPt */
PUSHW[ ]\011/* 1 value pushed */
12 
SRP0[ ]\011/* SetRefPoint0 */
PUSHW[ ]\011/* 2 values pushed */
10 9 
MIRP[10100]\011/* MoveIndirectRelPt */
PUSHW[ ]\011/* 1 value pushed */
3 
SRP0[ ]\011/* SetRefPoint0 */
PUSHW[ ]\011/* 1 value pushed */
13 
MDRP[10000]\011/* MoveDirectRelPt */
PUSHW[ ]\011/* 1 value pushed */
10 
SRP0[ ]\011/* SetRefPoint0 */
PUSHW[ ]\011/* 1 value pushed */
17 
MDRP[11100]\011/* MoveDirectRelPt */
SVTCA[0]\011/* SetFreedomAndProjectionVectorToAxis */
PUSHW[ ]\011/* 1 value pushed */
6 
RCVT[ ]\011/* ReadCVT */
IF[ ]\011/* If */
PUSHW[ ]\011/* 1 value pushed */
5 
MDAP[1]\011/* MoveDirectAbsPt */
ELSE[ ]\011/* Else */
PUSHW[ ]\011/* 2 values pushed */
5 17 
MIAP[0]\011/* MoveIndirectAbsPt */
EIF[ ]\011/* EndIf */
PUSHW[ ]\011/* 1 value pushed */
6 
RCVT[ ]\011/* ReadCVT */
IF[ ]\011/* If */
PUSHW[ ]\011/* 1 value pushed */
8 
MDAP[1]\011/* MoveDirectAbsPt */
ELSE[ ]\011/* Else */
PUSHW[ ]\011/* 2 values pushed */
8 17 
MIAP[0]\011/* MoveIndirectAbsPt */
EIF[ ]\011/* EndIf */
PUSHW[ ]\011/* 1 value pushed */
6 
RCVT[ ]\011/* ReadCVT */
IF[ ]\011/* If */
PUSHW[ ]\011/* 1 value pushed */
3 
MDAP[1]\011/* MoveDirectAbsPt */
ELSE[ ]\011/* Else */
PUSHW[ ]\011/* 2 values pushed */
3 15 
MIAP[0]\011/* MoveIndirectAbsPt */
EIF[ ]\011/* EndIf */
PUSHW[ ]\011/* 1 value pushed */
6 
RCVT[ ]\011/* ReadCVT */
IF[ ]\011/* If */
PUSHW[ ]\011/* 1 value pushed */
0 
MDAP[1]\011/* MoveDirectAbsPt */
ELSE[ ]\011/* Else */
PUSHW[ ]\011/* 2 values pushed */
0 13 
MIAP[0]\011/* MoveIndirectAbsPt */
EIF[ ]\011/* EndIf */
PUSHW[ ]\011/* 3 values pushed */
2 3 5 
SRP1[ ]\011/* SetRefPoint1 */
SRP2[ ]\011/* SetRefPoint2 */
IP[ ]\011/* InterpolatePts */
PUSHW[ ]\011/* 3 values pushed */
7 3 5 
SRP1[ ]\011/* SetRefPoint1 */
SRP2[ ]\011/* SetRefPoint2 */
IP[ ]\011/* InterpolatePts */
IUP[0]\011/* InterpolateUntPts */
IUP[1]\011/* InterpolateUntPts */";
};
width = 185;
},
{
hints = (
{
horizontal = 1;
origin = "{0, 8}";
target = up;
type = BottomGhost;
},
{
horizontal = 1;
origin = "{0, 10}";
target = "{1, 1}";
type = Stem;
},
{
horizontal = 1;
origin = "{0, 7}";
target = "{1, 2}";
type = Stem;
}
);
layerId = "DBA696BD-A337-48FC-9DA1-CD58B2C81FFB";
paths = (
{
closed = 1;
nodes = (
"-20 8 LINE",
"104 592 LINE",
"98 600 LINE",
"94 600 LINE",
"94 600 LINE",
"82 600 LINE",
"82 600 LINE",
"70 600 LINE",
"-77 -90 LINE",
"-65 -90 LINE",
"-46 0 LINE",
"-34 0 LINE",
"-34 0 LINE",
"-30 0 LINE"
);
},
{
closed = 1;
nodes = (
"-32 11 LINE",
"-44 11 LINE",
"79 589 LINE",
"91 589 LINE"
);
}
);
width = 48;
}
);
note = p;
unicode = 0070;
},
{
color = 4;
glyphname = thorn;
lastChange = "2020-09-16 15:35:06 +0000";
layers = (
{
layerId = "B64BEB12-03E1-41C2-8D0F-395888C0A328";
paths = (
{
closed = 1;
nodes = (
"114 -2 LINE",
"223 508 LINE",
"193 553 LINE",
"149 553 LINE",
"159 600 LINE",
"70 600 LINE",
"-85 -130 LINE",
"-6 -130 LINE",
"16 -28 LINE",
"12 -47 LINE",
"66 -47 LINE"
);
},
{
closed = 1;
nodes = (
"41 28 LINE",
"29 28 LINE",
"124 478 LINE",
"136 478 LINE"
);
}
);
width = 185;
},
{
layerId = "DBA696BD-A337-48FC-9DA1-CD58B2C81FFB";
paths = (
{
closed = 1;
nodes = (
"-16 29 LINE",
"95 549 LINE",
"89 557 LINE",
"73 557 LINE",
"82 600 LINE",
"70 600 LINE",
"-77 -90 LINE",
"-65 -90 LINE",
"-37 40 LINE",
"-41 21 LINE",
"-25 21 LINE"
);
},
{
closed = 1;
nodes = (
"-27 32 LINE",
"-39 32 LINE",
"70 546 LINE",
"82 546 LINE"
);
}
);
width = 48;
}
);
unicode = 00FE;
},
{
color = 4;
glyphname = q;
lastChange = "2020-09-26 15:19:09 +0000";
layers = (
{
hints = (
{
horizontal = 1;
origin = "{0, 3}";
target = up;
type = BottomGhost;
},
{
horizontal = 1;
origin = "{0, 13}";
target = up;
type = BottomGhost;
},
{
horizontal = 1;
origin = "{0, 10}";
target = "{1, 3}";
type = Stem;
},
{
horizontal = 1;
origin = "{0, 1}";
target = "{1, 2}";
type = Stem;
},
{
horizontal = 1;
origin = "{1, 3}";
target = "{0, 8}";
type = Stem;
},
{
horizontal = 1;
origin = "{0, 13}";
target = "{1, 2}";
type = Stem;
}
);
layerId = "B64BEB12-03E1-41C2-8D0F-395888C0A328";
paths = (
{
closed = 1;
nodes = (
"22 0 LINE",
"28 25 LINE",
"40 25 LINE",
"7 -130 LINE",
"87 -130 LINE",
"242 600 LINE",
"162 600 LINE",
"157 575 LINE",
"145 575 LINE",
"150 600 LINE",
"109 600 LINE",
"60 555 LINE",
"-48 45 LINE",
"-19 0 LINE"
);
},
{
closed = 1;
nodes = (
"146 525 LINE",
"50 75 LINE",
"38 75 LINE",
"134 525 LINE"
);
}
);
userData = {
assembly = "PUSHW[ ]\011/* 1 value pushed */
10 
CALL[ ]\011/* CallFunction */
PUSHW[ ]\011/* 1 value pushed */
16 
MDAP[1]\011/* MoveDirectAbsPt */
PUSHW[ ]\011/* 1 value pushed */
4 
MDAP[1]\011/* MoveDirectAbsPt */
PUSHW[ ]\011/* 1 value pushed */
16 
SRP0[ ]\011/* SetRefPoint0 */
PUSHW[ ]\011/* 1 value pushed */
0 
MDRP[10000]\011/* MoveDirectRelPt */
PUSHW[ ]\011/* 1 value pushed */
0 
MDAP[1]\011/* MoveDirectAbsPt */
PUSHW[ ]\011/* 2 values pushed */
12 9 
MIRP[10100]\011/* MoveIndirectRelPt */
PUSHW[ ]\011/* 1 value pushed */
3 
MDRP[10000]\011/* MoveDirectRelPt */
PUSHW[ ]\011/* 1 value pushed */
3 
MDAP[1]\011/* MoveDirectAbsPt */
PUSHW[ ]\011/* 1 value pushed */
4 
SRP0[ ]\011/* SetRefPoint0 */
PUSHW[ ]\011/* 2 values pushed */
6 9 
MIRP[10100]\011/* MoveIndirectRelPt */
PUSHW[ ]\011/* 1 value pushed */
4 
SRP0[ ]\011/* SetRefPoint0 */
PUSHW[ ]\011/* 1 value pushed */
8 
MDRP[10000]\011/* MoveDirectRelPt */
PUSHW[ ]\011/* 1 value pushed */
12 
SRP0[ ]\011/* SetRefPoint0 */
PUSHW[ ]\011/* 1 value pushed */
10 
MDRP[10000]\011/* MoveDirectRelPt */
PUSHW[ ]\011/* 1 value pushed */
10 
MDAP[1]\011/* MoveDirectAbsPt */
PUSHW[ ]\011/* 1 value pushed */
4 
SRP0[ ]\011/* SetRefPoint0 */
PUSHW[ ]\011/* 1 value pushed */
13 
MDRP[10000]\011/* MoveDirectRelPt */
PUSHW[ ]\011/* 1 value pushed */
6 
SRP0[ ]\011/* SetRefPoint0 */
PUSHW[ ]\011/* 1 value pushed */
17 
MDRP[11100]\011/* MoveDirectRelPt */
SVTCA[0]\011/* SetFreedomAndProjectionVectorToAxis */
PUSHW[ ]\011/* 1 value pushed */
6 
RCVT[ ]\011/* ReadCVT */
IF[ ]\011/* If */
PUSHW[ ]\011/* 1 value pushed */
2 
MDAP[1]\011/* MoveDirectAbsPt */
ELSE[ ]\011/* Else */
PUSHW[ ]\011/* 2 values pushed */
2 17 
MIAP[0]\011/* MoveIndirectAbsPt */
EIF[ ]\011/* EndIf */
PUSHW[ ]\011/* 1 value pushed */
6 
RCVT[ ]\011/* ReadCVT */
IF[ ]\011/* If */
PUSHW[ ]\011/* 1 value pushed */
5 
MDAP[1]\011/* MoveDirectAbsPt */
ELSE[ ]\011/* Else */
PUSHW[ ]\011/* 2 values pushed */
5 17 
MIAP[0]\011/* MoveIndirectAbsPt */
EIF[ ]\011/* EndIf */
PUSHW[ ]\011/* 1 value pushed */
6 
RCVT[ ]\011/* ReadCVT */
IF[ ]\011/* If */
PUSHW[ ]\011/* 1 value pushed */
7 
MDAP[1]\011/* MoveDirectAbsPt */
ELSE[ ]\011/* Else */
PUSHW[ ]\011/* 2 values pushed */
7 15 
MIAP[0]\011/* MoveIndirectAbsPt */
EIF[ ]\011/* EndIf */
PUSHW[ ]\011/* 1 value pushed */
6 
RCVT[ ]\011/* ReadCVT */
IF[ ]\011/* If */
PUSHW[ ]\011/* 1 value pushed */
10 
MDAP[1]\011/* MoveDirectAbsPt */
ELSE[ ]\011/* Else */
PUSHW[ ]\011/* 2 values pushed */
10 13 
MIAP[0]\011/* MoveIndirectAbsPt */
EIF[ ]\011/* EndIf */
PUSHW[ ]\011/* 3 values pushed */
4 7 2 
SRP1[ ]\011/* SetRefPoint1 */
SRP2[ ]\011/* SetRefPoint2 */
IP[ ]\011/* InterpolatePts */
PUSHW[ ]\011/* 3 values pushed */
9 7 2 
SRP1[ ]\011/* SetRefPoint1 */
SRP2[ ]\011/* SetRefPoint2 */
IP[ ]\011/* InterpolatePts */
IUP[0]\011/* InterpolateUntPts */
IUP[1]\011/* InterpolateUntPts */";
};
width = 184;
},
{
hints = (
{
horizontal = 1;
origin = "{0, 3}";
target = up;
type = BottomGhost;
},
{
horizontal = 1;
origin = "{0, 13}";
target = "{1, 2}";
type = Stem;
},
{
horizontal = 1;
origin = "{0, 10}";
target = "{1, 3}";
type = Stem;
}
);
layerId = "DBA696BD-A337-48FC-9DA1-CD58B2C81FFB";
paths = (
{
closed = 1;
nodes = (
"-46 0 LINE",
"-46 0 LINE",
"-34 0 LINE",
"-53 -90 LINE",
"-41 -90 LINE",
"106 600 LINE",
"94 600 LINE",
"94 600 LINE",
"82 600 LINE",
"82 600 LINE",
"78 600 LINE",
"68 592 LINE",
"-56 8 LINE",
"-50 0 LINE"
);
},
{
closed = 1;
nodes = (
"91 589 LINE",
"-31 14 LINE",
"-43 14 LINE",
"79 589 LINE"
);
}
);
width = 48;
}
);
note = q;
unicode = 0071;
},
{
color = 4;
glyphname = r;
lastChange = "2020-09-26 15:36:39 +0000";
layers = (
{
hints = (
{
horizontal = 1;
origin = "{0, 11}";
target = up;
type = BottomGhost;
},
{
horizontal = 1;
origin = "{0, 10}";
target = "{0, 0}";
type = Stem;
},
{
horizontal = 1;
origin = "{0, 10}";
target = "{0, 4}";
type = Stem;
},
{
horizontal = 1;
origin = "{0, 0}";
target = "{0, 8}";
type = Stem;
}
);
layerId = "B64BEB12-03E1-41C2-8D0F-395888C0A328";
paths = (
{
closed = 1;
nodes = (
"134 525 LINE",
"146 525 LINE",
"98 300 LINE",
"178 300 LINE",
"232 555 LINE",
"203 600 LINE",
"162 600 LINE",
"156 575 LINE",
"144 575 LINE",
"150 600 LINE",
"70 600 LINE",
"-58 0 LINE",
"22 0 LINE"
);
}
);
userData = {
assembly = "PUSHW[ ]\011/* 1 value pushed */
12 
MDAP[1]\011/* MoveDirectAbsPt */
PUSHW[ ]\011/* 1 value pushed */
9 
MDAP[1]\011/* MoveDirectAbsPt */
PUSHW[ ]\011/* 1 value pushed */
12 
SRP0[ ]\011/* SetRefPoint0 */
PUSHW[ ]\011/* 1 value pushed */
1 
MDRP[10000]\011/* MoveDirectRelPt */
PUSHW[ ]\011/* 1 value pushed */
1 
MDAP[1]\011/* MoveDirectAbsPt */
PUSHW[ ]\011/* 2 values pushed */
0 1 
MIRP[10100]\011/* MoveIndirectRelPt */
PUSHW[ ]\011/* 1 value pushed */
4 
MDRP[10000]\011/* MoveDirectRelPt */
PUSHW[ ]\011/* 1 value pushed */
9 
SRP0[ ]\011/* SetRefPoint0 */
PUSHW[ ]\011/* 1 value pushed */
5 
MDRP[10000]\011/* MoveDirectRelPt */
PUSHW[ ]\011/* 1 value pushed */
5 
MDAP[1]\011/* MoveDirectAbsPt */
PUSHW[ ]\011/* 1 value pushed */
9 
SRP0[ ]\011/* SetRefPoint0 */
PUSHW[ ]\011/* 2 values pushed */
8 1 
MIRP[10100]\011/* MoveIndirectRelPt */
PUSHW[ ]\011/* 1 value pushed */
13 
MDRP[11100]\011/* MoveDirectRelPt */
SVTCA[0]\011/* SetFreedomAndProjectionVectorToAxis */
PUSHW[ ]\011/* 1 value pushed */
2 
MDAP[1]\011/* MoveDirectAbsPt */
PUSHW[ ]\011/* 1 value pushed */
5 
MDAP[1]\011/* MoveDirectAbsPt */
PUSHW[ ]\011/* 1 value pushed */
0 
RCVT[ ]\011/* ReadCVT */
IF[ ]\011/* If */
PUSHW[ ]\011/* 1 value pushed */
0 
MDAP[1]\011/* MoveDirectAbsPt */
ELSE[ ]\011/* Else */
PUSHW[ ]\011/* 2 values pushed */
0 2 
MIAP[0]\011/* MoveIndirectAbsPt */
EIF[ ]\011/* EndIf */
PUSHW[ ]\011/* 3 values pushed */
4 0 2 
SRP1[ ]\011/* SetRefPoint1 */
SRP2[ ]\011/* SetRefPoint2 */
IP[ ]\011/* InterpolatePts */
IUP[0]\011/* InterpolateUntPts */
IUP[1]\011/* InterpolateUntPts */";
};
width = 184;
},
{
hints = (
{
horizontal = 1;
origin = "{0, 11}";
target = up;
type = BottomGhost;
},
{
horizontal = 1;
origin = "{0, 10}";
target = "{0, 0}";
type = Stem;
}
);
layerId = "DBA696BD-A337-48FC-9DA1-CD58B2C81FFB";
paths = (
{
closed = 1;
nodes = (
"79 589 LINE",
"91 589 LINE",
"30 300 LINE",
"42 300 LINE",
"104 592 LINE",
"98 600 LINE",
"94 600 LINE",
"94 600 LINE",
"82 600 LINE",
"82 600 LINE",
"70 600 LINE",
"-58 0 LINE",
"-46 0 LINE"
);
}
);
width = 48;
}
);
note = r;
unicode = 0072;
},
{
color = 4;
glyphname = s;
lastChange = "2020-09-29 10:51:22 +0000";
layers = (
{
hints = (
{
horizontal = 1;
origin = "{0, 18}";
target = "{0, 14}";
type = Stem;
},
{
horizontal = 1;
origin = "{0, 11}";
target = "{0, 1}";
type = Stem;
},
{
horizontal = 1;
origin = "{0, 8}";
target = "{0, 2}";
type = Stem;
},
{
horizontal = 1;
origin = "{0, 8}";
target = "{0, 9}";
type = Stem;
},
{
horizontal = 1;
origin = "{0, 18}";
target = "{0, 16}";
type = Stem;
}
);
layerId = "B64BEB12-03E1-41C2-8D0F-395888C0A328";
paths = (
{
closed = 1;
nodes = (
"147 336 LINE",
"94 336 LINE",
"134 525 LINE",
"146 525 LINE",
"109 349 LINE",
"189 349 LINE",
"232 555 LINE",
"201 600 LINE",
"110 600 LINE",
"60 555 LINE",
"6 300 LINE",
"38 261 LINE",
"89 261 LINE",
"50 75 LINE",
"38 75 LINE",
"75 248 LINE",
"-5 248 LINE",
"-48 45 LINE",
"-18 0 LINE",
"73 0 LINE",
"124 45 LINE",
"178 300 LINE"
);
}
);
userData = {
assembly = "PUSHW[ ]\011/* 1 value pushed */
10 
CALL[ ]\011/* CallFunction */
PUSHW[ ]\011/* 1 value pushed */
22 
MDAP[1]\011/* MoveDirectAbsPt */
PUSHW[ ]\011/* 1 value pushed */
8 
MDAP[1]\011/* MoveDirectAbsPt */
PUSHW[ ]\011/* 2 values pushed */
1 9 
MIRP[10100]\011/* MoveIndirectRelPt */
PUSHW[ ]\011/* 1 value pushed */
22 
SRP0[ ]\011/* SetRefPoint0 */
PUSHW[ ]\011/* 1 value pushed */
4 
MDRP[10000]\011/* MoveDirectRelPt */
PUSHW[ ]\011/* 1 value pushed */
4 
MDAP[1]\011/* MoveDirectAbsPt */
PUSHW[ ]\011/* 2 values pushed */
7 9 
MIRP[10100]\011/* MoveIndirectRelPt */
PUSHW[ ]\011/* 1 value pushed */
4 
SRP0[ ]\011/* SetRefPoint0 */
PUSHW[ ]\011/* 1 value pushed */
11 
MDRP[10000]\011/* MoveDirectRelPt */
PUSHW[ ]\011/* 1 value pushed */
1 
SRP0[ ]\011/* SetRefPoint0 */
PUSHW[ ]\011/* 1 value pushed */
15 
MDRP[10000]\011/* MoveDirectRelPt */
PUSHW[ ]\011/* 1 value pushed */
8 
SRP0[ ]\011/* SetRefPoint0 */
PUSHW[ ]\011/* 1 value pushed */
17 
MDRP[10000]\011/* MoveDirectRelPt */
PUSHW[ ]\011/* 1 value pushed */
7 
SRP0[ ]\011/* SetRefPoint0 */
PUSHW[ ]\011/* 1 value pushed */
19 
MDRP[10000]\011/* MoveDirectRelPt */
PUSHW[ ]\011/* 1 value pushed */
1 
SRP0[ ]\011/* SetRefPoint0 */
PUSHW[ ]\011/* 1 value pushed */
23 
MDRP[11100]\011/* MoveDirectRelPt */
SVTCA[0]\011/* SetFreedomAndProjectionVectorToAxis */
PUSHW[ ]\011/* 1 value pushed */
6 
RCVT[ ]\011/* ReadCVT */
IF[ ]\011/* If */
PUSHW[ ]\011/* 1 value pushed */
13 
MDAP[1]\011/* MoveDirectAbsPt */
ELSE[ ]\011/* Else */
PUSHW[ ]\011/* 2 values pushed */
13 17 
MIAP[0]\011/* MoveIndirectAbsPt */
EIF[ ]\011/* EndIf */
PUSHW[ ]\011/* 1 value pushed */
6 
RCVT[ ]\011/* ReadCVT */
IF[ ]\011/* If */
PUSHW[ ]\011/* 1 value pushed */
2 
MDAP[1]\011/* MoveDirectAbsPt */
ELSE[ ]\011/* Else */
PUSHW[ ]\011/* 2 values pushed */
2 13 
MIAP[0]\011/* MoveIndirectAbsPt */
EIF[ ]\011/* EndIf */
PUSHW[ ]\011/* 1 value pushed */
5 
MDRP[11100]\011/* MoveDirectRelPt */
IUP[0]\011/* InterpolateUntPts */
IUP[1]\011/* InterpolateUntPts */";
};
width = 185;
},
{
hints = (
{
horizontal = 1;
origin = "{0, 18}";
target = "{0, 14}";
type = Stem;
},
{
horizontal = 1;
origin = "{0, 11}";
target = "{0, 1}";
type = Stem;
},
{
horizontal = 1;
origin = "{0, 8}";
target = "{0, 2}";
type = Stem;
}
);
layerId = "DBA696BD-A337-48FC-9DA1-CD58B2C81FFB";
paths = (
{
closed = 1;
nodes = (
"36 311 LINE",
"20 311 LINE",
"79 589 LINE",
"91 589 LINE",
"35 323 LINE",
"47 323 LINE",
"104 592 LINE",
"98 600 LINE",
"78 600 LINE",
"68 592 LINE",
"8 308 LINE",
"14 300 LINE",
"30 300 LINE",
"-31 11 LINE",
"-43 11 LINE",
"15 287 LINE",
"3 287 LINE",
"-56 8 LINE",
"-50 0 LINE",
"-30 0 LINE",
"-20 8 LINE",
"43 303 LINE"
);
}
);
width = 48;
}
);
note = s;
unicode = 0073;
},
{
color = 4;
glyphname = germandbls;
lastChange = "2020-09-16 15:35:06 +0000";
layers = (
{
layerId = "B64BEB12-03E1-41C2-8D0F-395888C0A328";
paths = (
{
closed = 1;
nodes = (
"156 615 LINE",
"165 615 LINE",
"119 402 LINE",
"85 402 LINE",
"70 327 LINE",
"104 327 LINE",
"50 75 LINE",
"33 75 LINE",
"17 0 LINE",
"75 0 LINE",
"124 45 LINE",
"190 358 LINE",
"157 358 LINE",
"160 370 LINE",
"193 370 LINE",
"199 402 LINE",
"251 645 LINE",
"221 690 LINE",
"172 690 LINE"
);
},
{
closed = 1;
nodes = (
"172 690 LINE",
"129 690 LINE",
"79 645 LINE",
"-58 0 LINE",
"21 0 LINE",
"37 75 LINE",
"38 75 LINE",
"153 615 LINE",
"156 615 LINE"
);
}
);
width = 184;
},
{
layerId = "DBA696BD-A337-48FC-9DA1-CD58B2C81FFB";
paths = (
{
closed = 1;
nodes = (
"101 679 LINE",
"110 679 LINE",
"45 370 LINE",
"28 370 LINE",
"25 358 LINE",
"42 358 LINE",
"-32 11 LINE",
"-49 11 LINE",
"-51 0 LINE",
"-30 0 LINE",
"-20 8 LINE",
"54 358 LINE",
"48 358 LINE",
"51 370 LINE",
"57 370 LINE",
"59 381 LINE",
"123 682 LINE",
"117 690 LINE",
"104 690 LINE"
);
},
{
closed = 1;
nodes = (
"104 690 LINE",
"97 690 LINE",
"87 682 LINE",
"-58 0 LINE",
"-47 0 LINE",
"-45 11 LINE",
"-44 11 LINE",
"98 679 LINE",
"101 679 LINE"
);
}
);
width = 48;
}
);
unicode = 00DF;
},
{
color = 4;
glyphname = t;
lastChange = "2020-09-26 15:39:10 +0000";
layers = (
{
hints = (
{
horizontal = 1;
origin = "{0, 12}";
target = up;
type = BottomGhost;
},
{
horizontal = 1;
origin = "{0, 8}";
target = down;
type = TopGhost;
},
{
horizontal = 1;
origin = "{0, 6}";
target = down;
type = TopGhost;
},
{
origin = "{0, 12}";
target = "{0, 5}";
type = Stem;
}
);
layerId = "B64BEB12-03E1-41C2-8D0F-395888C0A328";
paths = (
{
closed = 1;
nodes = (
"38 75 LINE",
"134 525 LINE",
"141 525 LINE",
"157 600 LINE",
"150 600 LINE",
"177 730 LINE",
"97 730 LINE",
"70 600 LINE",
"64 600 LINE",
"48 525 LINE",
"54 525 LINE",
"-48 45 LINE",
"-58 0 LINE",
"22 0 LINE",
"38 75 LINE"
);
}
);
userData = {
assembly = "PUSHW[ ]\011/* 1 value pushed */
10 
CALL[ ]\011/* CallFunction */
PUSHW[ ]\011/* 4 values pushed */
12 12 5 14 
CALL[ ]\011/* CallFunction */
PUSHW[ ]\011/* 1 value pushed */
12 
SRP0[ ]\011/* SetRefPoint0 */
PUSHW[ ]\011/* 1 value pushed */
0 
MDRP[10000]\011/* MoveDirectRelPt */
PUSHW[ ]\011/* 3 values pushed */
3 5 12 
SRP1[ ]\011/* SetRefPoint1 */
SRP2[ ]\011/* SetRefPoint2 */
IP[ ]\011/* InterpolatePts */
PUSHW[ ]\011/* 1 value pushed */
3 
MDAP[1]\011/* MoveDirectAbsPt */
PUSHW[ ]\011/* 1 value pushed */
7 
MDRP[10000]\011/* MoveDirectRelPt */
PUSHW[ ]\011/* 1 value pushed */
3 
SRP0[ ]\011/* SetRefPoint0 */
PUSHW[ ]\011/* 2 values pushed */
14 9 
MIRP[10100]\011/* MoveIndirectRelPt */
PUSHW[ ]\011/* 1 value pushed */
9 
MDRP[10000]\011/* MoveDirectRelPt */
PUSHW[ ]\011/* 1 value pushed */
12 
SRP0[ ]\011/* SetRefPoint0 */
PUSHW[ ]\011/* 1 value pushed */
16 
MDRP[11100]\011/* MoveDirectRelPt */
SVTCA[0]\011/* SetFreedomAndProjectionVectorToAxis */
PUSHW[ ]\011/* 1 value pushed */
6 
RCVT[ ]\011/* ReadCVT */
IF[ ]\011/* If */
PUSHW[ ]\011/* 1 value pushed */
8 
MDAP[1]\011/* MoveDirectAbsPt */
ELSE[ ]\011/* Else */
PUSHW[ ]\011/* 2 values pushed */
8 19 
MIAP[0]\011/* MoveIndirectAbsPt */
EIF[ ]\011/* EndIf */
PUSHW[ ]\011/* 1 value pushed */
6 
RCVT[ ]\011/* ReadCVT */
IF[ ]\011/* If */
PUSHW[ ]\011/* 1 value pushed */
6 
MDAP[1]\011/* MoveDirectAbsPt */
ELSE[ ]\011/* Else */
PUSHW[ ]\011/* 2 values pushed */
6 17 
MIAP[0]\011/* MoveIndirectAbsPt */
EIF[ ]\011/* EndIf */
PUSHW[ ]\011/* 1 value pushed */
6 
RCVT[ ]\011/* ReadCVT */
IF[ ]\011/* If */
PUSHW[ ]\011/* 1 value pushed */
10 
MDAP[1]\011/* MoveDirectAbsPt */
ELSE[ ]\011/* Else */
PUSHW[ ]\011/* 2 values pushed */
10 17 
MIAP[0]\011/* MoveIndirectAbsPt */
EIF[ ]\011/* EndIf */
PUSHW[ ]\011/* 1 value pushed */
6 
RCVT[ ]\011/* ReadCVT */
IF[ ]\011/* If */
PUSHW[ ]\011/* 1 value pushed */
1 
MDAP[1]\011/* MoveDirectAbsPt */
ELSE[ ]\011/* Else */
PUSHW[ ]\011/* 2 values pushed */
1 13 
MIAP[0]\011/* MoveIndirectAbsPt */
EIF[ ]\011/* EndIf */
PUSHW[ ]\011/* 1 value pushed */
6 
SRP0[ ]\011/* SetRefPoint0 */
PUSHW[ ]\011/* 2 values pushed */
4 8 
MIRP[10100]\011/* MoveIndirectRelPt */
PUSHW[ ]\011/* 1 value pushed */
12 
MDRP[10000]\011/* MoveDirectRelPt */
PUSHW[ ]\011/* 1 value pushed */
13 
MDRP[10000]\011/* MoveDirectRelPt */
IUP[0]\011/* InterpolateUntPts */
IUP[1]\011/* InterpolateUntPts */";
};
width = 93;
},
{
hints = (
{
horizontal = 1;
origin = "{0, 12}";
target = up;
type = BottomGhost;
},
{
horizontal = 1;
origin = "{0, 8}";
target = "{0, 9}";
type = Stem;
},
{
horizontal = 1;
origin = "{0, 6}";
target = down;
type = TopGhost;
},
{
place = "{-57, 12}";
type = Stem;
},
{
place = "{62.5, 24}";
type = Stem;
}
);
layerId = "DBA696BD-A337-48FC-9DA1-CD58B2C81FFB";
paths = (
{
closed = 1;
nodes = (
"-44 11 LINE",
"79 589 LINE",
"85 589 LINE",
"88 600 LINE",
"82 600 LINE",
"101 690 LINE",
"89 690 LINE",
"70 600 LINE",
"64 600 LINE",
"61 589 LINE",
"67 589 LINE",
"-56 11 LINE",
"-58 0 LINE",
"-46 0 LINE",
"-44 11 LINE"
);
}
);
width = 24;
}
);
note = t;
unicode = 0074;
},
{
color = 4;
glyphname = u;
lastChange = "2020-09-26 15:38:15 +0000";
layers = (
{
hints = (
{
horizontal = 1;
origin = "{0, 5}";
target = "{0, 1}";
type = Stem;
},
{
horizontal = 1;
origin = "{0, 3}";
target = down;
type = TopGhost;
},
{
horizontal = 1;
origin = "{0, 7}";
target = "{0, 1}";
type = Stem;
}
);
layerId = "B64BEB12-03E1-41C2-8D0F-395888C0A328";
paths = (
{
closed = 1;
nodes = (
"50 75 LINE",
"38 75 LINE",
"150 600 LINE",
"70 600 LINE",
"-48 45 LINE",
"-19 0 LINE",
"22 0 LINE",
"28 25 LINE",
"40 25 LINE",
"34 0 LINE",
"114 0 LINE",
"242 600 LINE",
"162 600 LINE"
);
}
);
userData = {
assembly = "PUSHW[ ]\011/* 1 value pushed */
12 
MDAP[1]\011/* MoveDirectAbsPt */
PUSHW[ ]\011/* 1 value pushed */
0 
MDAP[1]\011/* MoveDirectAbsPt */
PUSHW[ ]\011/* 2 values pushed */
1 1 
MIRP[10100]\011/* MoveIndirectRelPt */
PUSHW[ ]\011/* 1 value pushed */
0 
SRP0[ ]\011/* SetRefPoint0 */
PUSHW[ ]\011/* 1 value pushed */
4 
MDRP[10000]\011/* MoveDirectRelPt */
PUSHW[ ]\011/* 1 value pushed */
12 
SRP0[ ]\011/* SetRefPoint0 */
PUSHW[ ]\011/* 1 value pushed */
7 
MDRP[10000]\011/* MoveDirectRelPt */
PUSHW[ ]\011/* 1 value pushed */
7 
MDAP[1]\011/* MoveDirectAbsPt */
PUSHW[ ]\011/* 2 values pushed */
10 1 
MIRP[10100]\011/* MoveIndirectRelPt */
PUSHW[ ]\011/* 1 value pushed */
5 
MDRP[10000]\011/* MoveDirectRelPt */
PUSHW[ ]\011/* 1 value pushed */
5 
MDAP[1]\011/* MoveDirectAbsPt */
PUSHW[ ]\011/* 1 value pushed */
1 
SRP0[ ]\011/* SetRefPoint0 */
PUSHW[ ]\011/* 1 value pushed */
13 
MDRP[11100]\011/* MoveDirectRelPt */
SVTCA[0]\011/* SetFreedomAndProjectionVectorToAxis */
PUSHW[ ]\011/* 1 value pushed */
0 
MDAP[1]\011/* MoveDirectAbsPt */
PUSHW[ ]\011/* 1 value pushed */
8 
MDAP[1]\011/* MoveDirectAbsPt */
PUSHW[ ]\011/* 1 value pushed */
0 
RCVT[ ]\011/* ReadCVT */
IF[ ]\011/* If */
PUSHW[ ]\011/* 1 value pushed */
2 
MDAP[1]\011/* MoveDirectAbsPt */
ELSE[ ]\011/* Else */
PUSHW[ ]\011/* 2 values pushed */
2 2 
MIAP[0]\011/* MoveIndirectAbsPt */
EIF[ ]\011/* EndIf */
PUSHW[ ]\011/* 1 value pushed */
0 
RCVT[ ]\011/* ReadCVT */
IF[ ]\011/* If */
PUSHW[ ]\011/* 1 value pushed */
5 
MDAP[1]\011/* MoveDirectAbsPt */
ELSE[ ]\011/* Else */
PUSHW[ ]\011/* 2 values pushed */
5 2 
MIAP[0]\011/* MoveIndirectAbsPt */
EIF[ ]\011/* EndIf */
PUSHW[ ]\011/* 3 values pushed */
4 2 0 
SRP1[ ]\011/* SetRefPoint1 */
SRP2[ ]\011/* SetRefPoint2 */
IP[ ]\011/* InterpolatePts */
IUP[0]\011/* InterpolateUntPts */
IUP[1]\011/* InterpolateUntPts */";
};
width = 184;
},
{
hints = (
{
horizontal = 1;
origin = "{0, 1}";
target = "{0, 5}";
type = Stem;
},
{
horizontal = 1;
origin = "{0, 3}";
target = down;
type = TopGhost;
}
);
layerId = "DBA696BD-A337-48FC-9DA1-CD58B2C81FFB";
paths = (
{
closed = 1;
nodes = (
"-31 11 LINE",
"-43 11 LINE",
"82 600 LINE",
"70 600 LINE",
"-56 8 LINE",
"-50 0 LINE",
"-46 0 LINE",
"-46 0 LINE",
"-34 0 LINE",
"-34 0 LINE",
"-22 0 LINE",
"106 600 LINE",
"94 600 LINE"
);
}
);
width = 48;
}
);
note = u;
unicode = 0075;
},
{
color = 4;
glyphname = v;
lastChange = "2020-09-26 15:38:54 +0000";
layers = (
{
hints = (
{
horizontal = 1;
origin = "{0, 0}";
target = "{0, 6}";
type = Stem;
},
{
horizontal = 1;
origin = "{0, 8}";
target = down;
type = TopGhost;
}
);
layerId = "B64BEB12-03E1-41C2-8D0F-395888C0A328";
paths = (
{
closed = 1;
nodes = (
"-18 0 LINE",
"75 0 LINE",
"124 45 LINE",
"242 600 LINE",
"162 600 LINE",
"50 75 LINE",
"38 75 LINE",
"150 600 LINE",
"70 600 LINE",
"-48 45 LINE"
);
}
);
userData = {
assembly = "PUSHW[ ]\011/* 1 value pushed */
10 
CALL[ ]\011/* CallFunction */
SVTCA[0]\011/* SetFreedomAndProjectionVectorToAxis */
PUSHW[ ]\011/* 1 value pushed */
6 
RCVT[ ]\011/* ReadCVT */
IF[ ]\011/* If */
PUSHW[ ]\011/* 1 value pushed */
0 
MDAP[1]\011/* MoveDirectAbsPt */
ELSE[ ]\011/* Else */
PUSHW[ ]\011/* 2 values pushed */
0 17 
MIAP[0]\011/* MoveIndirectAbsPt */
EIF[ ]\011/* EndIf */
PUSHW[ ]\011/* 1 value pushed */
6 
RCVT[ ]\011/* ReadCVT */
IF[ ]\011/* If */
PUSHW[ ]\011/* 1 value pushed */
4 
MDAP[1]\011/* MoveDirectAbsPt */
ELSE[ ]\011/* Else */
PUSHW[ ]\011/* 2 values pushed */
4 17 
MIAP[0]\011/* MoveIndirectAbsPt */
EIF[ ]\011/* EndIf */
PUSHW[ ]\011/* 1 value pushed */
6 
RCVT[ ]\011/* ReadCVT */
IF[ ]\011/* If */
PUSHW[ ]\011/* 1 value pushed */
2 
MDAP[1]\011/* MoveDirectAbsPt */
ELSE[ ]\011/* Else */
PUSHW[ ]\011/* 2 values pushed */
2 13 
MIAP[0]\011/* MoveIndirectAbsPt */
EIF[ ]\011/* EndIf */
PUSHW[ ]\011/* 3 values pushed */
6 2 0 
SRP1[ ]\011/* SetRefPoint1 */
SRP2[ ]\011/* SetRefPoint2 */
IP[ ]\011/* InterpolatePts */
IUP[0]\011/* InterpolateUntPts */
IUP[1]\011/* InterpolateUntPts */";
};
width = 184;
},
{
hints = (
{
horizontal = 1;
origin = "{0, 0}";
target = "{0, 6}";
type = Stem;
},
{
horizontal = 1;
origin = "{0, 8}";
target = down;
type = TopGhost;
}
);
layerId = "DBA696BD-A337-48FC-9DA1-CD58B2C81FFB";
paths = (
{
closed = 1;
nodes = (
"-50 0 LINE",
"-30 0 LINE",
"-20 8 LINE",
"106 600 LINE",
"94 600 LINE",
"-31 11 LINE",
"-43 11 LINE",
"82 600 LINE",
"70 600 LINE",
"-56 8 LINE"
);
}
);
width = 48;
}
);
note = v;
unicode = 0076;
},
{
color = 4;
glyphname = w;
lastChange = "2020-09-26 15:36:45 +0000";
layers = (
{
hints = (
{
horizontal = 1;
origin = "{0, 8}";
target = "{0, 12}";
type = Stem;
},
{
horizontal = 1;
origin = "{0, 10}";
target = down;
type = TopGhost;
},
{
horizontal = 1;
origin = "{0, 8}";
target = "{0, 14}";
type = Stem;
}
);
layerId = "B64BEB12-03E1-41C2-8D0F-395888C0A328";
paths = (
{
closed = 1;
nodes = (
"216 45 LINE",
"334 600 LINE",
"254 600 LINE",
"142 75 LINE",
"130 75 LINE",
"242 600 LINE",
"162 600 LINE",
"50 75 LINE",
"38 75 LINE",
"150 600 LINE",
"70 600 LINE",
"-48 45 LINE",
"-18 0 LINE",
"22 0 LINE",
"28 25 LINE",
"40 25 LINE",
"34 0 LINE",
"114 0 LINE",
"120 25 LINE",
"132 25 LINE",
"126 0 LINE",
"167 0 LINE"
);
}
);
userData = {
assembly = "PUSHW[ ]\011/* 1 value pushed */
10 
CALL[ ]\011/* CallFunction */
SVTCA[0]\011/* SetFreedomAndProjectionVectorToAxis */
PUSHW[ ]\011/* 1 value pushed */
6 
RCVT[ ]\011/* ReadCVT */
IF[ ]\011/* If */
PUSHW[ ]\011/* 1 value pushed */
0 
MDAP[1]\011/* MoveDirectAbsPt */
ELSE[ ]\011/* Else */
PUSHW[ ]\011/* 2 values pushed */
0 17 
MIAP[0]\011/* MoveIndirectAbsPt */
EIF[ ]\011/* EndIf */
PUSHW[ ]\011/* 1 value pushed */
6 
RCVT[ ]\011/* ReadCVT */
IF[ ]\011/* If */
PUSHW[ ]\011/* 1 value pushed */
6 
MDAP[1]\011/* MoveDirectAbsPt */
ELSE[ ]\011/* Else */
PUSHW[ ]\011/* 2 values pushed */
6 17 
MIAP[0]\011/* MoveIndirectAbsPt */
EIF[ ]\011/* EndIf */
PUSHW[ ]\011/* 1 value pushed */
6 
RCVT[ ]\011/* ReadCVT */
IF[ ]\011/* If */
PUSHW[ ]\011/* 1 value pushed */
9 
MDAP[1]\011/* MoveDirectAbsPt */
ELSE[ ]\011/* Else */
PUSHW[ ]\011/* 2 values pushed */
9 17 
MIAP[0]\011/* MoveIndirectAbsPt */
EIF[ ]\011/* EndIf */
PUSHW[ ]\011/* 1 value pushed */
6 
RCVT[ ]\011/* ReadCVT */
IF[ ]\011/* If */
PUSHW[ ]\011/* 1 value pushed */
1 
MDAP[1]\011/* MoveDirectAbsPt */
ELSE[ ]\011/* Else */
PUSHW[ ]\011/* 2 values pushed */
1 13 
MIAP[0]\011/* MoveIndirectAbsPt */
EIF[ ]\011/* EndIf */
PUSHW[ ]\011/* 1 value pushed */
6 
RCVT[ ]\011/* ReadCVT */
IF[ ]\011/* If */
PUSHW[ ]\011/* 1 value pushed */
4 
MDAP[1]\011/* MoveDirectAbsPt */
ELSE[ ]\011/* Else */
PUSHW[ ]\011/* 2 values pushed */
4 13 
MIAP[0]\011/* MoveIndirectAbsPt */
EIF[ ]\011/* EndIf */
PUSHW[ ]\011/* 3 values pushed */
3 1 0 
SRP1[ ]\011/* SetRefPoint1 */
SRP2[ ]\011/* SetRefPoint2 */
IP[ ]\011/* InterpolatePts */
PUSHW[ ]\011/* 3 values pushed */
8 1 0 
SRP1[ ]\011/* SetRefPoint1 */
SRP2[ ]\011/* SetRefPoint2 */
IP[ ]\011/* InterpolatePts */
PUSHW[ ]\011/* 3 values pushed */
11 1 0 
SRP1[ ]\011/* SetRefPoint1 */
SRP2[ ]\011/* SetRefPoint2 */
IP[ ]\011/* InterpolatePts */
IUP[0]\011/* InterpolateUntPts */
IUP[1]\011/* InterpolateUntPts */";
};
width = 276;
},
{
hints = (
{
horizontal = 1;
origin = "{0, 12}";
target = "{0, 8}";
type = Stem;
},
{
horizontal = 1;
origin = "{0, 10}";
target = down;
type = TopGhost;
}
);
layerId = "DBA696BD-A337-48FC-9DA1-CD58B2C81FFB";
paths = (
{
closed = 1;
nodes = (
"4 8 LINE",
"130 600 LINE",
"118 600 LINE",
"-7 11 LINE",
"-19 11 LINE",
"106 600 LINE",
"94 600 LINE",
"-31 11 LINE",
"-43 11 LINE",
"82 600 LINE",
"70 600 LINE",
"-56 8 LINE",
"-50 0 LINE",
"-46 0 LINE",
"-46 0 LINE",
"-34 0 LINE",
"-34 0 LINE",
"-22 0 LINE",
"-22 0 LINE",
"-10 0 LINE",
"-10 0 LINE",
"-6 0 LINE"
);
}
);
width = 72;
}
);
note = w;
unicode = 0077;
},
{
color = 4;
glyphname = x;
lastChange = "2020-09-26 15:18:32 +0000";
layers = (
{
hints = (
{
horizontal = 1;
origin = "{0, 19}";
target = up;
type = BottomGhost;
},
{
horizontal = 1;
origin = "{0, 1}";
target = "{0, 18}";
type = Stem;
},
{
horizontal = 1;
origin = "{0, 14}";
target = down;
type = TopGhost;
},
{
horizontal = 1;
origin = "{0, 15}";
target = "{0, 12}";
type = Stem;
}
);
layerId = "B64BEB12-03E1-41C2-8D0F-395888C0A328";
paths = (
{
closed = 1;
nodes = (
"23 0 LINE",
"81 272 LINE",
"93 272 LINE",
"35 0 LINE",
"115 0 LINE",
"179 303 LINE",
"146 303 LINE",
"149 315 LINE",
"182 315 LINE",
"243 600 LINE",
"163 600 LINE",
"109 347 LINE",
"97 347 LINE",
"151 600 LINE",
"71 600 LINE",
"10 315 LINE",
"43 315 LINE",
"40 303 LINE",
"7 303 LINE",
"-57 0 LINE"
);
}
);
userData = {
assembly = "PUSHW[ ]\011/* 1 value pushed */
10 
CALL[ ]\011/* CallFunction */
SVTCA[0]\011/* SetFreedomAndProjectionVectorToAxis */
PUSHW[ ]\011/* 1 value pushed */
6 
RCVT[ ]\011/* ReadCVT */
IF[ ]\011/* If */
PUSHW[ ]\011/* 1 value pushed */
7 
MDAP[1]\011/* MoveDirectAbsPt */
ELSE[ ]\011/* Else */
PUSHW[ ]\011/* 2 values pushed */
7 17 
MIAP[0]\011/* MoveIndirectAbsPt */
EIF[ ]\011/* EndIf */
PUSHW[ ]\011/* 1 value pushed */
6 
RCVT[ ]\011/* ReadCVT */
IF[ ]\011/* If */
PUSHW[ ]\011/* 1 value pushed */
10 
MDAP[1]\011/* MoveDirectAbsPt */
ELSE[ ]\011/* Else */
PUSHW[ ]\011/* 2 values pushed */
10 17 
MIAP[0]\011/* MoveIndirectAbsPt */
EIF[ ]\011/* EndIf */
PUSHW[ ]\011/* 1 value pushed */
6 
RCVT[ ]\011/* ReadCVT */
IF[ ]\011/* If */
PUSHW[ ]\011/* 1 value pushed */
1 
MDAP[1]\011/* MoveDirectAbsPt */
ELSE[ ]\011/* Else */
PUSHW[ ]\011/* 2 values pushed */
1 13 
MIAP[0]\011/* MoveIndirectAbsPt */
EIF[ ]\011/* EndIf */
PUSHW[ ]\011/* 1 value pushed */
6 
RCVT[ ]\011/* ReadCVT */
IF[ ]\011/* If */
PUSHW[ ]\011/* 1 value pushed */
4 
MDAP[1]\011/* MoveDirectAbsPt */
ELSE[ ]\011/* Else */
PUSHW[ ]\011/* 2 values pushed */
4 13 
MIAP[0]\011/* MoveIndirectAbsPt */
EIF[ ]\011/* EndIf */
PUSHW[ ]\011/* 3 values pushed */
3 1 7 
SRP1[ ]\011/* SetRefPoint1 */
SRP2[ ]\011/* SetRefPoint2 */
IP[ ]\011/* InterpolatePts */
PUSHW[ ]\011/* 3 values pushed */
9 1 7 
SRP1[ ]\011/* SetRefPoint1 */
SRP2[ ]\011/* SetRefPoint2 */
IP[ ]\011/* InterpolatePts */
IUP[0]\011/* InterpolateUntPts */
IUP[1]\011/* InterpolateUntPts */";
};
width = 185;
},
{
hints = (
{
horizontal = 1;
origin = "{0, 19}";
target = up;
type = BottomGhost;
},
{
horizontal = 1;
origin = "{0, 1}";
target = "{0, 15}";
type = Stem;
},
{
horizontal = 1;
origin = "{0, 14}";
target = down;
type = TopGhost;
},
{
place = "{12, 8}";
type = Stem;
},
{
place = "{30, 8}";
type = Stem;
}
);
layerId = "DBA696BD-A337-48FC-9DA1-CD58B2C81FFB";
paths = (
{
closed = 1;
nodes = (
"-46 0 LINE",
"18 300 LINE",
"30 300 LINE",
"-34 0 LINE",
"-22 0 LINE",
"42 299 LINE",
"37 299 LINE",
"39 311 LINE",
"44 311 LINE",
"106 600 LINE",
"94 600 LINE",
"32 311 LINE",
"20 311 LINE",
"82 600 LINE",
"70 600 LINE",
"8 311 LINE",
"13 311 LINE",
"11 299 LINE",
"6 299 LINE",
"-58 0 LINE"
);
}
);
width = 48;
}
);
note = x;
unicode = 0078;
},
{
color = 4;
glyphname = y;
lastChange = "2020-09-26 15:11:31 +0000";
layers = (
{
hints = (
{
horizontal = 1;
origin = "{0, 16}";
target = "{0, 14}";
type = Stem;
},
{
horizontal = 1;
origin = "{0, 8}";
target = "{0, 2}";
type = Stem;
},
{
origin = "{0, 11}";
target = "{0, 18}";
type = Stem;
},
{
origin = "{0, 15}";
target = "{0, 12}";
type = Stem;
}
);
layerId = "B64BEB12-03E1-41C2-8D0F-395888C0A328";
paths = (
{
closed = 1;
nodes = (
"162 600 LINE",
"50 75 LINE",
"38 75 LINE",
"150 600 LINE",
"70 600 LINE",
"-48 45 LINE",
"-18 0 LINE",
"22 0 LINE",
"27 25 LINE",
"39 25 LINE",
"34 0 LINE",
"22 -55 LINE",
"10 -55 LINE",
"20 -12 LINE",
"-60 -12 LINE",
"-76 -85 LINE",
"-47 -130 LINE",
"47 -130 LINE",
"96 -85 LINE",
"242 600 LINE"
);
}
);
userData = {
assembly = "PUSHW[ ]\011/* 1 value pushed */
10 
CALL[ ]\011/* CallFunction */
PUSHW[ ]\011/* 1 value pushed */
17 
MDAP[1]\011/* MoveDirectAbsPt */
PUSHW[ ]\011/* 1 value pushed */
0 
MDAP[1]\011/* MoveDirectAbsPt */
PUSHW[ ]\011/* 2 values pushed */
2 9 
MIRP[10100]\011/* MoveIndirectRelPt */
PUSHW[ ]\011/* 1 value pushed */
17 
SRP0[ ]\011/* SetRefPoint0 */
PUSHW[ ]\011/* 1 value pushed */
10 
MDRP[10000]\011/* MoveDirectRelPt */
PUSHW[ ]\011/* 1 value pushed */
10 
MDAP[1]\011/* MoveDirectAbsPt */
PUSHW[ ]\011/* 1 value pushed */
5 
MDRP[10000]\011/* MoveDirectRelPt */
PUSHW[ ]\011/* 1 value pushed */
0 
SRP0[ ]\011/* SetRefPoint0 */
PUSHW[ ]\011/* 1 value pushed */
7 
MDRP[10000]\011/* MoveDirectRelPt */
PUSHW[ ]\011/* 1 value pushed */
10 
SRP0[ ]\011/* SetRefPoint0 */
PUSHW[ ]\011/* 2 values pushed */
14 9 
MIRP[10100]\011/* MoveIndirectRelPt */
PUSHW[ ]\011/* 1 value pushed */
0 
SRP0[ ]\011/* SetRefPoint0 */
PUSHW[ ]\011/* 1 value pushed */
15 
MDRP[10000]\011/* MoveDirectRelPt */
PUSHW[ ]\011/* 1 value pushed */
2 
SRP0[ ]\011/* SetRefPoint0 */
PUSHW[ ]\011/* 1 value pushed */
18 
MDRP[11100]\011/* MoveDirectRelPt */
SVTCA[0]\011/* SetFreedomAndProjectionVectorToAxis */
PUSHW[ ]\011/* 1 value pushed */
6 
RCVT[ ]\011/* ReadCVT */
IF[ ]\011/* If */
PUSHW[ ]\011/* 1 value pushed */
0 
MDAP[1]\011/* MoveDirectAbsPt */
ELSE[ ]\011/* Else */
PUSHW[ ]\011/* 2 values pushed */
0 17 
MIAP[0]\011/* MoveIndirectAbsPt */
EIF[ ]\011/* EndIf */
PUSHW[ ]\011/* 1 value pushed */
6 
RCVT[ ]\011/* ReadCVT */
IF[ ]\011/* If */
PUSHW[ ]\011/* 1 value pushed */
11 
MDAP[1]\011/* MoveDirectAbsPt */
ELSE[ ]\011/* Else */
PUSHW[ ]\011/* 2 values pushed */
11 17 
MIAP[0]\011/* MoveIndirectAbsPt */
EIF[ ]\011/* EndIf */
PUSHW[ ]\011/* 1 value pushed */
6 
RCVT[ ]\011/* ReadCVT */
IF[ ]\011/* If */
PUSHW[ ]\011/* 1 value pushed */
13 
MDAP[1]\011/* MoveDirectAbsPt */
ELSE[ ]\011/* Else */
PUSHW[ ]\011/* 2 values pushed */
13 17 
MIAP[0]\011/* MoveIndirectAbsPt */
EIF[ ]\011/* EndIf */
PUSHW[ ]\011/* 1 value pushed */
6 
RCVT[ ]\011/* ReadCVT */
IF[ ]\011/* If */
PUSHW[ ]\011/* 1 value pushed */
8 
MDAP[1]\011/* MoveDirectAbsPt */
ELSE[ ]\011/* Else */
PUSHW[ ]\011/* 2 values pushed */
8 13 
MIAP[0]\011/* MoveIndirectAbsPt */
EIF[ ]\011/* EndIf */
PUSHW[ ]\011/* 1 value pushed */
6 
RCVT[ ]\011/* ReadCVT */
IF[ ]\011/* If */
PUSHW[ ]\011/* 1 value pushed */
4 
MDAP[1]\011/* MoveDirectAbsPt */
ELSE[ ]\011/* Else */
PUSHW[ ]\011/* 2 values pushed */
4 15 
MIAP[0]\011/* MoveIndirectAbsPt */
EIF[ ]\011/* EndIf */
PUSHW[ ]\011/* 2 values pushed */
6 8 
MIRP[10100]\011/* MoveIndirectRelPt */
IUP[0]\011/* InterpolateUntPts */
IUP[1]\011/* InterpolateUntPts */";
};
width = 184;
},
{
hints = (
{
horizontal = 1;
origin = "{0, 16}";
target = "{0, 12}";
type = Stem;
},
{
horizontal = 1;
origin = "{0, 6}";
target = "{0, 2}";
type = Stem;
},
{
horizontal = 1;
origin = "{0, 4}";
target = down;
type = TopGhost;
},
{
origin = "{0, 15}";
target = "{0, 12}";
type = Stem;
},
{
origin = "{0, 11}";
target = "{0, 18}";
type = Stem;
}
);
layerId = "DBA696BD-A337-48FC-9DA1-CD58B2C81FFB";
paths = (
{
closed = 1;
nodes = (
"94 600 LINE",
"-31 11 LINE",
"-43 11 LINE",
"82 600 LINE",
"70 600 LINE",
"-56 8 LINE",
"-50 0 LINE",
"-46 0 LINE",
"-46 0 LINE",
"-34 0 LINE",
"-34 0 LINE",
"-50 -78 LINE",
"-62 -78 LINE",
"-48 -12 LINE",
"-60 -12 LINE",
"-75 -82 LINE",
"-69 -90 LINE",
"-49 -90 LINE",
"-39 -82 LINE",
"106 600 LINE"
);
}
);
width = 48;
}
);
note = y;
unicode = 0079;
},
{
color = 4;
glyphname = z;
lastChange = "2020-09-26 15:39:29 +0000";
layers = (
{
hints = (
{
horizontal = 1;
origin = "{0, 0}";
target = "{0, 7}";
type = Stem;
},
{
horizontal = 1;
origin = "{0, 8}";
target = "{0, 18}";
type = Stem;
},
{
horizontal = 1;
origin = "{0, 12}";
target = "{0, 15}";
type = Stem;
},
{
horizontal = 1;
origin = "{0, 12}";
target = "{0, 10}";
type = Stem;
}
);
layerId = "B64BEB12-03E1-41C2-8D0F-395888C0A328";
paths = (
{
closed = 1;
nodes = (
"-58 0 LINE",
"-17 0 LINE",
"114 0 LINE",
"124 45 LINE",
"167 250 LINE",
"87 250 LINE",
"50 75 LINE",
"38 75 LINE",
"78 262 LINE",
"170 262 LINE",
"232 555 LINE",
"202 600 LINE",
"70 600 LINE",
"16 349 LINE",
"96 349 LINE",
"134 525 LINE",
"146 525 LINE",
"106 337 LINE",
"14 337 LINE"
);
}
);
userData = {
assembly = "PUSHW[ ]\011/* 1 value pushed */
10 
CALL[ ]\011/* CallFunction */
PUSHW[ ]\011/* 4 values pushed */
9 12 6 14 
CALL[ ]\011/* CallFunction */
PUSHW[ ]\011/* 1 value pushed */
9 
SRP0[ ]\011/* SetRefPoint0 */
PUSHW[ ]\011/* 1 value pushed */
1 
MDRP[10000]\011/* MoveDirectRelPt */
PUSHW[ ]\011/* 1 value pushed */
1 
MDAP[1]\011/* MoveDirectAbsPt */
PUSHW[ ]\011/* 1 value pushed */
6 
SRP0[ ]\011/* SetRefPoint0 */
PUSHW[ ]\011/* 1 value pushed */
3 
MDRP[10000]\011/* MoveDirectRelPt */
PUSHW[ ]\011/* 1 value pushed */
9 
SRP0[ ]\011/* SetRefPoint0 */
PUSHW[ ]\011/* 1 value pushed */
11 
MDRP[11100]\011/* MoveDirectRelPt */
SVTCA[0]\011/* SetFreedomAndProjectionVectorToAxis */
PUSHW[ ]\011/* 1 value pushed */
6 
RCVT[ ]\011/* ReadCVT */
IF[ ]\011/* If */
PUSHW[ ]\011/* 1 value pushed */
7 
MDAP[1]\011/* MoveDirectAbsPt */
ELSE[ ]\011/* Else */
PUSHW[ ]\011/* 2 values pushed */
7 17 
MIAP[0]\011/* MoveIndirectAbsPt */
EIF[ ]\011/* EndIf */
PUSHW[ ]\011/* 1 value pushed */
6 
RCVT[ ]\011/* ReadCVT */
IF[ ]\011/* If */
PUSHW[ ]\011/* 1 value pushed */
2 
MDAP[1]\011/* MoveDirectAbsPt */
ELSE[ ]\011/* Else */
PUSHW[ ]\011/* 2 values pushed */
2 13 
MIAP[0]\011/* MoveIndirectAbsPt */
EIF[ ]\011/* EndIf */
PUSHW[ ]\011/* 2 values pushed */
0 8 
MIRP[10100]\011/* MoveIndirectRelPt */
PUSHW[ ]\011/* 1 value pushed */
7 
SRP0[ ]\011/* SetRefPoint0 */
PUSHW[ ]\011/* 2 values pushed */
5 8 
MIRP[10100]\011/* MoveIndirectRelPt */
IUP[0]\011/* InterpolateUntPts */
IUP[1]\011/* InterpolateUntPts */";
};
width = 184;
},
{
hints = (
{
horizontal = 1;
origin = "{0, 0}";
target = "{0, 7}";
type = Stem;
},
{
horizontal = 1;
origin = "{0, 8}";
target = "{0, 18}";
type = Stem;
},
{
horizontal = 1;
origin = "{0, 12}";
target = "{0, 15}";
type = Stem;
}
);
layerId = "DBA696BD-A337-48FC-9DA1-CD58B2C81FFB";
paths = (
{
closed = 1;
nodes = (
"-58 0 LINE",
"-50 0 LINE",
"-22 0 LINE",
"-12 45 LINE",
"45 314 LINE",
"33 314 LINE",
"-32 11 LINE",
"-44 11 LINE",
"23 326 LINE",
"47 326 LINE",
"104 592 LINE",
"98 600 LINE",
"70 600 LINE",
"16 349 LINE",
"28 349 LINE",
"79 589 LINE",
"91 589 LINE",
"38 337 LINE",
"14 337 LINE"
);
}
);
width = 48;
}
);
note = z;
unicode = 007A;
},
{
color = 4;
glyphname = f.ss01;
lastChange = "2020-09-26 15:20:26 +0000";
layers = (
{
hints = (
{
horizontal = 1;
origin = "{0, 7}";
target = up;
type = BottomGhost;
},
{
horizontal = 1;
origin = "{0, 4}";
target = down;
type = TopGhost;
},
{
horizontal = 1;
origin = "{0, 1}";
target = "{0, 13}";
type = Stem;
}
);
layerId = "B64BEB12-03E1-41C2-8D0F-395888C0A328";
paths = (
{
closed = 1;
nodes = (
"189 730 LINE",
"136 730 LINE",
"88 685 LINE",
"70 600 LINE",
"64 600 LINE",
"48 525 LINE",
"54 525 LINE",
"-58 0 LINE",
"22 0 LINE",
"134 525 LINE",
"140 525 LINE",
"156 600 LINE",
"150 600 LINE",
"161 655 LINE",
"173 655 LINE"
);
}
);
userData = {
assembly = "PUSHW[ ]\011/* 1 value pushed */
10 
CALL[ ]\011/* CallFunction */
PUSHW[ ]\011/* 4 values pushed */
12 12 5 14 
CALL[ ]\011/* CallFunction */
PUSHW[ ]\011/* 1 value pushed */
12 
SRP0[ ]\011/* SetRefPoint0 */
PUSHW[ ]\011/* 1 value pushed */
0 
MDRP[10000]\011/* MoveDirectRelPt */
PUSHW[ ]\011/* 3 values pushed */
3 5 12 
SRP1[ ]\011/* SetRefPoint1 */
SRP2[ ]\011/* SetRefPoint2 */
IP[ ]\011/* InterpolatePts */
PUSHW[ ]\011/* 1 value pushed */
3 
MDAP[1]\011/* MoveDirectAbsPt */
PUSHW[ ]\011/* 1 value pushed */
7 
MDRP[10000]\011/* MoveDirectRelPt */
PUSHW[ ]\011/* 1 value pushed */
3 
SRP0[ ]\011/* SetRefPoint0 */
PUSHW[ ]\011/* 2 values pushed */
14 9 
MIRP[10100]\011/* MoveIndirectRelPt */
PUSHW[ ]\011/* 1 value pushed */
9 
MDRP[10000]\011/* MoveDirectRelPt */
PUSHW[ ]\011/* 1 value pushed */
12 
SRP0[ ]\011/* SetRefPoint0 */
PUSHW[ ]\011/* 1 value pushed */
16 
MDRP[11100]\011/* MoveDirectRelPt */
SVTCA[0]\011/* SetFreedomAndProjectionVectorToAxis */
PUSHW[ ]\011/* 1 value pushed */
6 
RCVT[ ]\011/* ReadCVT */
IF[ ]\011/* If */
PUSHW[ ]\011/* 1 value pushed */
8 
MDAP[1]\011/* MoveDirectAbsPt */
ELSE[ ]\011/* Else */
PUSHW[ ]\011/* 2 values pushed */
8 19 
MIAP[0]\011/* MoveIndirectAbsPt */
EIF[ ]\011/* EndIf */
PUSHW[ ]\011/* 1 value pushed */
6 
RCVT[ ]\011/* ReadCVT */
IF[ ]\011/* If */
PUSHW[ ]\011/* 1 value pushed */
6 
MDAP[1]\011/* MoveDirectAbsPt */
ELSE[ ]\011/* Else */
PUSHW[ ]\011/* 2 values pushed */
6 17 
MIAP[0]\011/* MoveIndirectAbsPt */
EIF[ ]\011/* EndIf */
PUSHW[ ]\011/* 1 value pushed */
6 
RCVT[ ]\011/* ReadCVT */
IF[ ]\011/* If */
PUSHW[ ]\011/* 1 value pushed */
10 
MDAP[1]\011/* MoveDirectAbsPt */
ELSE[ ]\011/* Else */
PUSHW[ ]\011/* 2 values pushed */
10 17 
MIAP[0]\011/* MoveIndirectAbsPt */
EIF[ ]\011/* EndIf */
PUSHW[ ]\011/* 1 value pushed */
6 
RCVT[ ]\011/* ReadCVT */
IF[ ]\011/* If */
PUSHW[ ]\011/* 1 value pushed */
1 
MDAP[1]\011/* MoveDirectAbsPt */
ELSE[ ]\011/* Else */
PUSHW[ ]\011/* 2 values pushed */
1 13 
MIAP[0]\011/* MoveIndirectAbsPt */
EIF[ ]\011/* EndIf */
PUSHW[ ]\011/* 1 value pushed */
6 
SRP0[ ]\011/* SetRefPoint0 */
PUSHW[ ]\011/* 2 values pushed */
4 8 
MIRP[10100]\011/* MoveIndirectRelPt */
PUSHW[ ]\011/* 1 value pushed */
12 
MDRP[10000]\011/* MoveDirectRelPt */
PUSHW[ ]\011/* 1 value pushed */
13 
MDRP[10000]\011/* MoveDirectRelPt */
IUP[0]\011/* InterpolateUntPts */
IUP[1]\011/* InterpolateUntPts */";
};
width = 92;
},
{
hints = (
{
horizontal = 1;
origin = "{0, 7}";
target = up;
type = BottomGhost;
},
{
horizontal = 1;
origin = "{0, 4}";
target = "{0, 5}";
type = Stem;
},
{
horizontal = 1;
origin = "{0, 1}";
target = "{0, 13}";
type = Stem;
},
{
place = "{62.5, 24}";
type = Stem;
}
);
layerId = "DBA696BD-A337-48FC-9DA1-CD58B2C81FFB";
paths = (
{
closed = 1;
nodes = (
"113 690 LINE",
"97 690 LINE",
"87 682 LINE",
"70 600 LINE",
"64 600 LINE",
"61 589 LINE",
"67 589 LINE",
"-58 0 LINE",
"-46 0 LINE",
"79 589 LINE",
"85 589 LINE",
"88 600 LINE",
"82 600 LINE",
"98 679 LINE",
"110 679 LINE"
);
}
);
width = 24;
}
);
note = t;
},
{
color = 4;
glyphname = y.ss01;
lastChange = "2020-09-26 15:01:18 +0000";
layers = (
{
hints = (
{
horizontal = 1;
origin = "{0, 2}";
target = up;
type = BottomGhost;
},
{
horizontal = 1;
origin = "{0, 0}";
target = down;
type = TopGhost;
},
{
horizontal = 1;
origin = "{0, 12}";
target = down;
type = TopGhost;
}
);
layerId = "B64BEB12-03E1-41C2-8D0F-395888C0A328";
paths = (
{
closed = 1;
nodes = (
"-19 0 LINE",
"-12 0 LINE",
"-39 -130 LINE",
"41 -130 LINE",
"68 0 LINE",
"75 0 LINE",
"124 45 LINE",
"242 600 LINE",
"162 600 LINE",
"50 75 LINE",
"38 75 LINE",
"150 600 LINE",
"70 600 LINE",
"-48 45 LINE"
);
}
);
userData = {
assembly = "PUSHW[ ]\011/* 1 value pushed */
10 
CALL[ ]\011/* CallFunction */
PUSHW[ ]\011/* 1 value pushed */
17 
MDAP[1]\011/* MoveDirectAbsPt */
PUSHW[ ]\011/* 1 value pushed */
0 
MDAP[1]\011/* MoveDirectAbsPt */
PUSHW[ ]\011/* 2 values pushed */
2 9 
MIRP[10100]\011/* MoveIndirectRelPt */
PUSHW[ ]\011/* 1 value pushed */
17 
SRP0[ ]\011/* SetRefPoint0 */
PUSHW[ ]\011/* 1 value pushed */
10 
MDRP[10000]\011/* MoveDirectRelPt */
PUSHW[ ]\011/* 1 value pushed */
10 
MDAP[1]\011/* MoveDirectAbsPt */
PUSHW[ ]\011/* 1 value pushed */
5 
MDRP[10000]\011/* MoveDirectRelPt */
PUSHW[ ]\011/* 1 value pushed */
0 
SRP0[ ]\011/* SetRefPoint0 */
PUSHW[ ]\011/* 1 value pushed */
7 
MDRP[10000]\011/* MoveDirectRelPt */
PUSHW[ ]\011/* 1 value pushed */
10 
SRP0[ ]\011/* SetRefPoint0 */
PUSHW[ ]\011/* 2 values pushed */
14 9 
MIRP[10100]\011/* MoveIndirectRelPt */
PUSHW[ ]\011/* 1 value pushed */
0 
SRP0[ ]\011/* SetRefPoint0 */
PUSHW[ ]\011/* 1 value pushed */
15 
MDRP[10000]\011/* MoveDirectRelPt */
PUSHW[ ]\011/* 1 value pushed */
2 
SRP0[ ]\011/* SetRefPoint0 */
PUSHW[ ]\011/* 1 value pushed */
18 
MDRP[11100]\011/* MoveDirectRelPt */
SVTCA[0]\011/* SetFreedomAndProjectionVectorToAxis */
PUSHW[ ]\011/* 1 value pushed */
6 
RCVT[ ]\011/* ReadCVT */
IF[ ]\011/* If */
PUSHW[ ]\011/* 1 value pushed */
0 
MDAP[1]\011/* MoveDirectAbsPt */
ELSE[ ]\011/* Else */
PUSHW[ ]\011/* 2 values pushed */
0 17 
MIAP[0]\011/* MoveIndirectAbsPt */
EIF[ ]\011/* EndIf */
PUSHW[ ]\011/* 1 value pushed */
6 
RCVT[ ]\011/* ReadCVT */
IF[ ]\011/* If */
PUSHW[ ]\011/* 1 value pushed */
11 
MDAP[1]\011/* MoveDirectAbsPt */
ELSE[ ]\011/* Else */
PUSHW[ ]\011/* 2 values pushed */
11 17 
MIAP[0]\011/* MoveIndirectAbsPt */
EIF[ ]\011/* EndIf */
PUSHW[ ]\011/* 1 value pushed */
6 
RCVT[ ]\011/* ReadCVT */
IF[ ]\011/* If */
PUSHW[ ]\011/* 1 value pushed */
13 
MDAP[1]\011/* MoveDirectAbsPt */
ELSE[ ]\011/* Else */
PUSHW[ ]\011/* 2 values pushed */
13 17 
MIAP[0]\011/* MoveIndirectAbsPt */
EIF[ ]\011/* EndIf */
PUSHW[ ]\011/* 1 value pushed */
6 
RCVT[ ]\011/* ReadCVT */
IF[ ]\011/* If */
PUSHW[ ]\011/* 1 value pushed */
8 
MDAP[1]\011/* MoveDirectAbsPt */
ELSE[ ]\011/* Else */
PUSHW[ ]\011/* 2 values pushed */
8 13 
MIAP[0]\011/* MoveIndirectAbsPt */
EIF[ ]\011/* EndIf */
PUSHW[ ]\011/* 1 value pushed */
6 
RCVT[ ]\011/* ReadCVT */
IF[ ]\011/* If */
PUSHW[ ]\011/* 1 value pushed */
4 
MDAP[1]\011/* MoveDirectAbsPt */
ELSE[ ]\011/* Else */
PUSHW[ ]\011/* 2 values pushed */
4 15 
MIAP[0]\011/* MoveIndirectAbsPt */
EIF[ ]\011/* EndIf */
PUSHW[ ]\011/* 2 values pushed */
6 8 
MIRP[10100]\011/* MoveIndirectRelPt */
IUP[0]\011/* InterpolateUntPts */
IUP[1]\011/* InterpolateUntPts */";
};
width = 184;
},
{
hints = (
{
horizontal = 1;
origin = "{0, 2}";
target = up;
type = BottomGhost;
},
{
horizontal = 1;
origin = "{0, 0}";
target = "{0, 10}";
type = Stem;
},
{
horizontal = 1;
origin = "{0, 12}";
target = down;
type = TopGhost;
}
);
layerId = "DBA696BD-A337-48FC-9DA1-CD58B2C81FFB";
paths = (
{
closed = 1;
nodes = (
"-50 0 LINE",
"-46 0 LINE",
"-65 -90 LINE",
"-53 -90 LINE",
"-34 0 LINE",
"-30 0 LINE",
"-20 8 LINE",
"106 600 LINE",
"94 600 LINE",
"-32 11 LINE",
"-44 11 LINE",
"82 600 LINE",
"70 600 LINE",
"-56 8 LINE"
);
}
);
width = 48;
}
);
note = y;
},
{
color = 4;
glyphname = f_f_i;
lastChange = "2020-09-26 15:00:54 +0000";
layers = (
{
hints = (
{
horizontal = 1;
origin = "{0, 1}";
target = up;
type = BottomGhost;
},
{
horizontal = 1;
origin = "{0, 21}";
target = "{0, 22}";
type = Stem;
},
{
horizontal = 1;
origin = "{0, 18}";
target = "{1, 0}";
type = Stem;
}
);
layerId = "B64BEB12-03E1-41C2-8D0F-395888C0A328";
paths = (
{
closed = 1;
nodes = (
"60 525 LINE",
"-52 0 LINE",
"28 0 LINE",
"140 525 LINE",
"152 525 LINE",
"40 0 LINE",
"120 0 LINE",
"232 525 LINE",
"244 525 LINE",
"132 0 LINE",
"212 0 LINE",
"340 600 LINE",
"248 600 LINE",
"251 615 LINE",
"263 615 LINE",
"263 615 LINE",
"343 615 LINE",
"359 690 LINE",
"134 690 LINE",
"85 645 LINE",
"76 600 LINE",
"70 600 LINE",
"54 525 LINE"
);
},
{
closed = 1;
nodes = (
"159 615 LINE",
"171 615 LINE",
"168 600 LINE",
"156 600 LINE"
);
}
);
userData = {
assembly = "PUSHW[ ]\011/* 1 value pushed */
10 
CALL[ ]\011/* CallFunction */
PUSHW[ ]\011/* 4 values pushed */
4 12 12 14 
CALL[ ]\011/* CallFunction */
PUSHW[ ]\011/* 1 value pushed */
4 
SRP0[ ]\011/* SetRefPoint0 */
PUSHW[ ]\011/* 1 value pushed */
0 
MDRP[10000]\011/* MoveDirectRelPt */
PUSHW[ ]\011/* 3 values pushed */
10 12 4 
SRP1[ ]\011/* SetRefPoint1 */
SRP2[ ]\011/* SetRefPoint2 */
IP[ ]\011/* InterpolatePts */
PUSHW[ ]\011/* 1 value pushed */
10 
MDAP[1]\011/* MoveDirectAbsPt */
PUSHW[ ]\011/* 2 values pushed */
9 9 
MIRP[10100]\011/* MoveIndirectRelPt */
PUSHW[ ]\011/* 1 value pushed */
1 
MDRP[10000]\011/* MoveDirectRelPt */
PUSHW[ ]\011/* 1 value pushed */
4 
SRP0[ ]\011/* SetRefPoint0 */
PUSHW[ ]\011/* 2 values pushed */
6 9 
MIRP[10100]\011/* MoveIndirectRelPt */
PUSHW[ ]\011/* 1 value pushed */
10 
SRP0[ ]\011/* SetRefPoint0 */
PUSHW[ ]\011/* 1 value pushed */
14 
MDRP[10000]\011/* MoveDirectRelPt */
PUSHW[ ]\011/* 1 value pushed */
4 
SRP0[ ]\011/* SetRefPoint0 */
PUSHW[ ]\011/* 1 value pushed */
17 
MDRP[10000]\011/* MoveDirectRelPt */
PUSHW[ ]\011/* 1 value pushed */
5 
SRP0[ ]\011/* SetRefPoint0 */
PUSHW[ ]\011/* 1 value pushed */
18 
MDRP[10000]\011/* MoveDirectRelPt */
PUSHW[ ]\011/* 1 value pushed */
4 
SRP0[ ]\011/* SetRefPoint0 */
PUSHW[ ]\011/* 1 value pushed */
20 
MDRP[11100]\011/* MoveDirectRelPt */
SVTCA[0]\011/* SetFreedomAndProjectionVectorToAxis */
PUSHW[ ]\011/* 1 value pushed */
6 
RCVT[ ]\011/* ReadCVT */
IF[ ]\011/* If */
PUSHW[ ]\011/* 1 value pushed */
2 
MDAP[1]\011/* MoveDirectAbsPt */
ELSE[ ]\011/* Else */
PUSHW[ ]\011/* 2 values pushed */
2 17 
MIAP[0]\011/* MoveIndirectAbsPt */
EIF[ ]\011/* EndIf */
PUSHW[ ]\011/* 1 value pushed */
6 
RCVT[ ]\011/* ReadCVT */
IF[ ]\011/* If */
PUSHW[ ]\011/* 1 value pushed */
13 
MDAP[1]\011/* MoveDirectAbsPt */
ELSE[ ]\011/* Else */
PUSHW[ ]\011/* 2 values pushed */
13 17 
MIAP[0]\011/* MoveIndirectAbsPt */
EIF[ ]\011/* EndIf */
PUSHW[ ]\011/* 1 value pushed */
6 
RCVT[ ]\011/* ReadCVT */
IF[ ]\011/* If */
PUSHW[ ]\011/* 1 value pushed */
16 
MDAP[1]\011/* MoveDirectAbsPt */
ELSE[ ]\011/* Else */
PUSHW[ ]\011/* 2 values pushed */
16 19 
MIAP[0]\011/* MoveIndirectAbsPt */
EIF[ ]\011/* EndIf */
PUSHW[ ]\011/* 1 value pushed */
6 
RCVT[ ]\011/* ReadCVT */
IF[ ]\011/* If */
PUSHW[ ]\011/* 1 value pushed */
5 
MDAP[1]\011/* MoveDirectAbsPt */
ELSE[ ]\011/* Else */
PUSHW[ ]\011/* 2 values pushed */
5 13 
MIAP[0]\011/* MoveIndirectAbsPt */
EIF[ ]\011/* EndIf */
PUSHW[ ]\011/* 1 value pushed */
6 
RCVT[ ]\011/* ReadCVT */
IF[ ]\011/* If */
PUSHW[ ]\011/* 1 value pushed */
9 
MDAP[1]\011/* MoveDirectAbsPt */
ELSE[ ]\011/* Else */
PUSHW[ ]\011/* 2 values pushed */
9 13 
MIAP[0]\011/* MoveIndirectAbsPt */
EIF[ ]\011/* EndIf */
PUSHW[ ]\011/* 1 value pushed */
16 
SRP0[ ]\011/* SetRefPoint0 */
PUSHW[ ]\011/* 2 values pushed */
0 8 
MIRP[10100]\011/* MoveIndirectRelPt */
IUP[0]\011/* InterpolateUntPts */
IUP[1]\011/* InterpolateUntPts */";
};
width = 282;
},
{
hints = (
{
horizontal = 1;
origin = "{0, 1}";
target = up;
type = BottomGhost;
},
{
horizontal = 1;
origin = "{0, 21}";
target = "{0, 22}";
type = Stem;
},
{
horizontal = 1;
origin = "{0, 18}";
target = "{1, 0}";
type = Stem;
}
);
layerId = "DBA696BD-A337-48FC-9DA1-CD58B2C81FFB";
paths = (
{
closed = 1;
nodes = (
"67 589 LINE",
"-58 0 LINE",
"-46 0 LINE",
"79 589 LINE",
"91 589 LINE",
"-34 0 LINE",
"-22 0 LINE",
"103 589 LINE",
"115 589 LINE",
"-10 0 LINE",
"2 0 LINE",
"130 600 LINE",
"106 600 LINE",
"122 679 LINE",
"133 679 LINE",
"120 612 LINE",
"132 612 LINE",
"147 690 LINE",
"97 690 LINE",
"87 682 LINE",
"70 600 LINE",
"64 600 LINE",
"61 589 LINE"
);
},
{
closed = 1;
nodes = (
"98 679 LINE",
"110 679 LINE",
"94 600 LINE",
"82 600 LINE"
);
}
);
width = 72;
}
);
note = fi;
},
